999
dxflib 3.12.2.0
  0
SECTION
  2
HEADER
  9
$ACADVER
  1
AC1015
  9
$HANDSEED
  5
FFFF
  9
$DIMADEC
 70
0
  9
$DIMASZ
 40
2.5
  9
$DIMAUNIT
 70
0
  9
$DIMAZIN
 70
2
  9
$DIMDEC
 70
2
  9
$DIMEXE
 40
1.25
  9
$DIMEXO
 40
0.625
  9
$DIMGAP
 40
0.625
  9
$DIMLUNIT
 70
2
  9
$DIMSCALE
 40
1.0
  9
$DIMTSZ
 40
0.0
  9
$DIMTXT
 40
2.5
  9
$DIMZIN
 70
0
  9
$DWGCODEPAGE
  3
ANSI_1252
  9
$INSUNITS
 70
4
  9
$LTSCALE
 40
1.0
  9
$MEASUREMENT
 70
1
  9
$PDMODE
 70
0
  9
$PDSIZE
 40
0
  0
ENDSEC
  0
SECTION
  2
TABLES
  0
TABLE
  2
VPORT
  5
8
100
AcDbSymbolTable
 70
1
  0
VPORT
  5
30
100
AcDbSymbolTableRecord
100
AcDbViewportTableRecord
  2
*Active
 70
0
 10
0.0
 20
0.0
 11
1.0
 21
1.0
 12
286.3055555555554861
 22
148.5
 13
0.0
 23
0.0
 14
10.0
 24
10.0
 15
10.0
 25
10.0
 16
0.0
 26
0.0
 36
1.0
 17
0.0
 27
0.0
 37
0.0
 40
297.0
 41
1.92798353909465
 42
50.0
 43
0.0
 44
0.0
 50
0.0
 51
0.0
 71
0
 72
100
 73
1
 74
3
 75
1
 76
1
 77
0
 78
0
281
0
 65
1
110
0.0
120
0.0
130
0.0
111
1.0
121
0.0
131
0.0
112
0.0
122
1.0
132
0.0
 79
0
146
0.0
  0
ENDTAB
  0
TABLE
  2
LTYPE
  5
5
100
AcDbSymbolTable
 70
41
  0
LTYPE
  5
16
100
AcDbSymbolTableRecord
100
AcDbLinetypeTableRecord
  2
Continuous
 70
0
  3
Solid line
 72
65
 73
0
 40
0.0
  0
LTYPE
  5
31
100
AcDbSymbolTableRecord
100
AcDbLinetypeTableRecord
  2
ACAD_ISO15W100
 70
0
  3
ISO double-dash triple-dot __ __ . . . __ __ . .
 72
65
 73
10
 40
39.0000000000000071
 49
12.0
 74
0
 49
-3.0
 74
0
 49
12.0
 74
0
 49
-2.9500000000000002
 74
0
 49
0.1
 74
0
 49
-2.9000000000000004
 74
0
 49
0.1
 74
0
 49
-2.9000000000000004
 74
0
 49
0.1
 74
0
 49
-2.9500000000000002
 74
0
  0
LTYPE
  5
32
100
AcDbSymbolTableRecord
100
AcDbLinetypeTableRecord
  2
DIVIDE
 70
0
  3
Divide ____ . . ____ . . ____ . . ____ . . ____
 72
65
 73
6
 40
31.7500000000000036
 49
12.6999999999999993
 74
0
 49
-6.2999999999999998
 74
0
 49
0.1
 74
0
 49
-6.25
 74
0
 49
0.1
 74
0
 49
-6.2999999999999998
 74
0
  0
LTYPE
  5
33
100
AcDbSymbolTableRecord
100
AcDbLinetypeTableRecord
  2
ACAD_ISO10W100
 70
0
  3
ISO dash dot __ . __ . __ . __ . __ . __ . __ . 
 72
65
 73
4
 40
18.0
 49
12.0
 74
0
 49
-2.9500000000000002
 74
0
 49
0.1
 74
0
 49
-2.9500000000000002
 74
0
  0
LTYPE
  5
34
100
AcDbSymbolTableRecord
100
AcDbLinetypeTableRecord
  2
ACAD_ISO04W100
 70
0
  3
ISO long-dash dot ____ . ____ . ____ . ____ . _
 72
65
 73
4
 40
30.0
 49
24.0
 74
0
 49
-2.9500000000000002
 74
0
 49
0.1
 74
0
 49
-2.9500000000000002
 74
0
  0
LTYPE
  5
35
100
AcDbSymbolTableRecord
100
AcDbLinetypeTableRecord
  2
CENTER2
 70
0
  3
Center (.5x) ___ _ ___ _ ___ _ ___ _ ___ _ ___
 72
65
 73
4
 40
28.5750000000000028
 49
19.0500000000000007
 74
0
 49
-3.1749999999999998
 74
0
 49
3.1749999999999998
 74
0
 49
-3.1749999999999998
 74
0
  0
LTYPE
  5
36
100
AcDbSymbolTableRecord
100
AcDbLinetypeTableRecord
  2
ACAD_ISO11W100
 70
0
  3
ISO double-dash dot __ __ . __ __ . __ __ . __ _
 72
65
 73
6
 40
33.0
 49
12.0
 74
0
 49
-3.0
 74
0
 49
12.0
 74
0
 49
-2.9500000000000002
 74
0
 49
0.1
 74
0
 49
-2.9500000000000002
 74
0
  0
LTYPE
  5
37
100
AcDbSymbolTableRecord
100
AcDbLinetypeTableRecord
  2
HIDDEN2
 70
0
  3
Hidden (.5x) _ _ _ _ _ _ _ _ _ _ _ _ _ _ _ _ _ 
 72
65
 73
2
 40
4.7624999999999993
 49
3.1749999999999998
 74
0
 49
-1.5874999999999999
 74
0
  0
LTYPE
  5
38
100
AcDbSymbolTableRecord
100
AcDbLinetypeTableRecord
  2
BORDERX2
 70
0
  3
Border (2x) ____  ____  .  ____  ____  .  ___
 72
65
 73
6
 40
88.8999999999999773
 49
25.3999999999999986
 74
0
 49
-12.6999999999999993
 74
0
 49
25.3999999999999986
 74
0
 49
-12.6499999999999986
 74
0
 49
0.1
 74
0
 49
-12.6499999999999986
 74
0
  0
LTYPE
  5
39
100
AcDbSymbolTableRecord
100
AcDbLinetypeTableRecord
  2
ACAD_ISO05W100
 70
0
  3
ISO long-dash double-dot ____ .. ____ .. ____ . 
 72
65
 73
6
 40
33.0000000000000071
 49
24.0
 74
0
 49
-2.9500000000000002
 74
0
 49
0.1
 74
0
 49
-2.9000000000000004
 74
0
 49
0.1
 74
0
 49
-2.9500000000000002
 74
0
  0
LTYPE
  5
3A
100
AcDbSymbolTableRecord
100
AcDbLinetypeTableRecord
  2
DASHDOTX2
 70
0
  3
Dash dot (2x) ____  .  ____  .  ____  .  ___
 72
65
 73
4
 40
50.7999999999999972
 49
25.3999999999999986
 74
0
 49
-12.6499999999999986
 74
0
 49
0.1
 74
0
 49
-12.6499999999999986
 74
0
  0
LTYPE
  5
3B
100
AcDbSymbolTableRecord
100
AcDbLinetypeTableRecord
  2
HIDDENX2
 70
0
  3
Hidden (2x) ____ ____ ____ ____ ____ ____ ____ 
 72
65
 73
2
 40
19.0499999999999972
 49
12.6999999999999993
 74
0
 49
-6.3499999999999996
 74
0
  0
LTYPE
  5
3C
100
AcDbSymbolTableRecord
100
AcDbLinetypeTableRecord
  2
CENTERX2
 70
0
  3
Center (2x) ________  __  ________  __  _____
 72
65
 73
4
 40
101.6000000000000085
 49
63.5
 74
0
 49
-12.6999999999999993
 74
0
 49
12.6999999999999993
 74
0
 49
-12.6999999999999993
 74
0
  0
LTYPE
  5
3D
100
AcDbSymbolTableRecord
100
AcDbLinetypeTableRecord
  2
BORDER2
 70
0
  3
Border (.5x) __.__.__.__.__.__.__.__.__.__.__.
 72
65
 73
6
 40
22.2250000000000014
 49
6.3499999999999996
 74
0
 49
-3.1749999999999998
 74
0
 49
6.3499999999999996
 74
0
 49
-3.125
 74
0
 49
0.1
 74
0
 49
-3.125
 74
0
  0
LTYPE
  5
3E
100
AcDbSymbolTableRecord
100
AcDbLinetypeTableRecord
  2
DASHDOT2
 70
0
  3
Dash dot (.5x) _._._._._._._._._._._._._._._.
 72
65
 73
4
 40
12.6999999999999993
 49
6.3499999999999996
 74
0
 49
-3.125
 74
0
 49
0.1
 74
0
 49
-3.125
 74
0
  0
LTYPE
  5
3F
100
AcDbSymbolTableRecord
100
AcDbLinetypeTableRecord
  2
ACAD_ISO12W100
 70
0
  3
ISO dash double-dot __ . . __ . . __ . . __ . . 
 72
65
 73
6
 40
21.0
 49
12.0
 74
0
 49
-2.9500000000000002
 74
0
 49
0.1
 74
0
 49
-2.9000000000000004
 74
0
 49
0.1
 74
0
 49
-2.9500000000000002
 74
0
  0
LTYPE
  5
40
100
AcDbSymbolTableRecord
100
AcDbLinetypeTableRecord
  2
ACAD_ISO07W100
 70
0
  3
ISO dot . . . . . . . . . . . . . . . . . . . . 
 72
65
 73
2
 40
3.0
 49
0.1
 74
0
 49
-2.8999999999999999
 74
0
  0
LTYPE
  5
41
100
AcDbSymbolTableRecord
100
AcDbLinetypeTableRecord
  2
HIDDEN
 70
0
  3
Hidden __ __ __ __ __ __ __ __ __ __ __ __ __ __
 72
65
 73
2
 40
9.5249999999999986
 49
6.3499999999999996
 74
0
 49
-3.1749999999999998
 74
0
  0
LTYPE
  5
42
100
AcDbSymbolTableRecord
100
AcDbLinetypeTableRecord
  2
ACAD_ISO06W100
 70
0
  3
ISO long-dash triple-dot ____ ... ____ ... ____
 72
65
 73
8
 40
36.0000000000000071
 49
24.0
 74
0
 49
-2.9500000000000002
 74
0
 49
0.1
 74
0
 49
-2.9000000000000004
 74
0
 49
0.1
 74
0
 49
-2.9000000000000004
 74
0
 49
0.1
 74
0
 49
-2.9500000000000002
 74
0
  0
LTYPE
  5
43
100
AcDbSymbolTableRecord
100
AcDbLinetypeTableRecord
  2
CENTER
 70
0
  3
Center ____ _ ____ _ ____ _ ____ _ ____ _ ____
 72
65
 73
4
 40
50.8000000000000043
 49
31.75
 74
0
 49
-6.3499999999999996
 74
0
 49
6.3499999999999996
 74
0
 49
-6.3499999999999996
 74
0
  0
LTYPE
  5
44
100
AcDbSymbolTableRecord
100
AcDbLinetypeTableRecord
  2
DOTX2
 70
0
  3
Dot (2x) .  .  .  .  .  .  .  .  .  .  .  .  .  .
 72
65
 73
2
 40
12.6999999999999993
 49
0.1
 74
0
 49
-12.5999999999999996
 74
0
  0
LTYPE
  5
45
100
AcDbSymbolTableRecord
100
AcDbLinetypeTableRecord
  2
PHANTOM
 70
0
  3
Phantom ______  __  __  ______  __  __  ______ 
 72
65
 73
6
 40
63.5000000000000071
 49
31.75
 74
0
 49
-6.3499999999999996
 74
0
 49
6.3499999999999996
 74
0
 49
-6.3499999999999996
 74
0
 49
6.3499999999999996
 74
0
 49
-6.3499999999999996
 74
0
  0
LTYPE
  5
46
100
AcDbSymbolTableRecord
100
AcDbLinetypeTableRecord
  2
ACAD_ISO08W100
 70
0
  3
ISO long-dash short-dash ____ __ ____ __ ____ _
 72
65
 73
4
 40
36.0
 49
24.0
 74
0
 49
-3.0
 74
0
 49
6.0
 74
0
 49
-3.0
 74
0
  0
LTYPE
  5
47
100
AcDbSymbolTableRecord
100
AcDbLinetypeTableRecord
  2
DASHEDX2
 70
0
  3
Dashed (2x) ____  ____  ____  ____  ____  ___
 72
65
 73
2
 40
38.0999999999999943
 49
25.3999999999999986
 74
0
 49
-12.6999999999999993
 74
0
  0
LTYPE
  5
48
100
AcDbSymbolTableRecord
100
AcDbLinetypeTableRecord
  2
ACAD_ISO02W100
 70
0
  3
ISO dash __ __ __ __ __ __ __ __ __ __ __ __ __
 72
65
 73
2
 40
15.0
 49
12.0
 74
0
 49
-3.0
 74
0
  0
LTYPE
  5
49
100
AcDbSymbolTableRecord
100
AcDbLinetypeTableRecord
  2
PHANTOM2
 70
0
  3
Phantom (.5x) ___ _ _ ___ _ _ ___ _ _ ___ _ _
 72
65
 73
6
 40
31.7500000000000036
 49
15.875
 74
0
 49
-3.1749999999999998
 74
0
 49
3.1749999999999998
 74
0
 49
-3.1749999999999998
 74
0
 49
3.1749999999999998
 74
0
 49
-3.1749999999999998
 74
0
  0
LTYPE
  5
4A
100
AcDbSymbolTableRecord
100
AcDbLinetypeTableRecord
  2
DASHED2
 70
0
  3
Dashed (.5x) _ _ _ _ _ _ _ _ _ _ _ _ _ _ _ _ _ 
 72
65
 73
2
 40
9.5249999999999986
 49
6.3499999999999996
 74
0
 49
-3.1749999999999998
 74
0
  0
LTYPE
  5
4B
100
AcDbSymbolTableRecord
100
AcDbLinetypeTableRecord
  2
ACAD_ISO09W100
 70
0
  3
ISO long-dash double-short-dash ____ __ __ ____
 72
65
 73
6
 40
45.0
 49
24.0
 74
0
 49
-3.0
 74
0
 49
6.0
 74
0
 49
-3.0
 74
0
 49
6.0
 74
0
 49
-3.0
 74
0
  0
LTYPE
  5
4C
100
AcDbSymbolTableRecord
100
AcDbLinetypeTableRecord
  2
ACAD_ISO13W100
 70
0
  3
ISO double-dash double-dot __ __ . . __ __ . . _
 72
65
 73
8
 40
36.0000000000000071
 49
12.0
 74
0
 49
-3.0
 74
0
 49
12.0
 74
0
 49
-2.9500000000000002
 74
0
 49
0.1
 74
0
 49
-2.9000000000000004
 74
0
 49
0.1
 74
0
 49
-2.9500000000000002
 74
0
  0
LTYPE
  5
4D
100
AcDbSymbolTableRecord
100
AcDbLinetypeTableRecord
  2
DOT2
 70
0
  3
Dot (.5x) ........................................
 72
65
 73
2
 40
3.1749999999999998
 49
0.1
 74
0
 49
-3.0749999999999997
 74
0
  0
LTYPE
  5
4E
100
AcDbSymbolTableRecord
100
AcDbLinetypeTableRecord
  2
DASHED
 70
0
  3
Dashed __ __ __ __ __ __ __ __ __ __ __ __ __ _
 72
65
 73
2
 40
19.0499999999999972
 49
12.6999999999999993
 74
0
 49
-6.3499999999999996
 74
0
  0
LTYPE
  5
4F
100
AcDbSymbolTableRecord
100
AcDbLinetypeTableRecord
  2
ACAD_ISO14W100
 70
0
  3
ISO dash triple-dot __ . . . __ . . . __ . . . _
 72
65
 73
8
 40
24.0000000000000036
 49
12.0
 74
0
 49
-2.9500000000000002
 74
0
 49
0.1
 74
0
 49
-2.9000000000000004
 74
0
 49
0.1
 74
0
 49
-2.9000000000000004
 74
0
 49
0.1
 74
0
 49
-2.9500000000000002
 74
0
  0
LTYPE
  5
15
100
AcDbSymbolTableRecord
100
AcDbLinetypeTableRecord
  2
BYLAYER
 70
0
  3

 72
65
 73
0
 40
0.0
  0
LTYPE
  5
50
100
AcDbSymbolTableRecord
100
AcDbLinetypeTableRecord
  2
PHANTOMX2
 70
0
  3
Phantom (2x) ____________    ____    ____   _
 72
65
 73
6
 40
127.0000000000000142
 49
63.5
 74
0
 49
-12.6999999999999993
 74
0
 49
12.6999999999999993
 74
0
 49
-12.6999999999999993
 74
0
 49
12.6999999999999993
 74
0
 49
-12.6999999999999993
 74
0
  0
LTYPE
  5
14
100
AcDbSymbolTableRecord
100
AcDbLinetypeTableRecord
  2
BYBLOCK
 70
0
  3

 72
65
 73
0
 40
0.0
  0
LTYPE
  5
51
100
AcDbSymbolTableRecord
100
AcDbLinetypeTableRecord
  2
DIVIDEX2
 70
0
  3
Divide (2x) ________  .  .  ________  .  .  _
 72
65
 73
6
 40
63.5
 49
25.3999999999999986
 74
0
 49
-12.6499999999999986
 74
0
 49
0.1
 74
0
 49
-12.5999999999999979
 74
0
 49
0.1
 74
0
 49
-12.6499999999999986
 74
0
  0
LTYPE
  5
52
100
AcDbSymbolTableRecord
100
AcDbLinetypeTableRecord
  2
BORDER
 70
0
  3
Border __ __ . __ __ . __ __ . __ __ . __ __ .
 72
65
 73
6
 40
44.4499999999999957
 49
12.6999999999999993
 74
0
 49
-6.3499999999999996
 74
0
 49
12.6999999999999993
 74
0
 49
-6.2999999999999998
 74
0
 49
0.1
 74
0
 49
-6.2999999999999998
 74
0
  0
LTYPE
  5
53
100
AcDbSymbolTableRecord
100
AcDbLinetypeTableRecord
  2
DIVIDE2
 70
0
  3
Divide (.5x) __..__..__..__..__..__..__..__.._
 72
65
 73
6
 40
15.8749999999999982
 49
6.3499999999999996
 74
0
 49
-3.125
 74
0
 49
0.1
 74
0
 49
-3.0750000000000002
 74
0
 49
0.1
 74
0
 49
-3.125
 74
0
  0
LTYPE
  5
54
100
AcDbSymbolTableRecord
100
AcDbLinetypeTableRecord
  2
DOT
 70
0
  3
Dot . . . . . . . . . . . . . . . . . . . . . . . .
 72
65
 73
2
 40
6.3499999999999996
 49
0.1
 74
0
 49
-6.25
 74
0
  0
LTYPE
  5
55
100
AcDbSymbolTableRecord
100
AcDbLinetypeTableRecord
  2
DASHDOT
 70
0
  3
Dash dot __ . __ . __ . __ . __ . __ . __ . __
 72
65
 73
4
 40
25.4000000000000021
 49
12.6999999999999993
 74
0
 49
-6.2999999999999998
 74
0
 49
0.1
 74
0
 49
-6.2999999999999998
 74
0
  0
LTYPE
  5
56
100
AcDbSymbolTableRecord
100
AcDbLinetypeTableRecord
  2
ACAD_ISO03W100
 70
0
  3
ISO dash space __    __    __    __    __    __
 72
65
 73
2
 40
30.0
 49
12.0
 74
0
 49
-18.0
 74
0
  0
ENDTAB
  0
TABLE
  2
LAYER
  5
2
100
AcDbSymbolTable
 70
9
  0
LAYER
  5
57
100
AcDbSymbolTableRecord
100
AcDbLayerTableRecord
  2
outlines
 70
0
 62
7
420
0
  6
Continuous
370
35
390
F
  0
LAYER
  5
58
100
AcDbSymbolTableRecord
100
AcDbLayerTableRecord
  2
centre lines
 70
0
 62
14
420
8388608
  6
CENTER
370
25
390
F
  0
LAYER
  5
59
100
AcDbSymbolTableRecord
100
AcDbLayerTableRecord
  2
paper outline
 70
0
 62
1
420
16711680
  6
Continuous
370
25
390
F
  0
LAYER
  5
5A
100
AcDbSymbolTableRecord
100
AcDbLayerTableRecord
  2
dimensions
 70
0
 62
174
420
128
  6
Continuous
370
25
390
F
  0
LAYER
  5
5B
100
AcDbSymbolTableRecord
100
AcDbLayerTableRecord
  2
frame
 70
0
 62
5
420
255
  6
Continuous
370
35
390
F
  0
LAYER
  5
5C
100
AcDbSymbolTableRecord
100
AcDbLayerTableRecord
  2
notes
 70
0
 62
94
420
32768
  6
Continuous
370
25
390
F
  0
LAYER
  5
5D
100
AcDbSymbolTableRecord
100
AcDbLayerTableRecord
  2
construction lines
 70
1
 62
-9
420
12632256
  6
Continuous
370
25
390
F
  0
LAYER
  5
5E
100
AcDbSymbolTableRecord
100
AcDbLayerTableRecord
  2
holes
 70
0
 62
7
420
0
  6
Continuous
370
35
390
F
  0
LAYER
  5
10
100
AcDbSymbolTableRecord
100
AcDbLayerTableRecord
  2
0
 70
0
 62
7
420
0
  6
Continuous
370
25
390
F
  0
ENDTAB
  0
TABLE
  2
STYLE
  5
3
100
AcDbSymbolTable
 70
53
  0
STYLE
  5
5F
100
AcDbSymbolTableRecord
100
AcDbTextStyleTableRecord
  2
Standard
 70
0
 40
0.0
 41
1.0
 50
0.0
 71
0
 42
2.5
  3

  4

1001
ACAD
1000
txt
1071
0
  0
STYLE
  5
60
100
AcDbSymbolTableRecord
100
AcDbTextStyleTableRecord
  2
textstyle0
 70
0
 40
0.0
 41
1.0
 50
0.0
 71
0
 42
3.0
  3

  4

1001
ACAD
1000
Nimbus Sans L
1071
0
  0
STYLE
  5
61
100
AcDbSymbolTableRecord
100
AcDbTextStyleTableRecord
  2
textstyle1
 70
0
 40
0.0
 41
1.0
 50
0.0
 71
0
 42
3.0
  3

  4

1001
ACAD
1000
Nimbus Sans L
1071
0
  0
STYLE
  5
62
100
AcDbSymbolTableRecord
100
AcDbTextStyleTableRecord
  2
textstyle2
 70
0
 40
0.0
 41
1.0
 50
0.0
 71
0
 42
3.0
  3

  4

1001
ACAD
1000
Nimbus Sans L
1071
0
  0
STYLE
  5
63
100
AcDbSymbolTableRecord
100
AcDbTextStyleTableRecord
  2
textstyle3
 70
0
 40
0.0
 41
1.0
 50
0.0
 71
0
 42
3.0
  3

  4

1001
ACAD
1000
Nimbus Sans L
1071
0
  0
STYLE
  5
64
100
AcDbSymbolTableRecord
100
AcDbTextStyleTableRecord
  2
textstyle4
 70
0
 40
0.0
 41
1.0
 50
0.0
 71
0
 42
3.0
  3

  4

1001
ACAD
1000
Nimbus Sans L
1071
0
  0
STYLE
  5
65
100
AcDbSymbolTableRecord
100
AcDbTextStyleTableRecord
  2
textstyle5
 70
0
 40
0.0
 41
1.0
 50
0.0
 71
0
 42
3.0
  3

  4

1001
ACAD
1000
Nimbus Sans L
1071
0
  0
STYLE
  5
66
100
AcDbSymbolTableRecord
100
AcDbTextStyleTableRecord
  2
textstyle6
 70
0
 40
0.0
 41
1.0
 50
0.0
 71
0
 42
3.0
  3

  4

1001
ACAD
1000
Nimbus Sans L
1071
0
  0
STYLE
  5
67
100
AcDbSymbolTableRecord
100
AcDbTextStyleTableRecord
  2
textstyle7
 70
0
 40
0.0
 41
1.0
 50
0.0
 71
0
 42
3.0
  3

  4

1001
ACAD
1000
Nimbus Sans L
1071
0
  0
STYLE
  5
68
100
AcDbSymbolTableRecord
100
AcDbTextStyleTableRecord
  2
textstyle8
 70
0
 40
0.0
 41
1.0
 50
0.0
 71
0
 42
3.0
  3

  4

1001
ACAD
1000
Nimbus Sans L
1071
0
  0
STYLE
  5
69
100
AcDbSymbolTableRecord
100
AcDbTextStyleTableRecord
  2
textstyle9
 70
0
 40
0.0
 41
1.0
 50
0.0
 71
0
 42
3.0
  3

  4

1001
ACAD
1000
Nimbus Sans L
1071
0
  0
STYLE
  5
6A
100
AcDbSymbolTableRecord
100
AcDbTextStyleTableRecord
  2
textstyle10
 70
0
 40
0.0
 41
1.0
 50
0.0
 71
0
 42
3.0
  3

  4

1001
ACAD
1000
Nimbus Sans L
1071
0
  0
STYLE
  5
6B
100
AcDbSymbolTableRecord
100
AcDbTextStyleTableRecord
  2
textstyle11
 70
0
 40
0.0
 41
1.0
 50
0.0
 71
0
 42
3.0
  3

  4

1001
ACAD
1000
Nimbus Sans L
1071
0
  0
STYLE
  5
6C
100
AcDbSymbolTableRecord
100
AcDbTextStyleTableRecord
  2
textstyle12
 70
0
 40
0.0
 41
1.0
 50
0.0
 71
0
 42
3.0
  3

  4

1001
ACAD
1000
Nimbus Sans L
1071
0
  0
STYLE
  5
6D
100
AcDbSymbolTableRecord
100
AcDbTextStyleTableRecord
  2
textstyle13
 70
0
 40
0.0
 41
1.0
 50
0.0
 71
0
 42
3.0
  3

  4

1001
ACAD
1000
Nimbus Sans L
1071
0
  0
STYLE
  5
6E
100
AcDbSymbolTableRecord
100
AcDbTextStyleTableRecord
  2
textstyle14
 70
0
 40
0.0
 41
1.0
 50
0.0
 71
0
 42
3.0
  3

  4

1001
ACAD
1000
Nimbus Sans L
1071
0
  0
STYLE
  5
6F
100
AcDbSymbolTableRecord
100
AcDbTextStyleTableRecord
  2
textstyle15
 70
0
 40
0.0
 41
1.0
 50
0.0
 71
0
 42
3.0
  3

  4

1001
ACAD
1000
Nimbus Sans L
1071
0
  0
STYLE
  5
70
100
AcDbSymbolTableRecord
100
AcDbTextStyleTableRecord
  2
textstyle16
 70
0
 40
0.0
 41
1.0
 50
0.0
 71
0
 42
3.0
  3

  4

1001
ACAD
1000
Nimbus Sans L
1071
0
  0
STYLE
  5
71
100
AcDbSymbolTableRecord
100
AcDbTextStyleTableRecord
  2
textstyle17
 70
0
 40
0.0
 41
1.0
 50
0.0
 71
0
 42
3.0
  3

  4

1001
ACAD
1000
Nimbus Sans L
1071
0
  0
STYLE
  5
72
100
AcDbSymbolTableRecord
100
AcDbTextStyleTableRecord
  2
textstyle18
 70
0
 40
0.0
 41
1.0
 50
0.0
 71
0
 42
3.0
  3

  4

1001
ACAD
1000
Nimbus Sans L
1071
0
  0
STYLE
  5
73
100
AcDbSymbolTableRecord
100
AcDbTextStyleTableRecord
  2
textstyle19
 70
0
 40
0.0
 41
1.0
 50
0.0
 71
0
 42
3.0
  3

  4

1001
ACAD
1000
Nimbus Sans L
1071
0
  0
STYLE
  5
74
100
AcDbSymbolTableRecord
100
AcDbTextStyleTableRecord
  2
textstyle20
 70
0
 40
0.0
 41
1.0
 50
0.0
 71
0
 42
3.0
  3

  4

1001
ACAD
1000
Nimbus Sans L
1071
0
  0
STYLE
  5
75
100
AcDbSymbolTableRecord
100
AcDbTextStyleTableRecord
  2
textstyle21
 70
0
 40
0.0
 41
1.0
 50
0.0
 71
0
 42
3.0
  3

  4

1001
ACAD
1000
Nimbus Sans L
1071
0
  0
STYLE
  5
76
100
AcDbSymbolTableRecord
100
AcDbTextStyleTableRecord
  2
textstyle22
 70
0
 40
0.0
 41
1.0
 50
0.0
 71
0
 42
3.0
  3

  4

1001
ACAD
1000
Nimbus Sans L
1071
0
  0
STYLE
  5
77
100
AcDbSymbolTableRecord
100
AcDbTextStyleTableRecord
  2
textstyle23
 70
0
 40
0.0
 41
1.0
 50
0.0
 71
0
 42
3.0
  3

  4

1001
ACAD
1000
Nimbus Sans L
1071
0
  0
STYLE
  5
78
100
AcDbSymbolTableRecord
100
AcDbTextStyleTableRecord
  2
textstyle24
 70
0
 40
0.0
 41
1.0
 50
0.0
 71
0
 42
3.0
  3

  4

1001
ACAD
1000
Nimbus Sans L
1071
0
  0
STYLE
  5
79
100
AcDbSymbolTableRecord
100
AcDbTextStyleTableRecord
  2
textstyle25
 70
0
 40
0.0
 41
1.0
 50
0.0
 71
0
 42
3.0
  3

  4

1001
ACAD
1000
Nimbus Sans L
1071
0
  0
STYLE
  5
7A
100
AcDbSymbolTableRecord
100
AcDbTextStyleTableRecord
  2
textstyle26
 70
0
 40
0.0
 41
1.0
 50
0.0
 71
0
 42
3.0
  3

  4

1001
ACAD
1000
Nimbus Sans L
1071
0
  0
STYLE
  5
7B
100
AcDbSymbolTableRecord
100
AcDbTextStyleTableRecord
  2
textstyle27
 70
0
 40
0.0
 41
1.0
 50
0.0
 71
0
 42
3.0
  3

  4

1001
ACAD
1000
Nimbus Sans L
1071
0
  0
STYLE
  5
7C
100
AcDbSymbolTableRecord
100
AcDbTextStyleTableRecord
  2
textstyle28
 70
0
 40
0.0
 41
1.0
 50
0.0
 71
0
 42
3.0
  3

  4

1001
ACAD
1000
Nimbus Sans L
1071
0
  0
STYLE
  5
7D
100
AcDbSymbolTableRecord
100
AcDbTextStyleTableRecord
  2
textstyle29
 70
0
 40
0.0
 41
1.0
 50
0.0
 71
0
 42
3.0
  3

  4

1001
ACAD
1000
Nimbus Sans L
1071
0
  0
STYLE
  5
7E
100
AcDbSymbolTableRecord
100
AcDbTextStyleTableRecord
  2
textstyle30
 70
0
 40
0.0
 41
1.0
 50
0.0
 71
0
 42
3.0
  3

  4

1001
ACAD
1000
Nimbus Sans L
1071
0
  0
STYLE
  5
7F
100
AcDbSymbolTableRecord
100
AcDbTextStyleTableRecord
  2
textstyle31
 70
0
 40
0.0
 41
1.0
 50
0.0
 71
0
 42
3.0
  3

  4

1001
ACAD
1000
Nimbus Sans L
1071
0
  0
STYLE
  5
80
100
AcDbSymbolTableRecord
100
AcDbTextStyleTableRecord
  2
textstyle32
 70
0
 40
0.0
 41
1.0
 50
0.0
 71
0
 42
3.0
  3

  4

1001
ACAD
1000
Nimbus Sans L
1071
0
  0
STYLE
  5
81
100
AcDbSymbolTableRecord
100
AcDbTextStyleTableRecord
  2
textstyle33
 70
0
 40
0.0
 41
1.0
 50
0.0
 71
0
 42
3.0
  3

  4

1001
ACAD
1000
Nimbus Sans L
1071
0
  0
STYLE
  5
82
100
AcDbSymbolTableRecord
100
AcDbTextStyleTableRecord
  2
textstyle34
 70
0
 40
0.0
 41
1.0
 50
0.0
 71
0
 42
3.0
  3

  4

1001
ACAD
1000
Nimbus Sans L
1071
0
  0
STYLE
  5
83
100
AcDbSymbolTableRecord
100
AcDbTextStyleTableRecord
  2
textstyle35
 70
0
 40
0.0
 41
1.0
 50
0.0
 71
0
 42
3.0
  3

  4

1001
ACAD
1000
Nimbus Sans L
1071
0
  0
STYLE
  5
84
100
AcDbSymbolTableRecord
100
AcDbTextStyleTableRecord
  2
textstyle36
 70
0
 40
0.0
 41
1.0
 50
0.0
 71
0
 42
3.0
  3

  4

1001
ACAD
1000
Nimbus Sans L
1071
0
  0
STYLE
  5
85
100
AcDbSymbolTableRecord
100
AcDbTextStyleTableRecord
  2
textstyle37
 70
0
 40
0.0
 41
1.0
 50
0.0
 71
0
 42
3.0
  3

  4

1001
ACAD
1000
Nimbus Sans L
1071
0
  0
STYLE
  5
86
100
AcDbSymbolTableRecord
100
AcDbTextStyleTableRecord
  2
textstyle38
 70
0
 40
0.0
 41
1.0
 50
0.0
 71
0
 42
3.0
  3

  4

1001
ACAD
1000
Nimbus Sans L
1071
0
  0
STYLE
  5
87
100
AcDbSymbolTableRecord
100
AcDbTextStyleTableRecord
  2
textstyle39
 70
0
 40
0.0
 41
1.0
 50
0.0
 71
0
 42
3.0
  3

  4

1001
ACAD
1000
Nimbus Sans L
1071
0
  0
STYLE
  5
88
100
AcDbSymbolTableRecord
100
AcDbTextStyleTableRecord
  2
textstyle40
 70
0
 40
0.0
 41
1.0
 50
0.0
 71
0
 42
3.0
  3

  4

1001
ACAD
1000
Nimbus Sans L
1071
0
  0
STYLE
  5
89
100
AcDbSymbolTableRecord
100
AcDbTextStyleTableRecord
  2
textstyle41
 70
0
 40
0.0
 41
1.0
 50
0.0
 71
0
 42
5.0
  3

  4

1001
ACAD
1000
Nimbus Sans L
1071
0
  0
STYLE
  5
8A
100
AcDbSymbolTableRecord
100
AcDbTextStyleTableRecord
  2
textstyle42
 70
0
 40
0.0
 41
1.0
 50
0.0
 71
0
 42
3.0
  3

  4

1001
ACAD
1000
Nimbus Sans L
1071
0
  0
STYLE
  5
8B
100
AcDbSymbolTableRecord
100
AcDbTextStyleTableRecord
  2
textstyle43
 70
0
 40
0.0
 41
1.0
 50
0.0
 71
0
 42
1.0
  3

  4

1001
ACAD
1000
Liberation Sans
1071
0
  0
STYLE
  5
8C
100
AcDbSymbolTableRecord
100
AcDbTextStyleTableRecord
  2
textstyle44
 70
0
 40
0.0
 41
1.0
 50
0.0
 71
0
 42
1.0
  3

  4

1001
ACAD
1000
Liberation Sans
1071
0
  0
STYLE
  5
8D
100
AcDbSymbolTableRecord
100
AcDbTextStyleTableRecord
  2
textstyle45
 70
0
 40
0.0
 41
1.0
 50
0.0
 71
0
 42
1.0
  3

  4

1001
ACAD
1000
Liberation Sans
1071
0
  0
STYLE
  5
8E
100
AcDbSymbolTableRecord
100
AcDbTextStyleTableRecord
  2
textstyle46
 70
0
 40
0.0
 41
1.0
 50
0.0
 71
0
 42
1.0
  3

  4

1001
ACAD
1000
Liberation Sans
1071
0
  0
STYLE
  5
8F
100
AcDbSymbolTableRecord
100
AcDbTextStyleTableRecord
  2
textstyle47
 70
0
 40
0.0
 41
1.0
 50
0.0
 71
0
 42
1.0
  3

  4

1001
ACAD
1000
Liberation Sans
1071
0
  0
STYLE
  5
90
100
AcDbSymbolTableRecord
100
AcDbTextStyleTableRecord
  2
textstyle48
 70
0
 40
0.0
 41
1.0
 50
0.0
 71
0
 42
1.0
  3

  4

1001
ACAD
1000
Liberation Sans
1071
0
  0
STYLE
  5
91
100
AcDbSymbolTableRecord
100
AcDbTextStyleTableRecord
  2
textstyle49
 70
0
 40
0.0
 41
1.0
 50
0.0
 71
0
 42
1.0
  3

  4

1001
ACAD
1000
Liberation Sans
1071
0
  0
STYLE
  5
92
100
AcDbSymbolTableRecord
100
AcDbTextStyleTableRecord
  2
textstyle50
 70
0
 40
0.0
 41
1.0
 50
0.0
 71
0
 42
1.0
  3

  4

1001
ACAD
1000
Liberation Sans
1071
0
  0
STYLE
  5
93
100
AcDbSymbolTableRecord
100
AcDbTextStyleTableRecord
  2
textstyle51
 70
0
 40
0.0
 41
1.0
 50
0.0
 71
0
 42
1.0
  3

  4

1001
ACAD
1000
Liberation Sans
1071
0
  0
ENDTAB
  0
TABLE
  2
VIEW
  5
6
100
AcDbSymbolTable
 70
0
  0
ENDTAB
  0
TABLE
  2
UCS
  5
7
100
AcDbSymbolTable
 70
0
  0
ENDTAB
  0
TABLE
  2
APPID
  5
9
100
AcDbSymbolTable
 70
1
  0
APPID
  5
12
100
AcDbSymbolTableRecord
100
AcDbRegAppTableRecord
  2
ACAD
 70
0
  0
APPID
  5
94
100
AcDbSymbolTableRecord
100
AcDbRegAppTableRecord
  2
QCAD
 70
0
  0
ENDTAB
  0
TABLE
  2
DIMSTYLE
  5
A
100
AcDbSymbolTable
 70
1
100
AcDbDimStyleTable
 71
0
  0
DIMSTYLE
105
27
100
AcDbSymbolTableRecord
100
AcDbDimStyleTableRecord
  2
Standard
 41
2.5
 42
0.625
 43
3.75
 44
1.25
 70
0
 73
0
 74
0
 77
1
 78
8
140
2.5
141
2.5
143
0.03937007874016
147
0.625
171
3
172
1
271
2
272
2
274
3
278
44
283
0
284
8
340
5F
  0
ENDTAB
  0
TABLE
  2
BLOCK_RECORD
  5
1
100
AcDbSymbolTable
 70
1
  0
BLOCK_RECORD
  5
1F
100
AcDbSymbolTableRecord
100
AcDbBlockTableRecord
  2
*Model_Space
340
22
  0
BLOCK_RECORD
  5
1B
100
AcDbSymbolTableRecord
100
AcDbBlockTableRecord
  2
*Paper_Space
340
1E
  0
BLOCK_RECORD
  5
23
100
AcDbSymbolTableRecord
100
AcDbBlockTableRecord
  2
*Paper_Space0
340
26
  0
ENDTAB
  0
ENDSEC
  0
SECTION
  2
BLOCKS
  0
BLOCK
  5
20
100
AcDbEntity
  8
0
100
AcDbBlockBegin
  2
*Model_Space
 70
0
 10
0.0
 20
0.0
 30
0.0
  3
*Model_Space
  1

  0
ENDBLK
  5
21
100
AcDbEntity
  8
0
100
AcDbBlockEnd
  0
BLOCK
  5
1C
100
AcDbEntity
 67
1
  8
0
100
AcDbBlockBegin
  2
*Paper_Space
 70
0
 10
0.0
 20
0.0
 30
0.0
  3
*Paper_Space
  1

  0
ENDBLK
  5
1D
100
AcDbEntity
 67
1
  8
0
100
AcDbBlockEnd
  0
BLOCK
  5
24
100
AcDbEntity
  8
0
100
AcDbBlockBegin
  2
*Paper_Space0
 70
0
 10
0.0
 20
0.0
 30
0.0
  3
*Paper_Space0
  1

  0
ENDBLK
  5
25
100
AcDbEntity
  8
0
100
AcDbBlockEnd
  0
ENDSEC
  0
SECTION
  2
ENTITIES
  0
LINE
  5
95
100
AcDbEntity
100
AcDbLine
  8
frame
 62
256
370
-1
 48
1.0
  6
BYLAYER
 10
10.0
 20
10.0
 30
0.0
 11
584.0
 21
10.0
 31
0.0
  0
MTEXT
  5
96
100
AcDbEntity
100
AcDbMText
  8
notes
 62
256
370
-1
 48
1.0
  6
BYLAYER
 10
399.4202861522738885
 20
348.7161471640266086
 30
0.0
 40
1.0
 41
0.0
 71
1
 72
1
  3
\H3;NOTES\P\P1:  All dimensions are millimetres with tolerance +/- 0.10mm.\PDo not scale off drawing.\P\P2:  Material is aluminum, 2.00mm thick.  Overall dimensions are\P128.50mm by 121.60mm, interpolated from Doepfer spec for a\P24HP Eurorack synthe
  3
sizer module.\P\P3:  Do not confuse similar horizontal positions.  The four 3.20mm\Pholes nearest the top and bottom edges are centred 7.50mm\Pand 114.18mm from the left edge.  The other four 3.20mm\Pholes are centred 6.44mm and 115.16mm from the lef
  3
t edge.\P\P4:  Do not confuse similar vertical positions.  The 2.20mm holes\Pare centred 101.43mm from the bottom edge.  The 7.30mm\Pholes are centred 102.35mm from the bottom edge.\P\P5:  Do not confuse similar vertical positions.  The 7.30mm holes\
  1
Pare centred 82.03mm from the bottom edge.  The 2.38mm hole\Pis centred 83.55mm from the bottom edge.
  7
textstyle43
 50
0.0
 73
2
 44
1.0
  0
LINE
  5
97
100
AcDbEntity
100
AcDbLine
  8
frame
 62
256
370
-1
 48
1.0
  6
BYLAYER
 10
584.0
 20
10.0
 30
0.0
 11
584.0
 21
410.0
 31
0.0
  0
LINE
  5
98
100
AcDbEntity
100
AcDbLine
  8
frame
 62
256
370
-1
 48
1.0
  6
BYLAYER
 10
584.0
 20
410.0
 30
0.0
 11
10.0
 21
410.0
 31
0.0
  0
LINE
  5
99
100
AcDbEntity
100
AcDbLine
  8
frame
 62
256
370
-1
 48
1.0
  6
BYLAYER
 10
10.0
 20
410.0
 30
0.0
 11
10.0
 21
10.0
 31
0.0
  0
LINE
  5
9A
100
AcDbEntity
100
AcDbLine
  8
frame
 62
256
370
-1
 48
1.0
  6
BYLAYER
 10
15.0
 20
15.0
 30
0.0
 11
579.0
 21
15.0
 31
0.0
  0
LINE
  5
9B
100
AcDbEntity
100
AcDbLine
  8
frame
 62
256
370
-1
 48
1.0
  6
BYLAYER
 10
579.0
 20
15.0
 30
0.0
 11
579.0
 21
405.0
 31
0.0
  0
LINE
  5
9C
100
AcDbEntity
100
AcDbLine
  8
frame
 62
256
370
-1
 48
1.0
  6
BYLAYER
 10
579.0
 20
405.0
 30
0.0
 11
15.0
 21
405.0
 31
0.0
  0
LINE
  5
9D
100
AcDbEntity
100
AcDbLine
  8
frame
 62
256
370
-1
 48
1.0
  6
BYLAYER
 10
15.0
 20
405.0
 30
0.0
 11
15.0
 21
15.0
 31
0.0
  0
LINE
  5
9E
100
AcDbEntity
100
AcDbLine
  8
frame
 62
256
370
-1
 48
1.0
  6
BYLAYER
 10
115.0
 20
15.0
 30
0.0
 11
115.0
 21
10.0
 31
0.0
  0
LINE
  5
9F
100
AcDbEntity
100
AcDbLine
  8
frame
 62
256
370
-1
 48
1.0
  6
BYLAYER
 10
65.0
 20
15.0
 30
0.0
 11
65.0
 21
10.0
 31
0.0
  0
LINE
  5
A0
100
AcDbEntity
100
AcDbLine
  8
frame
 62
256
370
-1
 48
1.0
  6
BYLAYER
 10
65.0
 20
410.0
 30
0.0
 11
65.0
 21
405.0
 31
0.0
  0
CIRCLE
  5
A1
100
AcDbEntity
100
AcDbCircle
  8
holes
 62
256
370
-1
 48
1.0
  6
BYLAYER
 10
210.8000000000000114
 20
233.5499999999999829
 30
0.0
 40
1.1899999999999977
  0
LINE
  5
A2
100
AcDbEntity
100
AcDbLine
  8
frame
 62
256
370
-1
 48
1.0
  6
BYLAYER
 10
115.0
 20
410.0
 30
0.0
 11
115.0
 21
405.0
 31
0.0
  0
LINE
  5
A3
100
AcDbEntity
100
AcDbLine
  8
frame
 62
256
370
-1
 48
1.0
  6
BYLAYER
 10
215.0
 20
15.0
 30
0.0
 11
215.0
 21
10.0
 31
0.0
  0
CIRCLE
  5
A4
100
AcDbEntity
100
AcDbCircle
  8
holes
 62
256
370
-1
 48
1.0
  6
BYLAYER
 10
210.8000000000000114
 20
239.6500000000000057
 30
0.0
 40
3.1749999999999972
  0
LINE
  5
A5
100
AcDbEntity
100
AcDbLine
  8
frame
 62
256
370
-1
 48
1.0
  6
BYLAYER
 10
165.0
 20
15.0
 30
0.0
 11
165.0
 21
10.0
 31
0.0
  0
LINE
  5
A6
100
AcDbEntity
100
AcDbLine
  8
frame
 62
256
370
-1
 48
1.0
  6
BYLAYER
 10
165.0
 20
410.0
 30
0.0
 11
165.0
 21
405.0
 31
0.0
  0
LINE
  5
A7
100
AcDbEntity
100
AcDbLine
  8
frame
 62
256
370
-1
 48
1.0
  6
BYLAYER
 10
215.0
 20
410.0
 30
0.0
 11
215.0
 21
405.0
 31
0.0
  0
LINE
  5
A8
100
AcDbEntity
100
AcDbLine
  8
frame
 62
256
370
-1
 48
1.0
  6
BYLAYER
 10
315.0
 20
15.0
 30
0.0
 11
315.0
 21
10.0
 31
0.0
  0
LINE
  5
A9
100
AcDbEntity
100
AcDbLine
  8
frame
 62
256
370
-1
 48
1.0
  6
BYLAYER
 10
265.0
 20
15.0
 30
0.0
 11
265.0
 21
10.0
 31
0.0
  0
LINE
  5
AA
100
AcDbEntity
100
AcDbLine
  8
frame
 62
256
370
-1
 48
1.0
  6
BYLAYER
 10
365.0
 20
15.0
 30
0.0
 11
365.0
 21
10.0
 31
0.0
  0
LINE
  5
AB
100
AcDbEntity
100
AcDbLine
  8
frame
 62
256
370
-1
 48
1.0
  6
BYLAYER
 10
365.0
 20
410.0
 30
0.0
 11
365.0
 21
405.0
 31
0.0
  0
LINE
  5
AC
100
AcDbEntity
100
AcDbLine
  8
frame
 62
256
370
-1
 48
1.0
  6
BYLAYER
 10
565.0
 20
15.0
 30
0.0
 11
565.0
 21
10.0
 31
0.0
  0
LINE
  5
AD
100
AcDbEntity
100
AcDbLine
  8
frame
 62
256
370
-1
 48
1.0
  6
BYLAYER
 10
415.0
 20
15.0
 30
0.0
 11
415.0
 21
10.0
 31
0.0
  0
LINE
  5
AE
100
AcDbEntity
100
AcDbLine
  8
frame
 62
256
370
-1
 48
1.0
  6
BYLAYER
 10
465.0
 20
15.0
 30
0.0
 11
465.0
 21
10.0
 31
0.0
  0
LINE
  5
AF
100
AcDbEntity
100
AcDbLine
  8
frame
 62
256
370
-1
 48
1.0
  6
BYLAYER
 10
565.0
 20
410.0
 30
0.0
 11
565.0
 21
405.0
 31
0.0
  0
LINE
  5
B0
100
AcDbEntity
100
AcDbLine
  8
frame
 62
256
370
-1
 48
1.0
  6
BYLAYER
 10
515.0
 20
410.0
 30
0.0
 11
515.0
 21
405.0
 31
0.0
  0
LINE
  5
B1
100
AcDbEntity
100
AcDbLine
  8
frame
 62
256
370
-1
 48
1.0
  6
BYLAYER
 10
465.0
 20
410.0
 30
0.0
 11
465.0
 21
405.0
 31
0.0
  0
LINE
  5
B2
100
AcDbEntity
100
AcDbLine
  8
frame
 62
256
370
-1
 48
1.0
  6
BYLAYER
 10
415.0
 20
410.0
 30
0.0
 11
415.0
 21
405.0
 31
0.0
  0
LINE
  5
B3
100
AcDbEntity
100
AcDbLine
  8
frame
 62
256
370
-1
 48
1.0
  6
BYLAYER
 10
265.0
 20
410.0
 30
0.0
 11
265.0
 21
405.0
 31
0.0
  0
LINE
  5
B4
100
AcDbEntity
100
AcDbLine
  8
frame
 62
256
370
-1
 48
1.0
  6
BYLAYER
 10
315.0
 20
410.0
 30
0.0
 11
315.0
 21
405.0
 31
0.0
  0
LINE
  5
B5
100
AcDbEntity
100
AcDbLine
  8
frame
 62
256
370
-1
 48
1.0
  6
BYLAYER
 10
15.0
 20
55.0
 30
0.0
 11
10.0
 21
55.0
 31
0.0
  0
LINE
  5
B6
100
AcDbEntity
100
AcDbLine
  8
frame
 62
256
370
-1
 48
1.0
  6
BYLAYER
 10
15.0
 20
105.0
 30
0.0
 11
10.0
 21
105.0
 31
0.0
  0
LINE
  5
B7
100
AcDbEntity
100
AcDbLine
  8
frame
 62
256
370
-1
 48
1.0
  6
BYLAYER
 10
15.0
 20
155.0
 30
0.0
 11
10.0
 21
155.0
 31
0.0
  0
LINE
  5
B8
100
AcDbEntity
100
AcDbLine
  8
frame
 62
256
370
-1
 48
1.0
  6
BYLAYER
 10
584.0
 20
105.0
 30
0.0
 11
579.0
 21
105.0
 31
0.0
  0
LINE
  5
B9
100
AcDbEntity
100
AcDbLine
  8
frame
 62
256
370
-1
 48
1.0
  6
BYLAYER
 10
584.0
 20
55.0
 30
0.0
 11
579.0
 21
55.0
 31
0.0
  0
LINE
  5
BA
100
AcDbEntity
100
AcDbLine
  8
frame
 62
256
370
-1
 48
1.0
  6
BYLAYER
 10
584.0
 20
155.0
 30
0.0
 11
579.0
 21
155.0
 31
0.0
  0
LINE
  5
BB
100
AcDbEntity
100
AcDbLine
  8
frame
 62
256
370
-1
 48
1.0
  6
BYLAYER
 10
15.0
 20
205.0
 30
0.0
 11
10.0
 21
205.0
 31
0.0
  0
LINE
  5
BC
100
AcDbEntity
100
AcDbLine
  8
frame
 62
256
370
-1
 48
1.0
  6
BYLAYER
 10
584.0
 20
205.0
 30
0.0
 11
579.0
 21
205.0
 31
0.0
  0
LINE
  5
BD
100
AcDbEntity
100
AcDbLine
  8
frame
 62
256
370
-1
 48
1.0
  6
BYLAYER
 10
15.0
 20
255.0
 30
0.0
 11
10.0
 21
255.0
 31
0.0
  0
LINE
  5
BE
100
AcDbEntity
100
AcDbLine
  8
frame
 62
256
370
-1
 48
1.0
  6
BYLAYER
 10
584.0
 20
255.0
 30
0.0
 11
579.0
 21
255.0
 31
0.0
  0
LINE
  5
BF
100
AcDbEntity
100
AcDbLine
  8
frame
 62
256
370
-1
 48
1.0
  6
BYLAYER
 10
15.0
 20
305.0
 30
0.0
 11
10.0
 21
305.0
 31
0.0
  0
LINE
  5
C0
100
AcDbEntity
100
AcDbLine
  8
frame
 62
256
370
-1
 48
1.0
  6
BYLAYER
 10
584.0
 20
305.0
 30
0.0
 11
579.0
 21
305.0
 31
0.0
  0
LINE
  5
C1
100
AcDbEntity
100
AcDbLine
  8
frame
 62
256
370
-1
 48
1.0
  6
BYLAYER
 10
15.0
 20
355.0
 30
0.0
 11
10.0
 21
355.0
 31
0.0
  0
LINE
  5
C2
100
AcDbEntity
100
AcDbLine
  8
frame
 62
256
370
-1
 48
1.0
  6
BYLAYER
 10
584.0
 20
355.0
 30
0.0
 11
579.0
 21
355.0
 31
0.0
  0
MTEXT
  5
C3
100
AcDbEntity
100
AcDbMText
  8
frame
 62
256
370
-1
 48
1.0
  6
BYLAYER
 10
12.5
 20
380.0
 30
0.0
 40
3.0
 41
0.0
 71
5
 72
1
  1
A
  7
textstyle0
 50
0.0
 73
2
 44
1.0
  0
MTEXT
  5
C4
100
AcDbEntity
100
AcDbMText
  8
frame
 62
256
370
-1
 48
1.0
  6
BYLAYER
 10
581.5
 20
379.9999999999999432
 30
0.0
 40
3.0
 41
0.0
 71
5
 72
1
  1
A
  7
textstyle1
 50
0.0
 73
2
 44
1.0
  0
MTEXT
  5
C5
100
AcDbEntity
100
AcDbMText
  8
frame
 62
256
370
-1
 48
1.0
  6
BYLAYER
 10
12.4999999999999947
 20
331.0
 30
0.0
 40
3.0
 41
0.0
 71
5
 72
1
  1
B
  7
textstyle2
 50
0.0
 73
2
 44
1.0
  0
MTEXT
  5
C6
100
AcDbEntity
100
AcDbMText
  8
frame
 62
256
370
-1
 48
1.0
  6
BYLAYER
 10
581.5
 20
331.0
 30
0.0
 40
3.0
 41
0.0
 71
5
 72
1
  1
B
  7
textstyle3
 50
0.0
 73
2
 44
1.0
  0
MTEXT
  5
C7
100
AcDbEntity
100
AcDbMText
  8
frame
 62
256
370
-1
 48
1.0
  6
BYLAYER
 10
12.5
 20
281.0
 30
0.0
 40
3.0
 41
0.0
 71
5
 72
1
  1
C
  7
textstyle4
 50
0.0
 73
2
 44
1.0
  0
MTEXT
  5
C8
100
AcDbEntity
100
AcDbMText
  8
frame
 62
256
370
-1
 48
1.0
  6
BYLAYER
 10
581.5
 20
281.0
 30
0.0
 40
3.0
 41
0.0
 71
5
 72
1
  1
C
  7
textstyle5
 50
0.0
 73
2
 44
1.0
  0
MTEXT
  5
C9
100
AcDbEntity
100
AcDbMText
  8
frame
 62
256
370
-1
 48
1.0
  6
BYLAYER
 10
12.4999999999999964
 20
231.0
 30
0.0
 40
3.0
 41
0.0
 71
5
 72
1
  1
D
  7
textstyle6
 50
0.0
 73
2
 44
1.0
  0
MTEXT
  5
CA
100
AcDbEntity
100
AcDbMText
  8
frame
 62
256
370
-1
 48
1.0
  6
BYLAYER
 10
581.5
 20
230.9999999999999716
 30
0.0
 40
3.0
 41
0.0
 71
5
 72
1
  1
D
  7
textstyle7
 50
0.0
 73
2
 44
1.0
  0
MTEXT
  5
CB
100
AcDbEntity
100
AcDbMText
  8
frame
 62
256
370
-1
 48
1.0
  6
BYLAYER
 10
12.5000000000000338
 20
81.0
 30
0.0
 40
3.0
 41
0.0
 71
5
 72
1
  1
G
  7
textstyle8
 50
0.0
 73
2
 44
1.0
  0
MTEXT
  5
CC
100
AcDbEntity
100
AcDbMText
  8
frame
 62
256
370
-1
 48
1.0
  6
BYLAYER
 10
12.5000000000000231
 20
131.0
 30
0.0
 40
3.0
 41
0.0
 71
5
 72
1
  1
F
  7
textstyle9
 50
0.0
 73
2
 44
1.0
  0
MTEXT
  5
CD
100
AcDbEntity
100
AcDbMText
  8
frame
 62
256
370
-1
 48
1.0
  6
BYLAYER
 10
12.5000000000000053
 20
181.0
 30
0.0
 40
3.0
 41
0.0
 71
5
 72
1
  1
E
  7
textstyle10
 50
0.0
 73
2
 44
1.0
  0
MTEXT
  5
CE
100
AcDbEntity
100
AcDbMText
  8
frame
 62
256
370
-1
 48
1.0
  6
BYLAYER
 10
581.5
 20
131.0
 30
0.0
 40
3.0
 41
0.0
 71
5
 72
1
  1
F
  7
textstyle11
 50
0.0
 73
2
 44
1.0
  0
MTEXT
  5
CF
100
AcDbEntity
100
AcDbMText
  8
frame
 62
256
370
-1
 48
1.0
  6
BYLAYER
 10
581.5
 20
181.0
 30
0.0
 40
3.0
 41
0.0
 71
5
 72
1
  1
E
  7
textstyle12
 50
0.0
 73
2
 44
1.0
  0
MTEXT
  5
D0
100
AcDbEntity
100
AcDbMText
  8
frame
 62
256
370
-1
 48
1.0
  6
BYLAYER
 10
581.5
 20
81.0
 30
0.0
 40
3.0
 41
0.0
 71
5
 72
1
  1
G
  7
textstyle13
 50
0.0
 73
2
 44
1.0
  0
MTEXT
  5
D1
100
AcDbEntity
100
AcDbMText
  8
frame
 62
256
370
-1
 48
1.0
  6
BYLAYER
 10
581.5
 20
31.0
 30
0.0
 40
3.0
 41
0.0
 71
5
 72
1
  1
H
  7
textstyle14
 50
0.0
 73
2
 44
1.0
  0
MTEXT
  5
D2
100
AcDbEntity
100
AcDbMText
  8
frame
 62
256
370
-1
 48
1.0
  6
BYLAYER
 10
12.5000000000000373
 20
31.0
 30
0.0
 40
3.0
 41
0.0
 71
5
 72
1
  1
H
  7
textstyle15
 50
0.0
 73
2
 44
1.0
  0
MTEXT
  5
D3
100
AcDbEntity
100
AcDbMText
  8
frame
 62
256
370
-1
 48
1.0
  6
BYLAYER
 10
39.9999999999999645
 20
12.5
 30
0.0
 40
3.0
 41
0.0
 71
5
 72
1
  1
1
  7
textstyle16
 50
0.0
 73
2
 44
1.0
  0
MTEXT
  5
D4
100
AcDbEntity
100
AcDbMText
  8
frame
 62
256
370
-1
 48
1.0
  6
BYLAYER
 10
39.9999999999999645
 20
407.5
 30
0.0
 40
3.0
 41
0.0
 71
5
 72
1
  1
1
  7
textstyle17
 50
0.0
 73
2
 44
1.0
  0
MTEXT
  5
D5
100
AcDbEntity
100
AcDbMText
  8
frame
 62
256
370
-1
 48
1.0
  6
BYLAYER
 10
89.9999999999999574
 20
12.5000000000000568
 30
0.0
 40
3.0
 41
0.0
 71
5
 72
1
  1
2
  7
textstyle18
 50
0.0
 73
2
 44
1.0
  0
MTEXT
  5
D6
100
AcDbEntity
100
AcDbMText
  8
frame
 62
256
370
-1
 48
1.0
  6
BYLAYER
 10
89.9999999999999574
 20
407.5000000000000568
 30
0.0
 40
3.0
 41
0.0
 71
5
 72
1
  1
2
  7
textstyle19
 50
0.0
 73
2
 44
1.0
  0
MTEXT
  5
D7
100
AcDbEntity
100
AcDbMText
  8
frame
 62
256
370
-1
 48
1.0
  6
BYLAYER
 10
140.0
 20
12.5
 30
0.0
 40
3.0
 41
0.0
 71
5
 72
1
  1
3
  7
textstyle20
 50
0.0
 73
2
 44
1.0
  0
MTEXT
  5
D8
100
AcDbEntity
100
AcDbMText
  8
frame
 62
256
370
-1
 48
1.0
  6
BYLAYER
 10
140.0
 20
407.5
 30
0.0
 40
3.0
 41
0.0
 71
5
 72
1
  1
3
  7
textstyle21
 50
0.0
 73
2
 44
1.0
  0
MTEXT
  5
D9
100
AcDbEntity
100
AcDbMText
  8
frame
 62
256
370
-1
 48
1.0
  6
BYLAYER
 10
190.0
 20
12.4999999999999432
 30
0.0
 40
3.0
 41
0.0
 71
5
 72
1
  1
4
  7
textstyle22
 50
0.0
 73
2
 44
1.0
  0
MTEXT
  5
DA
100
AcDbEntity
100
AcDbMText
  8
frame
 62
256
370
-1
 48
1.0
  6
BYLAYER
 10
190.0
 20
407.4999999999999432
 30
0.0
 40
3.0
 41
0.0
 71
5
 72
1
  1
4
  7
textstyle23
 50
0.0
 73
2
 44
1.0
  0
MTEXT
  5
DB
100
AcDbEntity
100
AcDbMText
  8
frame
 62
256
370
-1
 48
1.0
  6
BYLAYER
 10
239.9999999999999716
 20
12.5
 30
0.0
 40
3.0
 41
0.0
 71
5
 72
1
  1
5
  7
textstyle24
 50
0.0
 73
2
 44
1.0
  0
MTEXT
  5
DC
100
AcDbEntity
100
AcDbMText
  8
frame
 62
256
370
-1
 48
1.0
  6
BYLAYER
 10
239.9999999999999716
 20
407.5
 30
0.0
 40
3.0
 41
0.0
 71
5
 72
1
  1
5
  7
textstyle25
 50
0.0
 73
2
 44
1.0
  0
MTEXT
  5
DD
100
AcDbEntity
100
AcDbMText
  8
frame
 62
256
370
-1
 48
1.0
  6
BYLAYER
 10
290.0
 20
12.4999999999999432
 30
0.0
 40
3.0
 41
0.0
 71
5
 72
1
  1
6
  7
textstyle26
 50
0.0
 73
2
 44
1.0
  0
MTEXT
  5
DE
100
AcDbEntity
100
AcDbMText
  8
frame
 62
256
370
-1
 48
1.0
  6
BYLAYER
 10
290.0
 20
407.4999999999999432
 30
0.0
 40
3.0
 41
0.0
 71
5
 72
1
  1
6
  7
textstyle27
 50
0.0
 73
2
 44
1.0
  0
MTEXT
  5
DF
100
AcDbEntity
100
AcDbMText
  8
frame
 62
256
370
-1
 48
1.0
  6
BYLAYER
 10
340.0
 20
12.5
 30
0.0
 40
3.0
 41
0.0
 71
5
 72
1
  1
7
  7
textstyle28
 50
0.0
 73
2
 44
1.0
  0
MTEXT
  5
E0
100
AcDbEntity
100
AcDbMText
  8
frame
 62
256
370
-1
 48
1.0
  6
BYLAYER
 10
340.0
 20
407.5
 30
0.0
 40
3.0
 41
0.0
 71
5
 72
1
  1
7
  7
textstyle29
 50
0.0
 73
2
 44
1.0
  0
MTEXT
  5
E1
100
AcDbEntity
100
AcDbMText
  8
frame
 62
256
370
-1
 48
1.0
  6
BYLAYER
 10
390.0
 20
12.5000000000000568
 30
0.0
 40
3.0
 41
0.0
 71
5
 72
1
  1
8
  7
textstyle30
 50
0.0
 73
2
 44
1.0
  0
MTEXT
  5
E2
100
AcDbEntity
100
AcDbMText
  8
frame
 62
256
370
-1
 48
1.0
  6
BYLAYER
 10
390.0
 20
407.5000000000000568
 30
0.0
 40
3.0
 41
0.0
 71
5
 72
1
  1
8
  7
textstyle31
 50
0.0
 73
2
 44
1.0
  0
MTEXT
  5
E3
100
AcDbEntity
100
AcDbMText
  8
frame
 62
256
370
-1
 48
1.0
  6
BYLAYER
 10
540.0
 20
12.4999999999999432
 30
0.0
 40
3.0
 41
0.0
 71
5
 72
1
  1
11
  7
textstyle32
 50
0.0
 73
2
 44
1.0
  0
MTEXT
  5
E4
100
AcDbEntity
100
AcDbMText
  8
frame
 62
256
370
-1
 48
1.0
  6
BYLAYER
 10
572.0
 20
12.4999999999998863
 30
0.0
 40
3.0
 41
0.0
 71
5
 72
1
  1
12
  7
textstyle33
 50
0.0
 73
2
 44
1.0
  0
MTEXT
  5
E5
100
AcDbEntity
100
AcDbMText
  8
frame
 62
256
370
-1
 48
1.0
  6
BYLAYER
 10
440.0000000000000568
 20
12.5
 30
0.0
 40
3.0
 41
0.0
 71
5
 72
1
  1
9
  7
textstyle34
 50
0.0
 73
2
 44
1.0
  0
MTEXT
  5
E6
100
AcDbEntity
100
AcDbMText
  8
frame
 62
256
370
-1
 48
1.0
  6
BYLAYER
 10
490.0000000000000568
 20
12.4999999999998863
 30
0.0
 40
3.0
 41
0.0
 71
5
 72
1
  1
10
  7
textstyle35
 50
0.0
 73
2
 44
1.0
  0
MTEXT
  5
E7
100
AcDbEntity
100
AcDbMText
  8
frame
 62
256
370
-1
 48
1.0
  6
BYLAYER
 10
572.0
 20
407.4999999999999432
 30
0.0
 40
3.0
 41
0.0
 71
5
 72
1
  1
12
  7
textstyle36
 50
0.0
 73
2
 44
1.0
  0
MTEXT
  5
E8
100
AcDbEntity
100
AcDbMText
  8
frame
 62
256
370
-1
 48
1.0
  6
BYLAYER
 10
540.0
 20
407.4999999999998863
 30
0.0
 40
3.0
 41
0.0
 71
5
 72
1
  1
11
  7
textstyle37
 50
0.0
 73
2
 44
1.0
  0
MTEXT
  5
E9
100
AcDbEntity
100
AcDbMText
  8
frame
 62
256
370
-1
 48
1.0
  6
BYLAYER
 10
490.0000000000000568
 20
407.5
 30
0.0
 40
3.0
 41
0.0
 71
5
 72
1
  1
10
  7
textstyle38
 50
0.0
 73
2
 44
1.0
  0
MTEXT
  5
EA
100
AcDbEntity
100
AcDbMText
  8
frame
 62
256
370
-1
 48
1.0
  6
BYLAYER
 10
440.0000000000000568
 20
407.5000000000001137
 30
0.0
 40
3.0
 41
0.0
 71
5
 72
1
  1
9
  7
textstyle39
 50
0.0
 73
2
 44
1.0
  0
LINE
  5
EB
100
AcDbEntity
100
AcDbLine
  8
frame
 62
256
370
-1
 48
1.0
  6
BYLAYER
 10
434.0
 20
15.0
 30
0.0
 11
434.0
 21
25.0
 31
0.0
  0
LINE
  5
EC
100
AcDbEntity
100
AcDbLine
  8
frame
 62
256
370
-1
 48
1.0
  6
BYLAYER
 10
434.0
 20
25.0
 30
0.0
 11
579.0
 21
25.0
 31
0.0
  0
LINE
  5
ED
100
AcDbEntity
100
AcDbLine
  8
frame
 62
256
370
-1
 48
1.0
  6
BYLAYER
 10
554.0
 20
15.0
 30
0.0
 11
554.0
 21
25.0
 31
0.0
  0
LINE
  5
EE
100
AcDbEntity
100
AcDbLine
  8
frame
 62
256
370
-1
 48
1.0
  6
BYLAYER
 10
434.0
 20
25.0
 30
0.0
 11
434.0
 21
40.0
 31
0.0
  0
LINE
  5
EF
100
AcDbEntity
100
AcDbLine
  8
frame
 62
256
370
-1
 48
1.0
  6
BYLAYER
 10
434.0
 20
40.0
 30
0.0
 11
579.0
 21
40.0
 31
0.0
  0
MTEXT
  5
F0
100
AcDbEntity
100
AcDbMText
  8
frame
 62
256
370
-1
 48
1.0
  6
BYLAYER
 10
437.0
 20
19.9999999999997335
 30
0.0
 40
3.0
 41
0.0
 71
4
 72
1
  1
$Id: panel-mechanical.dxf 7522 2020-02-19 03:01:50Z mskala $
  7
textstyle40
 50
0.0
 73
2
 44
1.0
  0
MTEXT
  5
F1
100
AcDbEntity
100
AcDbMText
  8
frame
 62
256
370
-1
 48
1.0
  6
BYLAYER
 10
437.0
 20
32.5000000000001208
 30
0.0
 40
5.0
 41
0.0
 71
4
 72
1
  1
MSK 013 Middle Path VCO panel mechanical
  7
textstyle41
 50
0.0
 73
2
 44
1.0
  0
MTEXT
  5
F2
100
AcDbEntity
100
AcDbMText
  8
frame
 62
256
370
-1
 48
1.0
  6
BYLAYER
 10
566.5
 20
19.9999999999995914
 30
0.0
 40
3.0
 41
0.0
 71
5
 72
1
  1
1/1
  7
textstyle42
 50
0.0
 73
2
 44
1.0
  0
LINE
  5
F3
100
AcDbEntity
100
AcDbLine
  8
paper outline
 62
256
370
-1
 48
1.0
  6
BYLAYER
 10
0.0
 20
0.0
 30
0.0
 11
594.0
 21
0.0
 31
0.0
  0
LINE
  5
F4
100
AcDbEntity
100
AcDbLine
  8
paper outline
 62
256
370
-1
 48
1.0
  6
BYLAYER
 10
594.0
 20
0.0
 30
0.0
 11
594.0
 21
420.0
 31
0.0
  0
LINE
  5
F5
100
AcDbEntity
100
AcDbLine
  8
paper outline
 62
256
370
-1
 48
1.0
  6
BYLAYER
 10
594.0
 20
420.0
 30
0.0
 11
0.0
 21
420.0
 31
0.0
  0
LINE
  5
F6
100
AcDbEntity
100
AcDbLine
  8
paper outline
 62
256
370
-1
 48
1.0
  6
BYLAYER
 10
0.0
 20
420.0
 30
0.0
 11
0.0
 21
0.0
 31
0.0
  0
LINE
  5
F7
100
AcDbEntity
100
AcDbLine
  8
outlines
 62
256
370
-1
 48
1.0
  6
BYLAYER
 10
150.5
 20
150.0
 30
0.0
 11
271.1000000000000227
 21
150.0
 31
0.0
  0
LINE
  5
F8
100
AcDbEntity
100
AcDbLine
  8
outlines
 62
256
370
-1
 48
1.0
  6
BYLAYER
 10
271.6000000000000227
 20
150.5
 30
0.0
 11
271.6000000000000227
 21
278.0
 31
0.0
  0
LINE
  5
F9
100
AcDbEntity
100
AcDbLine
  8
outlines
 62
256
370
-1
 48
1.0
  6
BYLAYER
 10
271.1000000000000227
 20
278.5
 30
0.0
 11
150.5
 21
278.5
 31
0.0
  0
LINE
  5
FA
100
AcDbEntity
100
AcDbLine
  8
outlines
 62
256
370
-1
 48
1.0
  6
BYLAYER
 10
150.0
 20
278.0
 30
0.0
 11
150.0
 21
150.5
 31
0.0
  0
LINE
  5
FB
100
AcDbEntity
100
AcDbLine
  8
centre lines
 62
256
370
-1
 48
1.0
  6
BYLAYER
 10
161.2700000000000102
 20
223.6700000000000159
 30
0.0
 11
161.2700000000000102
 21
150.0
 31
0.0
  0
LINE
  5
FC
100
AcDbEntity
100
AcDbLine
  8
centre lines
 62
256
370
-1
 48
1.0
  6
BYLAYER
 10
177.7800000000000011
 20
209.6999999999999886
 30
0.0
 11
177.7800000000000011
 21
150.0
 31
0.0
  0
LINE
  5
FD
100
AcDbEntity
100
AcDbLine
  8
centre lines
 62
256
370
-1
 48
1.0
  6
BYLAYER
 10
194.289999999999992
 20
195.7299999999999898
 30
0.0
 11
194.289999999999992
 21
150.0
 31
0.0
  0
LINE
  5
FE
100
AcDbEntity
100
AcDbLine
  8
centre lines
 62
256
370
-1
 48
1.0
  6
BYLAYER
 10
210.8000000000000114
 20
247.8250000000000171
 30
0.0
 11
210.8000000000000114
 21
149.9999999999999716
 31
0.0
  0
LINE
  5
FF
100
AcDbEntity
100
AcDbLine
  8
centre lines
 62
256
370
-1
 48
1.0
  6
BYLAYER
 10
227.3100000000000023
 20
195.7300000000002456
 30
0.0
 11
227.3100000000000023
 21
149.9999999999999716
 31
0.0
  0
LINE
  5
100
100
AcDbEntity
100
AcDbLine
  8
centre lines
 62
256
370
-1
 48
1.0
  6
BYLAYER
 10
243.8199999999999932
 20
209.6999999999999886
 30
0.0
 11
243.8199999999999932
 21
149.9999999999999716
 31
0.0
  0
LINE
  5
101
100
AcDbEntity
100
AcDbLine
  8
centre lines
 62
256
370
-1
 48
1.0
  6
BYLAYER
 10
260.3299999999999841
 20
223.6699999999999875
 30
0.0
 11
260.3299999999999841
 21
149.9999999999999716
 31
0.0
  0
LINE
  5
102
100
AcDbEntity
100
AcDbLine
  8
centre lines
 62
256
370
-1
 48
1.0
  6
BYLAYER
 10
157.5
 20
282.1000000000000227
 30
0.0
 11
157.5
 21
150.0
 31
0.0
  0
LINE
  5
103
100
AcDbEntity
100
AcDbLine
  8
centre lines
 62
256
370
-1
 48
1.0
  6
BYLAYER
 10
264.1800000000000068
 20
282.1000000000000227
 30
0.0
 11
264.1800000000000068
 21
149.9999999999999716
 31
0.0
  0
LINE
  5
104
100
AcDbEntity
100
AcDbLine
  8
centre lines
 62
256
370
-1
 48
1.0
  6
BYLAYER
 10
165.0800000000000125
 20
278.5
 30
0.0
 11
165.0800000000000125
 21
245.3300000000000125
 31
0.0
  0
LINE
  5
105
100
AcDbEntity
100
AcDbLine
  8
centre lines
 62
256
370
-1
 48
1.0
  6
BYLAYER
 10
171.4300000000000068
 20
278.5
 30
0.0
 11
171.4300000000000068
 21
219.9299999999998931
 31
0.0
  0
LINE
  5
106
100
AcDbEntity
100
AcDbLine
  8
centre lines
 62
256
370
-1
 48
1.0
  6
BYLAYER
 10
186.6700000000000159
 20
278.5
 30
0.0
 11
186.6700000000000159
 21
207.2300000000002456
 31
0.0
  0
LINE
  5
107
100
AcDbEntity
100
AcDbLine
  8
centre lines
 62
256
370
-1
 48
1.0
  6
BYLAYER
 10
193.0200000000000102
 20
278.5
 30
0.0
 11
193.0200000000000102
 21
240.2500000000000568
 31
0.0
  0
LINE
  5
108
100
AcDbEntity
100
AcDbLine
  8
centre lines
 62
256
370
-1
 48
1.0
  6
BYLAYER
 10
199.3700000000000045
 20
278.5
 30
0.0
 11
199.3700000000000045
 21
191.9899999999998386
 31
0.0
  0
LINE
  5
109
100
AcDbEntity
100
AcDbLine
  8
centre lines
 62
256
370
-1
 48
1.0
  6
BYLAYER
 10
222.2300000000000182
 20
278.5
 30
0.0
 11
222.2300000000000182
 21
191.9900000000002933
 31
0.0
  0
LINE
  5
10A
100
AcDbEntity
100
AcDbLine
  8
centre lines
 62
256
370
-1
 48
1.0
  6
BYLAYER
 10
228.5799999999999841
 20
278.5
 30
0.0
 11
228.5799999999999841
 21
240.2500000000000568
 31
0.0
  0
LINE
  5
10B
100
AcDbEntity
100
AcDbLine
  8
centre lines
 62
256
370
-1
 48
1.0
  6
BYLAYER
 10
234.9300000000000068
 20
278.5
 30
0.0
 11
234.9300000000000068
 21
207.2299999999994213
 31
0.0
  0
LINE
  5
10C
100
AcDbEntity
100
AcDbLine
  8
centre lines
 62
256
370
-1
 48
1.0
  6
BYLAYER
 10
250.1700000000000159
 20
278.5
 30
0.0
 11
250.1700000000000159
 21
219.9300000000000637
 31
0.0
  0
LINE
  5
10D
100
AcDbEntity
100
AcDbLine
  8
centre lines
 62
256
370
-1
 48
1.0
  6
BYLAYER
 10
256.5199999999999818
 20
278.5
 30
0.0
 11
256.5199999999999818
 21
245.3300000000000125
 31
0.0
  0
LINE
  5
10E
100
AcDbEntity
100
AcDbLine
  8
centre lines
 62
256
370
-1
 48
1.0
  6
BYLAYER
 10
150.0
 20
173.6100000000000136
 30
0.0
 11
268.4800000000001887
 21
173.6100000000000136
 31
0.0
  0
LINE
  5
10F
100
AcDbEntity
100
AcDbLine
  8
centre lines
 62
256
370
-1
 48
1.0
  6
BYLAYER
 10
150.0
 20
187.5799999999999841
 30
0.0
 11
268.4800000000001887
 21
187.5799999999999841
 31
0.0
  0
LINE
  5
110
100
AcDbEntity
100
AcDbLine
  8
centre lines
 62
256
370
-1
 48
1.0
  6
BYLAYER
 10
150.0
 20
201.5500000000000114
 30
0.0
 11
268.4800000000001887
 21
201.5500000000000114
 31
0.0
  0
LINE
  5
111
100
AcDbEntity
100
AcDbLine
  8
centre lines
 62
256
370
-1
 48
1.0
  6
BYLAYER
 10
150.0
 20
215.5199999999999818
 30
0.0
 11
268.4800000000001887
 21
215.5199999999999818
 31
0.0
  0
LINE
  5
112
100
AcDbEntity
100
AcDbLine
  8
centre lines
 62
256
370
-1
 48
1.0
  6
BYLAYER
 10
156.4300000000000352
 20
257.4300000000000068
 30
0.0
 11
271.6000000000000227
 21
257.4300000000000068
 31
0.0
  0
LINE
  5
113
100
AcDbEntity
100
AcDbLine
  8
centre lines
 62
256
370
-1
 48
1.0
  6
BYLAYER
 10
162.7800000000000011
 20
232.0300000000000011
 30
0.0
 11
271.6000000000000227
 21
232.0300000000000011
 31
0.0
  0
LINE
  5
114
100
AcDbEntity
100
AcDbLine
  8
centre lines
 62
256
370
-1
 48
1.0
  6
BYLAYER
 10
178.0200000000000387
 20
219.3299999999999841
 30
0.0
 11
271.6000000000000227
 21
219.3299999999999841
 31
0.0
  0
LINE
  5
115
100
AcDbEntity
100
AcDbLine
  8
centre lines
 62
256
370
-1
 48
1.0
  6
BYLAYER
 10
184.3700000000000045
 20
252.3499999999999943
 30
0.0
 11
271.6000000000000227
 21
252.3499999999999943
 31
0.0
  0
LINE
  5
116
100
AcDbEntity
100
AcDbLine
  8
centre lines
 62
256
370
-1
 48
1.0
  6
BYLAYER
 10
195.719999999999942
 20
204.0900000000000034
 30
0.0
 11
271.6000000000000227
 21
204.0900000000000034
 31
0.0
  0
LINE
  5
117
100
AcDbEntity
100
AcDbLine
  8
centre lines
 62
256
370
-1
 48
1.0
  6
BYLAYER
 10
202.625
 20
239.6500000000000057
 30
0.0
 11
271.6000000000000227
 21
239.6500000000000057
 31
0.0
  0
LINE
  5
118
100
AcDbEntity
100
AcDbLine
  8
centre lines
 62
256
370
-1
 48
1.0
  6
BYLAYER
 10
150.0
 20
164.9699999999999989
 30
0.0
 11
271.7600000000001046
 21
164.9699999999999989
 31
0.0
  0
LINE
  5
119
100
AcDbEntity
100
AcDbLine
  8
centre lines
 62
256
370
-1
 48
1.0
  6
BYLAYER
 10
150.0
 20
263.5299999999999727
 30
0.0
 11
271.7600000000001046
 21
263.5299999999999727
 31
0.0
  0
LINE
  5
11A
100
AcDbEntity
100
AcDbLine
  8
centre lines
 62
256
370
-1
 48
1.0
  6
BYLAYER
 10
150.0
 20
153.0
 30
0.0
 11
270.779999999999518
 21
153.0
 31
0.0
  0
LINE
  5
11B
100
AcDbEntity
100
AcDbLine
  8
centre lines
 62
256
370
-1
 48
1.0
  6
BYLAYER
 10
150.0
 20
275.5
 30
0.0
 11
270.779999999999518
 21
275.5
 31
0.0
  0
CIRCLE
  5
11C
100
AcDbEntity
100
AcDbCircle
  8
holes
 62
256
370
-1
 48
1.0
  6
BYLAYER
 10
157.5
 20
275.5
 30
0.0
 40
1.5999999999999943
  0
CIRCLE
  5
11D
100
AcDbEntity
100
AcDbCircle
  8
holes
 62
256
370
-1
 48
1.0
  6
BYLAYER
 10
264.1800000000000637
 20
275.5
 30
0.0
 40
1.6000000000000227
  0
CIRCLE
  5
11E
100
AcDbEntity
100
AcDbCircle
  8
holes
 62
256
370
-1
 48
1.0
  6
BYLAYER
 10
157.5
 20
153.0
 30
0.0
 40
1.5999999999999943
  0
CIRCLE
  5
11F
100
AcDbEntity
100
AcDbCircle
  8
holes
 62
256
370
-1
 48
1.0
  6
BYLAYER
 10
264.1800000000000637
 20
153.0
 30
0.0
 40
1.6000000000000227
  0
CIRCLE
  5
120
100
AcDbEntity
100
AcDbCircle
  8
holes
 62
256
370
-1
 48
1.0
  6
BYLAYER
 10
161.2700000000000102
 20
173.6100000000000136
 30
0.0
 40
3.1500000000000057
  0
CIRCLE
  5
121
100
AcDbEntity
100
AcDbCircle
  8
holes
 62
256
370
-1
 48
1.0
  6
BYLAYER
 10
161.2700000000000102
 20
187.5800000000000125
 30
0.0
 40
3.1500000000000057
  0
CIRCLE
  5
122
100
AcDbEntity
100
AcDbCircle
  8
holes
 62
256
370
-1
 48
1.0
  6
BYLAYER
 10
161.2700000000000102
 20
201.5500000000000398
 30
0.0
 40
3.1500000000000057
  0
CIRCLE
  5
123
100
AcDbEntity
100
AcDbCircle
  8
holes
 62
256
370
-1
 48
1.0
  6
BYLAYER
 10
161.2700000000000102
 20
215.5199999999999818
 30
0.0
 40
3.1500000000000057
  0
MTEXT
  5
124
100
AcDbEntity
100
AcDbMText
  8
notes
 62
256
370
-1
 48
1.0
  6
BYLAYER
 10
185.0
 20
230.0
 30
0.0
 40
1.0
 41
0.0
 71
5
 72
1
  1
\H2.5;NOTE 5
  7
textstyle51
 50
0.0
 73
2
 44
1.0
  0
MTEXT
  5
125
100
AcDbEntity
100
AcDbMText
  8
notes
 62
256
370
-1
 48
1.0
  6
BYLAYER
 10
227.0000000000000284
 20
230.0
 30
0.0
 40
1.0
 41
0.0
 71
5
 72
1
  1
\H2.5;NOTE 5
  7
textstyle50
 50
0.0
 73
2
 44
1.0
  0
MTEXT
  5
126
100
AcDbEntity
100
AcDbMText
  8
notes
 62
256
370
-1
 48
1.0
  6
BYLAYER
 10
243.0000000000000284
 20
249.0
 30
0.0
 40
1.0
 41
0.0
 71
5
 72
1
  1
\H2.5;NOTE 4
  7
textstyle49
 50
0.0
 73
2
 44
1.0
  0
MTEXT
  5
127
100
AcDbEntity
100
AcDbMText
  8
notes
 62
256
370
-1
 48
1.0
  6
BYLAYER
 10
180.0000000000000284
 20
249.0
 30
0.0
 40
1.0
 41
0.0
 71
5
 72
1
  1
\H2.5;NOTE 4
  7
textstyle48
 50
0.0
 73
2
 44
1.0
  0
MTEXT
  5
128
100
AcDbEntity
100
AcDbMText
  8
notes
 62
256
370
-1
 48
1.0
  6
BYLAYER
 10
255.0000000000000284
 20
159.0
 30
0.0
 40
1.0
 41
0.0
 71
5
 72
1
  1
\H2.5;NOTE 3
  7
textstyle47
 50
0.0
 73
2
 44
1.0
  0
MTEXT
  5
129
100
AcDbEntity
100
AcDbMText
  8
notes
 62
256
370
-1
 48
1.0
  6
BYLAYER
 10
166.0000000000000284
 20
162.0
 30
0.0
 40
1.0
 41
0.0
 71
5
 72
1
  1
\H2.5;NOTE 3
  7
textstyle46
 50
0.0
 73
2
 44
1.0
  0
MTEXT
  5
12A
100
AcDbEntity
100
AcDbMText
  8
notes
 62
256
370
-1
 48
1.0
  6
BYLAYER
 10
255.0000000000000284
 20
269.0
 30
0.0
 40
1.0
 41
0.0
 71
5
 72
1
  1
\H2.5;NOTE 3
  7
textstyle45
 50
0.0
 73
2
 44
1.0
  0
MTEXT
  5
12B
100
AcDbEntity
100
AcDbMText
  8
notes
 62
256
370
-1
 48
1.0
  6
BYLAYER
 10
167.0000000000000284
 20
272.0
 30
0.0
 40
1.0
 41
0.0
 71
5
 72
1
  1
\H2.5;NOTE 3
  7
textstyle44
 50
0.0
 73
2
 44
1.0
  0
CIRCLE
  5
12C
100
AcDbEntity
100
AcDbCircle
  8
holes
 62
256
370
-1
 48
1.0
  6
BYLAYER
 10
177.7800000000000011
 20
173.6100000000000136
 30
0.0
 40
3.1500000000000057
  0
CIRCLE
  5
12D
100
AcDbEntity
100
AcDbCircle
  8
holes
 62
256
370
-1
 48
1.0
  6
BYLAYER
 10
194.289999999999992
 20
173.6100000000000136
 30
0.0
 40
3.1500000000000057
  0
CIRCLE
  5
12E
100
AcDbEntity
100
AcDbCircle
  8
holes
 62
256
370
-1
 48
1.0
  6
BYLAYER
 10
210.8000000000000114
 20
173.6100000000000421
 30
0.0
 40
3.1500000000000057
  0
CIRCLE
  5
12F
100
AcDbEntity
100
AcDbCircle
  8
holes
 62
256
370
-1
 48
1.0
  6
BYLAYER
 10
227.3100000000000023
 20
173.6100000000000421
 30
0.0
 40
3.1500000000000057
  0
CIRCLE
  5
130
100
AcDbEntity
100
AcDbCircle
  8
holes
 62
256
370
-1
 48
1.0
  6
BYLAYER
 10
243.8199999999999932
 20
173.6100000000000421
 30
0.0
 40
3.1500000000000057
  0
CIRCLE
  5
131
100
AcDbEntity
100
AcDbCircle
  8
holes
 62
256
370
-1
 48
1.0
  6
BYLAYER
 10
260.3300000000000409
 20
173.6100000000000421
 30
0.0
 40
3.1499999999999773
  0
CIRCLE
  5
132
100
AcDbEntity
100
AcDbCircle
  8
holes
 62
256
370
-1
 48
1.0
  6
BYLAYER
 10
260.3300000000000409
 20
215.5200000000000102
 30
0.0
 40
3.1499999999999773
  0
CIRCLE
  5
133
100
AcDbEntity
100
AcDbCircle
  8
holes
 62
256
370
-1
 48
1.0
  6
BYLAYER
 10
177.7800000000000011
 20
201.5500000000000398
 30
0.0
 40
3.1500000000000057
  0
CIRCLE
  5
134
100
AcDbEntity
100
AcDbCircle
  8
holes
 62
256
370
-1
 48
1.0
  6
BYLAYER
 10
243.8199999999999932
 20
201.5500000000000114
 30
0.0
 40
3.1500000000000057
  0
CIRCLE
  5
135
100
AcDbEntity
100
AcDbCircle
  8
holes
 62
256
370
-1
 48
1.0
  6
BYLAYER
 10
260.3300000000000409
 20
201.5500000000000114
 30
0.0
 40
3.1499999999999773
  0
CIRCLE
  5
136
100
AcDbEntity
100
AcDbCircle
  8
holes
 62
256
370
-1
 48
1.0
  6
BYLAYER
 10
177.7800000000000011
 20
187.5800000000000125
 30
0.0
 40
3.1500000000000057
  0
CIRCLE
  5
137
100
AcDbEntity
100
AcDbCircle
  8
holes
 62
256
370
-1
 48
1.0
  6
BYLAYER
 10
194.289999999999992
 20
187.5800000000000125
 30
0.0
 40
3.1500000000000057
  0
CIRCLE
  5
138
100
AcDbEntity
100
AcDbCircle
  8
holes
 62
256
370
-1
 48
1.0
  6
BYLAYER
 10
210.8000000000000114
 20
187.5799999999999841
 30
0.0
 40
3.1500000000000057
  0
CIRCLE
  5
139
100
AcDbEntity
100
AcDbCircle
  8
holes
 62
256
370
-1
 48
1.0
  6
BYLAYER
 10
227.3100000000000023
 20
187.5799999999999841
 30
0.0
 40
3.1500000000000057
  0
CIRCLE
  5
13A
100
AcDbEntity
100
AcDbCircle
  8
holes
 62
256
370
-1
 48
1.0
  6
BYLAYER
 10
243.8199999999999932
 20
187.5799999999999841
 30
0.0
 40
3.1500000000000057
  0
CIRCLE
  5
13B
100
AcDbEntity
100
AcDbCircle
  8
holes
 62
256
370
-1
 48
1.0
  6
BYLAYER
 10
260.3300000000000409
 20
187.5799999999999841
 30
0.0
 40
3.1499999999999773
  0
LINE
  5
13C
100
AcDbEntity
100
AcDbLine
  8
centre lines
 62
256
370
-1
 48
1.0
  6
BYLAYER
 10
156.4399999999999977
 20
270.1299999999999955
 30
0.0
 11
156.4399999999999977
 21
150.0
 31
0.0
  0
LINE
  5
13D
100
AcDbEntity
100
AcDbLine
  8
centre lines
 62
256
370
-1
 48
1.0
  6
BYLAYER
 10
265.1599999999999682
 20
270.1299999999999955
 30
0.0
 11
265.1599999999999682
 21
149.9999999999999716
 31
0.0
  0
CIRCLE
  5
13E
100
AcDbEntity
100
AcDbCircle
  8
holes
 62
256
370
-1
 48
1.0
  6
BYLAYER
 10
156.4399999999999977
 20
164.9699999999999989
 30
0.0
 40
1.5999999999999943
  0
CIRCLE
  5
13F
100
AcDbEntity
100
AcDbCircle
  8
holes
 62
256
370
-1
 48
1.0
  6
BYLAYER
 10
156.4399999999999977
 20
263.5299999999999727
 30
0.0
 40
1.5999999999999943
  0
CIRCLE
  5
140
100
AcDbEntity
100
AcDbCircle
  8
holes
 62
256
370
-1
 48
1.0
  6
BYLAYER
 10
265.1599999999999682
 20
263.5299999999999727
 30
0.0
 40
1.6000000000000227
  0
CIRCLE
  5
141
100
AcDbEntity
100
AcDbCircle
  8
holes
 62
256
370
-1
 48
1.0
  6
BYLAYER
 10
265.1599999999999682
 20
164.9699999999999989
 30
0.0
 40
1.6000000000000227
  0
CIRCLE
  5
142
100
AcDbEntity
100
AcDbCircle
  8
holes
 62
256
370
-1
 48
1.0
  6
BYLAYER
 10
256.5199999999999818
 20
257.4300000000000068
 30
0.0
 40
3.6500000000000057
  0
CIRCLE
  5
143
100
AcDbEntity
100
AcDbCircle
  8
holes
 62
256
370
-1
 48
1.0
  6
BYLAYER
 10
250.1700000000000159
 20
232.0300000000000011
 30
0.0
 40
3.6500000000000057
  0
CIRCLE
  5
144
100
AcDbEntity
100
AcDbCircle
  8
holes
 62
256
370
-1
 48
1.0
  6
BYLAYER
 10
234.9300000000000068
 20
219.3299999999999841
 30
0.0
 40
3.6500000000000057
  0
CIRCLE
  5
145
100
AcDbEntity
100
AcDbCircle
  8
holes
 62
256
370
-1
 48
1.0
  6
BYLAYER
 10
228.5800000000000125
 20
252.3499999999999943
 30
0.0
 40
3.6500000000000057
  0
CIRCLE
  5
146
100
AcDbEntity
100
AcDbCircle
  8
holes
 62
256
370
-1
 48
1.0
  6
BYLAYER
 10
222.2300000000000182
 20
204.0900000000000034
 30
0.0
 40
3.6500000000000057
  0
CIRCLE
  5
147
100
AcDbEntity
100
AcDbCircle
  8
holes
 62
256
370
-1
 48
1.0
  6
BYLAYER
 10
210.8000000000000114
 20
219.3299999999999841
 30
0.0
 40
3.6500000000000057
  0
CIRCLE
  5
148
100
AcDbEntity
100
AcDbCircle
  8
holes
 62
256
370
-1
 48
1.0
  6
BYLAYER
 10
199.370000000000033
 20
204.0900000000000034
 30
0.0
 40
3.6500000000000057
  0
CIRCLE
  5
149
100
AcDbEntity
100
AcDbCircle
  8
holes
 62
256
370
-1
 48
1.0
  6
BYLAYER
 10
193.0200000000000102
 20
252.3499999999999943
 30
0.0
 40
3.6500000000000057
  0
CIRCLE
  5
14A
100
AcDbEntity
100
AcDbCircle
  8
holes
 62
256
370
-1
 48
1.0
  6
BYLAYER
 10
186.6700000000000159
 20
219.3299999999999841
 30
0.0
 40
3.6500000000000057
  0
CIRCLE
  5
14B
100
AcDbEntity
100
AcDbCircle
  8
holes
 62
256
370
-1
 48
1.0
  6
BYLAYER
 10
171.4300000000000068
 20
232.0300000000000296
 30
0.0
 40
3.6500000000000057
  0
CIRCLE
  5
14C
100
AcDbEntity
100
AcDbCircle
  8
holes
 62
256
370
-1
 48
1.0
  6
BYLAYER
 10
165.0800000000000409
 20
257.4300000000000068
 30
0.0
 40
3.6500000000000057
  0
CIRCLE
  5
14D
100
AcDbEntity
100
AcDbCircle
  8
holes
 62
256
370
-1
 48
1.0
  6
BYLAYER
 10
256.5199999999999818
 20
251.4300000000000068
 30
0.0
 40
1.0999999999999943
  0
CIRCLE
  5
14E
100
AcDbEntity
100
AcDbCircle
  8
holes
 62
256
370
-1
 48
1.0
  6
BYLAYER
 10
250.1700000000000159
 20
226.0300000000000011
 30
0.0
 40
1.0999999999999943
  0
CIRCLE
  5
14F
100
AcDbEntity
100
AcDbCircle
  8
holes
 62
256
370
-1
 48
1.0
  6
BYLAYER
 10
234.9300000000000068
 20
213.3299999999999841
 30
0.0
 40
1.0999999999999943
  0
CIRCLE
  5
150
100
AcDbEntity
100
AcDbCircle
  8
holes
 62
256
370
-1
 48
1.0
  6
BYLAYER
 10
228.5800000000000125
 20
246.3499999999999943
 30
0.0
 40
1.0999999999999943
  0
CIRCLE
  5
151
100
AcDbEntity
100
AcDbCircle
  8
holes
 62
256
370
-1
 48
1.0
  6
BYLAYER
 10
222.2300000000000182
 20
198.0900000000000034
 30
0.0
 40
1.0999999999999943
  0
CIRCLE
  5
152
100
AcDbEntity
100
AcDbCircle
  8
holes
 62
256
370
-1
 48
1.0
  6
BYLAYER
 10
210.8000000000000114
 20
213.3299999999999841
 30
0.0
 40
1.0999999999999943
  0
CIRCLE
  5
153
100
AcDbEntity
100
AcDbCircle
  8
holes
 62
256
370
-1
 48
1.0
  6
BYLAYER
 10
199.370000000000033
 20
198.0900000000000034
 30
0.0
 40
1.0999999999999943
  0
CIRCLE
  5
154
100
AcDbEntity
100
AcDbCircle
  8
holes
 62
256
370
-1
 48
1.0
  6
BYLAYER
 10
193.0200000000000102
 20
246.3499999999999943
 30
0.0
 40
1.0999999999999943
  0
CIRCLE
  5
155
100
AcDbEntity
100
AcDbCircle
  8
holes
 62
256
370
-1
 48
1.0
  6
BYLAYER
 10
186.6700000000000159
 20
213.3299999999999841
 30
0.0
 40
1.0999999999999943
  0
CIRCLE
  5
156
100
AcDbEntity
100
AcDbCircle
  8
holes
 62
256
370
-1
 48
1.0
  6
BYLAYER
 10
171.4300000000000068
 20
226.0300000000000296
 30
0.0
 40
1.0999999999999943
  0
CIRCLE
  5
157
100
AcDbEntity
100
AcDbCircle
  8
holes
 62
256
370
-1
 48
1.0
  6
BYLAYER
 10
165.0800000000000409
 20
251.4300000000000068
 30
0.0
 40
1.0999999999999943
  0
LINE
  5
158
100
AcDbEntity
100
AcDbLine
  8
centre lines
 62
256
370
-1
 48
1.0
  6
BYLAYER
 10
193.2699999999998397
 20
198.0900000000000034
 30
0.0
 11
271.6000000000000227
 21
198.0900000000000034
 31
0.0
  0
LINE
  5
159
100
AcDbEntity
100
AcDbLine
  8
centre lines
 62
256
370
-1
 48
1.0
  6
BYLAYER
 10
180.5699999999999363
 20
213.3299999999999841
 30
0.0
 11
271.6000000000000227
 21
213.3299999999999841
 31
0.0
  0
LINE
  5
15A
100
AcDbEntity
100
AcDbLine
  8
centre lines
 62
256
370
-1
 48
1.0
  6
BYLAYER
 10
165.3300000000000125
 20
226.0300000000000296
 30
0.0
 11
271.6000000000000227
 21
226.0300000000000296
 31
0.0
  0
LINE
  5
15B
100
AcDbEntity
100
AcDbLine
  8
centre lines
 62
256
370
-1
 48
1.0
  6
BYLAYER
 10
204.6100000000000136
 20
233.5499999999999829
 30
0.0
 11
271.6000000000000227
 21
233.5499999999999829
 31
0.0
  0
LINE
  5
15C
100
AcDbEntity
100
AcDbLine
  8
centre lines
 62
256
370
-1
 48
1.0
  6
BYLAYER
 10
186.9200000000000443
 20
246.3499999999999943
 30
0.0
 11
271.6000000000000227
 21
246.3499999999999943
 31
0.0
  0
LINE
  5
15D
100
AcDbEntity
100
AcDbLine
  8
centre lines
 62
256
370
-1
 48
1.0
  6
BYLAYER
 10
158.9800000000000466
 20
251.4300000000000068
 30
0.0
 11
271.6000000000000227
 21
251.4300000000000068
 31
0.0
  0
LINE
  5
15E
100
AcDbEntity
100
AcDbLine
  8
construction lines
 62
256
370
-1
 48
1.0
  6
BYLAYER
 10
143.0
 20
278.5
 30
0.0
 11
143.0
 21
150.0
 31
0.0
  0
LINE
  5
15F
100
AcDbEntity
100
AcDbLine
  8
construction lines
 62
256
370
-1
 48
1.0
  6
BYLAYER
 10
136.0
 20
278.5
 30
0.0
 11
136.0
 21
150.0
 31
0.0
  0
LINE
  5
160
100
AcDbEntity
100
AcDbLine
  8
construction lines
 62
256
370
-1
 48
1.0
  6
BYLAYER
 10
129.0
 20
278.5
 30
0.0
 11
129.0
 21
150.0
 31
0.0
  0
LINE
  5
161
100
AcDbEntity
100
AcDbLine
  8
construction lines
 62
256
370
-1
 48
1.0
  6
BYLAYER
 10
122.0
 20
278.5
 30
0.0
 11
122.0
 21
150.0
 31
0.0
  0
LINE
  5
162
100
AcDbEntity
100
AcDbLine
  8
construction lines
 62
256
370
-1
 48
1.0
  6
BYLAYER
 10
115.0
 20
278.5
 30
0.0
 11
115.0
 21
150.0
 31
0.0
  0
LINE
  5
163
100
AcDbEntity
100
AcDbLine
  8
construction lines
 62
256
370
-1
 48
1.0
  6
BYLAYER
 10
108.0
 20
278.5
 30
0.0
 11
108.0
 21
150.0
 31
0.0
  0
LINE
  5
164
100
AcDbEntity
100
AcDbLine
  8
construction lines
 62
256
370
-1
 48
1.0
  6
BYLAYER
 10
101.0
 20
278.5
 30
0.0
 11
101.0
 21
150.0
 31
0.0
  0
LINE
  5
165
100
AcDbEntity
100
AcDbLine
  8
construction lines
 62
256
370
-1
 48
1.0
  6
BYLAYER
 10
94.0
 20
278.5
 30
0.0
 11
94.0
 21
150.0
 31
0.0
  0
LINE
  5
166
100
AcDbEntity
100
AcDbLine
  8
construction lines
 62
256
370
-1
 48
1.0
  6
BYLAYER
 10
87.0
 20
278.5
 30
0.0
 11
87.0
 21
150.0
 31
0.0
  0
LINE
  5
167
100
AcDbEntity
100
AcDbLine
  8
construction lines
 62
256
370
-1
 48
1.0
  6
BYLAYER
 10
80.0
 20
278.5
 30
0.0
 11
80.0
 21
150.0
 31
0.0
  0
LINE
  5
168
100
AcDbEntity
100
AcDbLine
  8
construction lines
 62
256
370
-1
 48
1.0
  6
BYLAYER
 10
73.0
 20
278.5
 30
0.0
 11
73.0
 21
150.0
 31
0.0
  0
LINE
  5
169
100
AcDbEntity
100
AcDbLine
  8
construction lines
 62
256
370
-1
 48
1.0
  6
BYLAYER
 10
66.0
 20
278.5
 30
0.0
 11
66.0
 21
150.0
 31
0.0
  0
LINE
  5
16A
100
AcDbEntity
100
AcDbLine
  8
construction lines
 62
256
370
-1
 48
1.0
  6
BYLAYER
 10
59.0
 20
278.5
 30
0.0
 11
59.0
 21
150.0
 31
0.0
  0
LINE
  5
16B
100
AcDbEntity
100
AcDbLine
  8
construction lines
 62
256
370
-1
 48
1.0
  6
BYLAYER
 10
278.6000000000000227
 20
150.0
 30
0.0
 11
278.6000000000000227
 21
278.5
 31
0.0
  0
LINE
  5
16C
100
AcDbEntity
100
AcDbLine
  8
construction lines
 62
256
370
-1
 48
1.0
  6
BYLAYER
 10
285.6000000000000227
 20
150.0
 30
0.0
 11
285.6000000000000227
 21
278.5
 31
0.0
  0
LINE
  5
16D
100
AcDbEntity
100
AcDbLine
  8
construction lines
 62
256
370
-1
 48
1.0
  6
BYLAYER
 10
292.6000000000000227
 20
150.0
 30
0.0
 11
292.6000000000000227
 21
278.5
 31
0.0
  0
LINE
  5
16E
100
AcDbEntity
100
AcDbLine
  8
construction lines
 62
256
370
-1
 48
1.0
  6
BYLAYER
 10
299.6000000000000227
 20
150.0
 30
0.0
 11
299.6000000000000227
 21
278.5
 31
0.0
  0
LINE
  5
16F
100
AcDbEntity
100
AcDbLine
  8
construction lines
 62
256
370
-1
 48
1.0
  6
BYLAYER
 10
306.6000000000000227
 20
150.0
 30
0.0
 11
306.6000000000000227
 21
278.5
 31
0.0
  0
LINE
  5
170
100
AcDbEntity
100
AcDbLine
  8
construction lines
 62
256
370
-1
 48
1.0
  6
BYLAYER
 10
313.6000000000000227
 20
150.0
 30
0.0
 11
313.6000000000000227
 21
278.5
 31
0.0
  0
LINE
  5
171
100
AcDbEntity
100
AcDbLine
  8
construction lines
 62
256
370
-1
 48
1.0
  6
BYLAYER
 10
320.6000000000000227
 20
150.0
 30
0.0
 11
320.6000000000000227
 21
278.5
 31
0.0
  0
LINE
  5
172
100
AcDbEntity
100
AcDbLine
  8
construction lines
 62
256
370
-1
 48
1.0
  6
BYLAYER
 10
327.6000000000000227
 20
150.0
 30
0.0
 11
327.6000000000000227
 21
278.5
 31
0.0
  0
LINE
  5
173
100
AcDbEntity
100
AcDbLine
  8
construction lines
 62
256
370
-1
 48
1.0
  6
BYLAYER
 10
334.6000000000000227
 20
150.0
 30
0.0
 11
334.6000000000000227
 21
278.5
 31
0.0
  0
LINE
  5
174
100
AcDbEntity
100
AcDbLine
  8
construction lines
 62
256
370
-1
 48
1.0
  6
BYLAYER
 10
341.6000000000000227
 20
150.0
 30
0.0
 11
341.6000000000000227
 21
278.5
 31
0.0
  0
LINE
  5
175
100
AcDbEntity
100
AcDbLine
  8
construction lines
 62
256
370
-1
 48
1.0
  6
BYLAYER
 10
348.6000000000000227
 20
150.0
 30
0.0
 11
348.6000000000000227
 21
278.5
 31
0.0
  0
LINE
  5
176
100
AcDbEntity
100
AcDbLine
  8
construction lines
 62
256
370
-1
 48
1.0
  6
BYLAYER
 10
355.6000000000000227
 20
150.0
 30
0.0
 11
355.6000000000000227
 21
278.5
 31
0.0
  0
LINE
  5
177
100
AcDbEntity
100
AcDbLine
  8
construction lines
 62
256
370
-1
 48
1.0
  6
BYLAYER
 10
362.6000000000000227
 20
150.0
 30
0.0
 11
362.6000000000000227
 21
278.5
 31
0.0
  0
LINE
  5
178
100
AcDbEntity
100
AcDbLine
  8
construction lines
 62
256
370
-1
 48
1.0
  6
BYLAYER
 10
369.6000000000000227
 20
150.0
 30
0.0
 11
369.6000000000000227
 21
278.5
 31
0.0
  0
LINE
  5
179
100
AcDbEntity
100
AcDbLine
  8
construction lines
 62
256
370
-1
 48
1.0
  6
BYLAYER
 10
376.6000000000000227
 20
150.0
 30
0.0
 11
376.6000000000000227
 21
278.5
 31
0.0
  0
LINE
  5
17A
100
AcDbEntity
100
AcDbLine
  8
construction lines
 62
256
370
-1
 48
1.0
  6
BYLAYER
 10
150.0
 20
143.0
 30
0.0
 11
271.6000000000000227
 21
143.0
 31
0.0
  0
LINE
  5
17B
100
AcDbEntity
100
AcDbLine
  8
construction lines
 62
256
370
-1
 48
1.0
  6
BYLAYER
 10
150.0
 20
136.0
 30
0.0
 11
271.6000000000000227
 21
136.0
 31
0.0
  0
LINE
  5
17C
100
AcDbEntity
100
AcDbLine
  8
construction lines
 62
256
370
-1
 48
1.0
  6
BYLAYER
 10
150.0
 20
129.0
 30
0.0
 11
271.6000000000000227
 21
129.0
 31
0.0
  0
LINE
  5
17D
100
AcDbEntity
100
AcDbLine
  8
construction lines
 62
256
370
-1
 48
1.0
  6
BYLAYER
 10
150.0
 20
122.0
 30
0.0
 11
271.6000000000000227
 21
122.0
 31
0.0
  0
LINE
  5
17E
100
AcDbEntity
100
AcDbLine
  8
construction lines
 62
256
370
-1
 48
1.0
  6
BYLAYER
 10
150.0
 20
115.0
 30
0.0
 11
271.6000000000000227
 21
115.0
 31
0.0
  0
LINE
  5
17F
100
AcDbEntity
100
AcDbLine
  8
construction lines
 62
256
370
-1
 48
1.0
  6
BYLAYER
 10
150.0
 20
108.0
 30
0.0
 11
271.6000000000000227
 21
108.0
 31
0.0
  0
LINE
  5
180
100
AcDbEntity
100
AcDbLine
  8
construction lines
 62
256
370
-1
 48
1.0
  6
BYLAYER
 10
150.0
 20
101.0
 30
0.0
 11
271.6000000000000227
 21
101.0
 31
0.0
  0
LINE
  5
181
100
AcDbEntity
100
AcDbLine
  8
construction lines
 62
256
370
-1
 48
1.0
  6
BYLAYER
 10
150.0
 20
94.0
 30
0.0
 11
271.6000000000000227
 21
94.0
 31
0.0
  0
LINE
  5
182
100
AcDbEntity
100
AcDbLine
  8
construction lines
 62
256
370
-1
 48
1.0
  6
BYLAYER
 10
150.0
 20
87.0
 30
0.0
 11
271.6000000000000227
 21
87.0
 31
0.0
  0
LINE
  5
183
100
AcDbEntity
100
AcDbLine
  8
construction lines
 62
256
370
-1
 48
1.0
  6
BYLAYER
 10
150.0
 20
80.0
 30
0.0
 11
271.6000000000000227
 21
80.0
 31
0.0
  0
LINE
  5
184
100
AcDbEntity
100
AcDbLine
  8
construction lines
 62
256
370
-1
 48
1.0
  6
BYLAYER
 10
150.0
 20
73.0
 30
0.0
 11
271.6000000000000227
 21
73.0
 31
0.0
  0
LINE
  5
185
100
AcDbEntity
100
AcDbLine
  8
construction lines
 62
256
370
-1
 48
1.0
  6
BYLAYER
 10
150.0
 20
66.0
 30
0.0
 11
271.6000000000000227
 21
66.0
 31
0.0
  0
LINE
  5
186
100
AcDbEntity
100
AcDbLine
  8
construction lines
 62
256
370
-1
 48
1.0
  6
BYLAYER
 10
150.0
 20
59.0
 30
0.0
 11
271.6000000000000227
 21
59.0
 31
0.0
  0
LINE
  5
187
100
AcDbEntity
100
AcDbLine
  8
construction lines
 62
256
370
-1
 48
1.0
  6
BYLAYER
 10
150.0
 20
52.0
 30
0.0
 11
271.6000000000000227
 21
52.0
 31
0.0
  0
LINE
  5
188
100
AcDbEntity
100
AcDbLine
  8
construction lines
 62
256
370
-1
 48
1.0
  6
BYLAYER
 10
150.0
 20
45.0
 30
0.0
 11
271.6000000000000227
 21
45.0
 31
0.0
  0
LINE
  5
189
100
AcDbEntity
100
AcDbLine
  8
construction lines
 62
256
370
-1
 48
1.0
  6
BYLAYER
 10
271.6000000000000227
 20
285.5
 30
0.0
 11
150.0
 21
285.5
 31
0.0
  0
LINE
  5
18A
100
AcDbEntity
100
AcDbLine
  8
construction lines
 62
256
370
-1
 48
1.0
  6
BYLAYER
 10
271.6000000000000227
 20
292.5
 30
0.0
 11
150.0
 21
292.5
 31
0.0
  0
LINE
  5
18B
100
AcDbEntity
100
AcDbLine
  8
construction lines
 62
256
370
-1
 48
1.0
  6
BYLAYER
 10
271.6000000000000227
 20
299.5
 30
0.0
 11
150.0
 21
299.5
 31
0.0
  0
LINE
  5
18C
100
AcDbEntity
100
AcDbLine
  8
construction lines
 62
256
370
-1
 48
1.0
  6
BYLAYER
 10
271.6000000000000227
 20
306.5
 30
0.0
 11
150.0
 21
306.5
 31
0.0
  0
LINE
  5
18D
100
AcDbEntity
100
AcDbLine
  8
construction lines
 62
256
370
-1
 48
1.0
  6
BYLAYER
 10
271.6000000000000227
 20
313.5
 30
0.0
 11
150.0
 21
313.5
 31
0.0
  0
LINE
  5
18E
100
AcDbEntity
100
AcDbLine
  8
construction lines
 62
256
370
-1
 48
1.0
  6
BYLAYER
 10
271.6000000000000227
 20
320.5
 30
0.0
 11
150.0
 21
320.5
 31
0.0
  0
LINE
  5
18F
100
AcDbEntity
100
AcDbLine
  8
construction lines
 62
256
370
-1
 48
1.0
  6
BYLAYER
 10
271.6000000000000227
 20
327.5
 30
0.0
 11
150.0
 21
327.5
 31
0.0
  0
LINE
  5
190
100
AcDbEntity
100
AcDbLine
  8
construction lines
 62
256
370
-1
 48
1.0
  6
BYLAYER
 10
271.6000000000000227
 20
334.5
 30
0.0
 11
150.0
 21
334.5
 31
0.0
  0
LINE
  5
191
100
AcDbEntity
100
AcDbLine
  8
construction lines
 62
256
370
-1
 48
1.0
  6
BYLAYER
 10
271.6000000000000227
 20
341.5
 30
0.0
 11
150.0
 21
341.5
 31
0.0
  0
LINE
  5
192
100
AcDbEntity
100
AcDbLine
  8
construction lines
 62
256
370
-1
 48
1.0
  6
BYLAYER
 10
271.6000000000000227
 20
348.5
 30
0.0
 11
150.0
 21
348.5
 31
0.0
  0
LINE
  5
193
100
AcDbEntity
100
AcDbLine
  8
construction lines
 62
256
370
-1
 48
1.0
  6
BYLAYER
 10
271.6000000000000227
 20
355.5
 30
0.0
 11
150.0
 21
355.5
 31
0.0
  0
LINE
  5
194
100
AcDbEntity
100
AcDbLine
  8
construction lines
 62
256
370
-1
 48
1.0
  6
BYLAYER
 10
271.6000000000000227
 20
362.5
 30
0.0
 11
150.0
 21
362.5
 31
0.0
  0
LINE
  5
195
100
AcDbEntity
100
AcDbLine
  8
construction lines
 62
256
370
-1
 48
1.0
  6
BYLAYER
 10
271.6000000000000227
 20
369.5
 30
0.0
 11
150.0
 21
369.5
 31
0.0
  0
LINE
  5
196
100
AcDbEntity
100
AcDbLine
  8
construction lines
 62
256
370
-1
 48
1.0
  6
BYLAYER
 10
271.6000000000000227
 20
376.5
 30
0.0
 11
150.0
 21
376.5
 31
0.0
  0
LINE
  5
197
100
AcDbEntity
100
AcDbLine
  8
construction lines
 62
256
370
-1
 48
1.0
  6
BYLAYER
 10
271.6000000000000227
 20
383.5
 30
0.0
 11
150.0
 21
383.5
 31
0.0
  0
DIMENSION
  5
198
100
AcDbEntity
  8
dimensions
 62
256
370
-1
 48
1.0
  6
BYLAYER
100
AcDbDimension
 10
143.0
 20
150.0
 30
0.0
 11
141.125
 21
157.0854411514222306
 31
0.0
 70
0
 71
8
 72
2
 41
1.0
 42
0.0
  1

  3
Standard
100
AcDbAlignedDimension
 13
150.0
 23
150.0
 33
0.0
 14
150.0
 24
153.0
 34
0.0
 50
90.0
100
AcDbRotatedDimension
1001
ACAD
1000
DSTYLE
1002
{
1070
144
1040
1.0
1070
40
1040
1.0
1002
}
  0
DIMENSION
  5
199
100
AcDbEntity
  8
dimensions
 62
256
370
-1
 48
1.0
  6
BYLAYER
100
AcDbDimension
 10
136.0
 20
150.0
 30
0.0
 11
134.125
 21
157.4850000000000136
 31
0.0
 70
0
 71
8
 72
2
 41
1.0
 42
0.0
  1

  3
Standard
100
AcDbAlignedDimension
 13
150.0
 23
150.0
 33
0.0
 14
150.0
 24
164.9699999999999989
 34
0.0
 50
90.0
100
AcDbRotatedDimension
1001
ACAD
1000
DSTYLE
1002
{
1070
144
1040
1.0
1070
40
1040
1.0
1002
}
  0
DIMENSION
  5
19A
100
AcDbEntity
  8
dimensions
 62
256
370
-1
 48
1.0
  6
BYLAYER
100
AcDbDimension
 10
129.0
 20
150.0
 30
0.0
 11
127.125
 21
161.8050000000000068
 31
0.0
 70
0
 71
8
 72
2
 41
1.0
 42
0.0
  1

  3
Standard
100
AcDbAlignedDimension
 13
150.0
 23
150.0
 33
0.0
 14
150.0
 24
173.6100000000000136
 34
0.0
 50
90.0
100
AcDbRotatedDimension
1001
ACAD
1000
DSTYLE
1002
{
1070
144
1040
1.0
1070
40
1040
1.0
1002
}
  0
DIMENSION
  5
19B
100
AcDbEntity
  8
dimensions
 62
256
370
-1
 48
1.0
  6
BYLAYER
100
AcDbDimension
 10
122.0
 20
150.0
 30
0.0
 11
120.125
 21
168.7900000000000205
 31
0.0
 70
0
 71
8
 72
2
 41
1.0
 42
0.0
  1

  3
Standard
100
AcDbAlignedDimension
 13
150.0
 23
150.0
 33
0.0
 14
150.0
 24
187.5800000000000125
 34
0.0
 50
90.0
100
AcDbRotatedDimension
1001
ACAD
1000
DSTYLE
1002
{
1070
144
1040
1.0
1070
40
1040
1.0
1002
}
  0
DIMENSION
  5
19C
100
AcDbEntity
  8
dimensions
 62
256
370
-1
 48
1.0
  6
BYLAYER
100
AcDbDimension
 10
115.0
 20
150.0
 30
0.0
 11
113.125
 21
175.7750000000000341
 31
0.0
 70
0
 71
8
 72
2
 41
1.0
 42
0.0
  1

  3
Standard
100
AcDbAlignedDimension
 13
150.0
 23
150.0
 33
0.0
 14
150.0
 24
201.5500000000000398
 34
0.0
 50
90.0
100
AcDbRotatedDimension
1001
ACAD
1000
DSTYLE
1002
{
1070
144
1040
1.0
1070
40
1040
1.0
1002
}
  0
DIMENSION
  5
19D
100
AcDbEntity
  8
dimensions
 62
256
370
-1
 48
1.0
  6
BYLAYER
100
AcDbDimension
 10
108.0
 20
150.0
 30
0.0
 11
106.125
 21
182.7599999999999909
 31
0.0
 70
0
 71
8
 72
2
 41
1.0
 42
0.0
  1

  3
Standard
100
AcDbAlignedDimension
 13
150.0
 23
150.0
 33
0.0
 14
150.0
 24
215.5199999999999818
 34
0.0
 50
90.0
100
AcDbRotatedDimension
1001
ACAD
1000
DSTYLE
1002
{
1070
144
1040
1.0
1070
40
1040
1.0
1002
}
  0
DIMENSION
  5
19E
100
AcDbEntity
  8
dimensions
 62
256
370
-1
 48
1.0
  6
BYLAYER
100
AcDbDimension
 10
101.0
 20
150.0
 30
0.0
 11
99.125
 21
206.7649999999999864
 31
0.0
 70
0
 71
8
 72
2
 41
1.0
 42
0.0
  1

  3
Standard
100
AcDbAlignedDimension
 13
150.0
 23
150.0
 33
0.0
 14
150.0
 24
263.5299999999999727
 34
0.0
 50
90.0
100
AcDbRotatedDimension
1001
ACAD
1000
DSTYLE
1002
{
1070
144
1040
1.0
1070
40
1040
1.0
1002
}
  0
DIMENSION
  5
19F
100
AcDbEntity
  8
dimensions
 62
256
370
-1
 48
1.0
  6
BYLAYER
100
AcDbDimension
 10
94.0
 20
150.0
 30
0.0
 11
92.125
 21
212.75
 31
0.0
 70
0
 71
8
 72
2
 41
1.0
 42
0.0
  1

  3
Standard
100
AcDbAlignedDimension
 13
150.0
 23
150.0
 33
0.0
 14
150.0
 24
275.5
 34
0.0
 50
90.0
100
AcDbRotatedDimension
1001
ACAD
1000
DSTYLE
1002
{
1070
144
1040
1.0
1070
40
1040
1.0
1002
}
  0
DIMENSION
  5
1A0
100
AcDbEntity
  8
dimensions
 62
256
370
-1
 48
1.0
  6
BYLAYER
100
AcDbDimension
 10
87.0
 20
150.0
 30
0.0
 11
85.125
 21
214.25
 31
0.0
 70
0
 71
8
 72
2
 41
1.0
 42
0.0
  1

  3
Standard
100
AcDbAlignedDimension
 13
150.0
 23
150.0
 33
0.0
 14
150.0
 24
278.5
 34
0.0
 50
90.0
100
AcDbRotatedDimension
1001
ACAD
1000
DSTYLE
1002
{
1070
144
1040
1.0
1070
40
1040
1.0
1002
}
  0
DIMENSION
  5
1A1
100
AcDbEntity
  8
dimensions
 62
256
370
-1
 48
1.0
  6
BYLAYER
100
AcDbDimension
 10
278.6000000000000227
 20
150.0
 30
0.0
 11
276.7250000000000227
 21
174.0450000000000159
 31
0.0
 70
0
 71
8
 72
2
 41
1.0
 42
0.0
  1

  3
Standard
100
AcDbAlignedDimension
 13
271.6000000000000796
 23
150.0
 33
0.0
 14
271.6000000000000796
 24
198.0900000000000318
 34
0.0
 50
90.0
100
AcDbRotatedDimension
1001
ACAD
1000
DSTYLE
1002
{
1070
144
1040
1.0
1070
40
1040
1.0
1002
}
  0
DIMENSION
  5
1A2
100
AcDbEntity
  8
dimensions
 62
256
370
-1
 48
1.0
  6
BYLAYER
100
AcDbDimension
 10
285.6000000000000227
 20
150.0
 30
0.0
 11
283.7250000000000227
 21
177.0450000000000159
 31
0.0
 70
0
 71
8
 72
2
 41
1.0
 42
0.0
  1

  3
Standard
100
AcDbAlignedDimension
 13
271.6000000000000796
 23
150.0
 33
0.0
 14
271.6000000000000796
 24
204.0900000000000034
 34
0.0
 50
90.0
100
AcDbRotatedDimension
1001
ACAD
1000
DSTYLE
1002
{
1070
144
1040
1.0
1070
40
1040
1.0
1002
}
  0
DIMENSION
  5
1A3
100
AcDbEntity
  8
dimensions
 62
256
370
-1
 48
1.0
  6
BYLAYER
100
AcDbDimension
 10
292.6000000000000227
 20
150.0
 30
0.0
 11
290.7250000000000227
 21
181.6650000000000205
 31
0.0
 70
0
 71
8
 72
2
 41
1.0
 42
0.0
  1

  3
Standard
100
AcDbAlignedDimension
 13
271.6000000000000796
 23
150.0
 33
0.0
 14
271.6000000000000796
 24
213.3300000000000125
 34
0.0
 50
90.0
100
AcDbRotatedDimension
1001
ACAD
1000
DSTYLE
1002
{
1070
144
1040
1.0
1070
40
1040
1.0
1002
}
  0
DIMENSION
  5
1A4
100
AcDbEntity
  8
dimensions
 62
256
370
-1
 48
1.0
  6
BYLAYER
100
AcDbDimension
 10
299.6000000000000227
 20
150.0
 30
0.0
 11
297.7250000000000227
 21
184.664999999999992
 31
0.0
 70
0
 71
8
 72
2
 41
1.0
 42
0.0
  1

  3
Standard
100
AcDbAlignedDimension
 13
271.6000000000000796
 23
150.0
 33
0.0
 14
271.6000000000000796
 24
219.3299999999999841
 34
0.0
 50
90.0
100
AcDbRotatedDimension
1001
ACAD
1000
DSTYLE
1002
{
1070
144
1040
1.0
1070
40
1040
1.0
1002
}
  0
DIMENSION
  5
1A5
100
AcDbEntity
  8
dimensions
 62
256
370
-1
 48
1.0
  6
BYLAYER
100
AcDbDimension
 10
306.6000000000000227
 20
150.0
 30
0.0
 11
304.7250000000000227
 21
188.0150000000000432
 31
0.0
 70
0
 71
8
 72
2
 41
1.0
 42
0.0
  1

  3
Standard
100
AcDbAlignedDimension
 13
271.6000000000000796
 23
150.0
 33
0.0
 14
271.6000000000000796
 24
226.030000000000058
 34
0.0
 50
90.0
100
AcDbRotatedDimension
1001
ACAD
1000
DSTYLE
1002
{
1070
144
1040
1.0
1070
40
1040
1.0
1002
}
  0
DIMENSION
  5
1A6
100
AcDbEntity
  8
dimensions
 62
256
370
-1
 48
1.0
  6
BYLAYER
100
AcDbDimension
 10
313.6000000000000227
 20
150.0
 30
0.0
 11
311.7250000000000227
 21
191.0150000000000148
 31
0.0
 70
0
 71
8
 72
2
 41
1.0
 42
0.0
  1

  3
Standard
100
AcDbAlignedDimension
 13
271.6000000000000796
 23
150.0
 33
0.0
 14
271.6000000000000796
 24
232.0300000000000296
 34
0.0
 50
90.0
100
AcDbRotatedDimension
1001
ACAD
1000
DSTYLE
1002
{
1070
144
1040
1.0
1070
40
1040
1.0
1002
}
  0
DIMENSION
  5
1A7
100
AcDbEntity
  8
dimensions
 62
256
370
-1
 48
1.0
  6
BYLAYER
100
AcDbDimension
 10
320.6000000000000227
 20
150.0
 30
0.0
 11
318.7250000000000227
 21
191.7749999999999773
 31
0.0
 70
0
 71
8
 72
2
 41
1.0
 42
0.0
  1

  3
Standard
100
AcDbAlignedDimension
 13
271.6000000000000796
 23
150.0
 33
0.0
 14
271.6000000000000796
 24
233.5499999999999829
 34
0.0
 50
90.0
100
AcDbRotatedDimension
1001
ACAD
1000
DSTYLE
1002
{
1070
144
1040
1.0
1070
40
1040
1.0
1002
}
  0
DIMENSION
  5
1A8
100
AcDbEntity
  8
dimensions
 62
256
370
-1
 48
1.0
  6
BYLAYER
100
AcDbDimension
 10
327.6000000000000227
 20
150.0
 30
0.0
 11
325.7250000000000227
 21
194.8250000000000171
 31
0.0
 70
0
 71
8
 72
2
 41
1.0
 42
0.0
  1

  3
Standard
100
AcDbAlignedDimension
 13
271.6000000000000796
 23
150.0
 33
0.0
 14
271.6000000000000796
 24
239.6500000000000341
 34
0.0
 50
90.0
100
AcDbRotatedDimension
1001
ACAD
1000
DSTYLE
1002
{
1070
144
1040
1.0
1070
40
1040
1.0
1002
}
  0
DIMENSION
  5
1A9
100
AcDbEntity
  8
dimensions
 62
256
370
-1
 48
1.0
  6
BYLAYER
100
AcDbDimension
 10
334.6000000000000227
 20
150.0
 30
0.0
 11
332.7250000000000227
 21
198.1750000000000114
 31
0.0
 70
0
 71
8
 72
2
 41
1.0
 42
0.0
  1

  3
Standard
100
AcDbAlignedDimension
 13
271.6000000000000796
 23
150.0
 33
0.0
 14
271.6000000000000796
 24
246.3499999999999943
 34
0.0
 50
90.0
100
AcDbRotatedDimension
1001
ACAD
1000
DSTYLE
1002
{
1070
144
1040
1.0
1070
40
1040
1.0
1002
}
  0
DIMENSION
  5
1AA
100
AcDbEntity
  8
dimensions
 62
256
370
-1
 48
1.0
  6
BYLAYER
100
AcDbDimension
 10
341.6000000000000227
 20
150.0
 30
0.0
 11
339.7250000000000227
 21
200.7150000000000318
 31
0.0
 70
0
 71
8
 72
2
 41
1.0
 42
0.0
  1

  3
Standard
100
AcDbAlignedDimension
 13
271.6000000000000796
 23
150.0
 33
0.0
 14
271.6000000000000796
 24
251.4300000000000352
 34
0.0
 50
90.0
100
AcDbRotatedDimension
1001
ACAD
1000
DSTYLE
1002
{
1070
144
1040
1.0
1070
40
1040
1.0
1002
}
  0
DIMENSION
  5
1AB
100
AcDbEntity
  8
dimensions
 62
256
370
-1
 48
1.0
  6
BYLAYER
100
AcDbDimension
 10
348.6000000000000227
 20
150.0
 30
0.0
 11
346.7250000000000227
 21
201.1750000000000114
 31
0.0
 70
0
 71
8
 72
2
 41
1.0
 42
0.0
  1

  3
Standard
100
AcDbAlignedDimension
 13
271.6000000000000796
 23
150.0
 33
0.0
 14
271.6000000000000796
 24
252.3499999999999943
 34
0.0
 50
90.0
100
AcDbRotatedDimension
1001
ACAD
1000
DSTYLE
1002
{
1070
144
1040
1.0
1070
40
1040
1.0
1002
}
  0
DIMENSION
  5
1AC
100
AcDbEntity
  8
dimensions
 62
256
370
-1
 48
1.0
  6
BYLAYER
100
AcDbDimension
 10
355.6000000000000227
 20
150.0
 30
0.0
 11
353.7250000000000227
 21
203.7150000000000034
 31
0.0
 70
0
 71
8
 72
2
 41
1.0
 42
0.0
  1

  3
Standard
100
AcDbAlignedDimension
 13
271.6000000000000796
 23
150.0
 33
0.0
 14
271.6000000000000796
 24
257.4300000000000068
 34
0.0
 50
90.0
100
AcDbRotatedDimension
1001
ACAD
1000
DSTYLE
1002
{
1070
144
1040
1.0
1070
40
1040
1.0
1002
}
  0
DIMENSION
  5
1AD
100
AcDbEntity
  8
dimensions
 62
256
370
-1
 48
1.0
  6
BYLAYER
100
AcDbDimension
 10
150.0
 20
285.5
 30
0.0
 11
157.5400000000000205
 21
287.375
 31
0.0
 70
0
 71
8
 72
2
 41
1.0
 42
0.0
  1

  3
Standard
100
AcDbAlignedDimension
 13
150.0
 23
278.5
 33
0.0
 14
165.0800000000000409
 24
278.5
 34
0.0
 50
0.0
100
AcDbRotatedDimension
1001
ACAD
1000
DSTYLE
1002
{
1070
144
1040
1.0
1070
40
1040
1.0
1002
}
  0
DIMENSION
  5
1AE
100
AcDbEntity
  8
dimensions
 62
256
370
-1
 48
1.0
  6
BYLAYER
100
AcDbDimension
 10
150.0
 20
292.5
 30
0.0
 11
160.7150000000000034
 21
294.375
 31
0.0
 70
0
 71
8
 72
2
 41
1.0
 42
0.0
  1

  3
Standard
100
AcDbAlignedDimension
 13
150.0
 23
278.5
 33
0.0
 14
171.4300000000000068
 24
278.5
 34
0.0
 50
0.0
100
AcDbRotatedDimension
1001
ACAD
1000
DSTYLE
1002
{
1070
144
1040
1.0
1070
40
1040
1.0
1002
}
  0
DIMENSION
  5
1AF
100
AcDbEntity
  8
dimensions
 62
256
370
-1
 48
1.0
  6
BYLAYER
100
AcDbDimension
 10
150.0
 20
299.5
 30
0.0
 11
168.335000000000008
 21
301.375
 31
0.0
 70
0
 71
8
 72
2
 41
1.0
 42
0.0
  1

  3
Standard
100
AcDbAlignedDimension
 13
150.0
 23
278.5
 33
0.0
 14
186.6700000000000159
 24
278.5
 34
0.0
 50
0.0
100
AcDbRotatedDimension
1001
ACAD
1000
DSTYLE
1002
{
1070
144
1040
1.0
1070
40
1040
1.0
1002
}
  0
DIMENSION
  5
1B0
100
AcDbEntity
  8
dimensions
 62
256
370
-1
 48
1.0
  6
BYLAYER
100
AcDbDimension
 10
150.0
 20
306.5
 30
0.0
 11
171.5099999999999909
 21
308.375
 31
0.0
 70
0
 71
8
 72
2
 41
1.0
 42
0.0
  1

  3
Standard
100
AcDbAlignedDimension
 13
150.0
 23
278.5
 33
0.0
 14
193.0200000000000102
 24
278.5
 34
0.0
 50
0.0
100
AcDbRotatedDimension
1001
ACAD
1000
DSTYLE
1002
{
1070
144
1040
1.0
1070
40
1040
1.0
1002
}
  0
DIMENSION
  5
1B1
100
AcDbEntity
  8
dimensions
 62
256
370
-1
 48
1.0
  6
BYLAYER
100
AcDbDimension
 10
150.0
 20
313.5
 30
0.0
 11
174.6850000000000023
 21
315.375
 31
0.0
 70
0
 71
8
 72
2
 41
1.0
 42
0.0
  1

  3
Standard
100
AcDbAlignedDimension
 13
150.0
 23
278.5
 33
0.0
 14
199.370000000000033
 24
278.5
 34
0.0
 50
0.0
100
AcDbRotatedDimension
1001
ACAD
1000
DSTYLE
1002
{
1070
144
1040
1.0
1070
40
1040
1.0
1002
}
  0
DIMENSION
  5
1B2
100
AcDbEntity
  8
dimensions
 62
256
370
-1
 48
1.0
  6
BYLAYER
100
AcDbDimension
 10
150.0
 20
320.5
 30
0.0
 11
186.1150000000000091
 21
322.375
 31
0.0
 70
0
 71
8
 72
2
 41
1.0
 42
0.0
  1

  3
Standard
100
AcDbAlignedDimension
 13
150.0
 23
278.5
 33
0.0
 14
222.2300000000000182
 24
278.5
 34
0.0
 50
0.0
100
AcDbRotatedDimension
1001
ACAD
1000
DSTYLE
1002
{
1070
144
1040
1.0
1070
40
1040
1.0
1002
}
  0
DIMENSION
  5
1B3
100
AcDbEntity
  8
dimensions
 62
256
370
-1
 48
1.0
  6
BYLAYER
100
AcDbDimension
 10
150.0
 20
327.5
 30
0.0
 11
189.2900000000000205
 21
329.375
 31
0.0
 70
0
 71
8
 72
2
 41
1.0
 42
0.0
  1

  3
Standard
100
AcDbAlignedDimension
 13
150.0
 23
278.5
 33
0.0
 14
228.5800000000000125
 24
278.5
 34
0.0
 50
0.0
100
AcDbRotatedDimension
1001
ACAD
1000
DSTYLE
1002
{
1070
144
1040
1.0
1070
40
1040
1.0
1002
}
  0
DIMENSION
  5
1B4
100
AcDbEntity
  8
dimensions
 62
256
370
-1
 48
1.0
  6
BYLAYER
100
AcDbDimension
 10
150.0
 20
334.5
 30
0.0
 11
192.4650000000000034
 21
336.375
 31
0.0
 70
0
 71
8
 72
2
 41
1.0
 42
0.0
  1

  3
Standard
100
AcDbAlignedDimension
 13
150.0
 23
278.5
 33
0.0
 14
234.9300000000000068
 24
278.5
 34
0.0
 50
0.0
100
AcDbRotatedDimension
1001
ACAD
1000
DSTYLE
1002
{
1070
144
1040
1.0
1070
40
1040
1.0
1002
}
  0
DIMENSION
  5
1B5
100
AcDbEntity
  8
dimensions
 62
256
370
-1
 48
1.0
  6
BYLAYER
100
AcDbDimension
 10
150.0
 20
341.5
 30
0.0
 11
200.085000000000008
 21
343.375
 31
0.0
 70
0
 71
8
 72
2
 41
1.0
 42
0.0
  1

  3
Standard
100
AcDbAlignedDimension
 13
150.0
 23
278.5
 33
0.0
 14
250.1700000000000159
 24
278.5
 34
0.0
 50
0.0
100
AcDbRotatedDimension
1001
ACAD
1000
DSTYLE
1002
{
1070
144
1040
1.0
1070
40
1040
1.0
1002
}
  0
DIMENSION
  5
1B6
100
AcDbEntity
  8
dimensions
 62
256
370
-1
 48
1.0
  6
BYLAYER
100
AcDbDimension
 10
150.0
 20
348.5
 30
0.0
 11
203.2599999999999909
 21
350.375
 31
0.0
 70
0
 71
8
 72
2
 41
1.0
 42
0.0
  1

  3
Standard
100
AcDbAlignedDimension
 13
150.0
 23
278.5
 33
0.0
 14
256.5199999999999818
 24
278.5
 34
0.0
 50
0.0
100
AcDbRotatedDimension
1001
ACAD
1000
DSTYLE
1002
{
1070
144
1040
1.0
1070
40
1040
1.0
1002
}
  0
DIMENSION
  5
1B7
100
AcDbEntity
  8
dimensions
 62
256
370
-1
 48
1.0
  6
BYLAYER
100
AcDbDimension
 10
150.0
 20
355.5
 30
0.0
 11
210.8000000000000398
 21
357.375
 31
0.0
 70
0
 71
8
 72
2
 41
1.0
 42
0.0
  1

  3
Standard
100
AcDbAlignedDimension
 13
150.0
 23
278.5
 33
0.0
 14
271.6000000000000796
 24
278.5
 34
0.0
 50
0.0
100
AcDbRotatedDimension
1001
ACAD
1000
DSTYLE
1002
{
1070
144
1040
1.0
1070
40
1040
1.0
1002
}
  0
DIMENSION
  5
1B8
100
AcDbEntity
  8
dimensions
 62
256
370
-1
 48
1.0
  6
BYLAYER
100
AcDbDimension
 10
150.0
 20
143.0
 30
0.0
 11
153.3963786378262455
 21
145.1582254334169306
 31
0.0
 70
128
 71
8
 72
2
 41
1.0
 42
0.0
  1

  3
Standard
100
AcDbAlignedDimension
 13
150.0
 23
150.0
 33
0.0
 14
156.4399999999999977
 24
150.0
 34
0.0
 50
0.0
100
AcDbRotatedDimension
1001
ACAD
1000
DSTYLE
1002
{
1070
144
1040
1.0
1070
40
1040
1.0
1002
}
  0
DIMENSION
  5
1B9
100
AcDbEntity
  8
dimensions
 62
256
370
-1
 48
1.0
  6
BYLAYER
100
AcDbDimension
 10
150.0
 20
136.0
 30
0.0
 11
153.75
 21
137.875
 31
0.0
 70
0
 71
8
 72
2
 41
1.0
 42
0.0
  1

  3
Standard
100
AcDbAlignedDimension
 13
150.0
 23
150.0
 33
0.0
 14
157.5
 24
150.0
 34
0.0
 50
0.0
100
AcDbRotatedDimension
1001
ACAD
1000
DSTYLE
1002
{
1070
144
1040
1.0
1070
40
1040
1.0
1002
}
  0
DIMENSION
  5
1BA
100
AcDbEntity
  8
dimensions
 62
256
370
-1
 48
1.0
  6
BYLAYER
100
AcDbDimension
 10
150.0
 20
129.0
 30
0.0
 11
155.6349999999999909
 21
130.875
 31
0.0
 70
0
 71
8
 72
2
 41
1.0
 42
0.0
  1

  3
Standard
100
AcDbAlignedDimension
 13
150.0
 23
150.0
 33
0.0
 14
161.2700000000000102
 24
150.0
 34
0.0
 50
0.0
100
AcDbRotatedDimension
1001
ACAD
1000
DSTYLE
1002
{
1070
144
1040
1.0
1070
40
1040
1.0
1002
}
  0
DIMENSION
  5
1BB
100
AcDbEntity
  8
dimensions
 62
256
370
-1
 48
1.0
  6
BYLAYER
100
AcDbDimension
 10
150.0
 20
122.0
 30
0.0
 11
163.8899999999999864
 21
123.875
 31
0.0
 70
0
 71
8
 72
2
 41
1.0
 42
0.0
  1

  3
Standard
100
AcDbAlignedDimension
 13
150.0
 23
150.0
 33
0.0
 14
177.7800000000000011
 24
150.0
 34
0.0
 50
0.0
100
AcDbRotatedDimension
1001
ACAD
1000
DSTYLE
1002
{
1070
144
1040
1.0
1070
40
1040
1.0
1002
}
  0
DIMENSION
  5
1BC
100
AcDbEntity
  8
dimensions
 62
256
370
-1
 48
1.0
  6
BYLAYER
100
AcDbDimension
 10
150.0
 20
115.0
 30
0.0
 11
172.1449999999999818
 21
116.875
 31
0.0
 70
0
 71
8
 72
2
 41
1.0
 42
0.0
  1

  3
Standard
100
AcDbAlignedDimension
 13
150.0
 23
150.0
 33
0.0
 14
194.289999999999992
 24
150.0
 34
0.0
 50
0.0
100
AcDbRotatedDimension
1001
ACAD
1000
DSTYLE
1002
{
1070
144
1040
1.0
1070
40
1040
1.0
1002
}
  0
DIMENSION
  5
1BD
100
AcDbEntity
  8
dimensions
 62
256
370
-1
 48
1.0
  6
BYLAYER
100
AcDbDimension
 10
150.0
 20
108.0
 30
0.0
 11
180.4000000000000057
 21
109.875
 31
0.0
 70
0
 71
8
 72
2
 41
1.0
 42
0.0
  1

  3
Standard
100
AcDbAlignedDimension
 13
150.0
 23
150.0
 33
0.0
 14
210.8000000000000114
 24
150.0
 34
0.0
 50
0.0
100
AcDbRotatedDimension
1001
ACAD
1000
DSTYLE
1002
{
1070
144
1040
1.0
1070
40
1040
1.0
1002
}
  0
DIMENSION
  5
1BE
100
AcDbEntity
  8
dimensions
 62
256
370
-1
 48
1.0
  6
BYLAYER
100
AcDbDimension
 10
150.0
 20
101.0
 30
0.0
 11
188.6550000000000011
 21
102.875
 31
0.0
 70
0
 71
8
 72
2
 41
1.0
 42
0.0
  1

  3
Standard
100
AcDbAlignedDimension
 13
150.0
 23
150.0
 33
0.0
 14
227.3100000000000023
 24
150.0
 34
0.0
 50
0.0
100
AcDbRotatedDimension
1001
ACAD
1000
DSTYLE
1002
{
1070
144
1040
1.0
1070
40
1040
1.0
1002
}
  0
DIMENSION
  5
1BF
100
AcDbEntity
  8
dimensions
 62
256
370
-1
 48
1.0
  6
BYLAYER
100
AcDbDimension
 10
150.0
 20
94.0
 30
0.0
 11
196.9099999999999966
 21
95.875
 31
0.0
 70
0
 71
8
 72
2
 41
1.0
 42
0.0
  1

  3
Standard
100
AcDbAlignedDimension
 13
150.0
 23
150.0
 33
0.0
 14
243.8199999999999932
 24
150.0
 34
0.0
 50
0.0
100
AcDbRotatedDimension
1001
ACAD
1000
DSTYLE
1002
{
1070
144
1040
1.0
1070
40
1040
1.0
1002
}
  0
DIMENSION
  5
1C0
100
AcDbEntity
  8
dimensions
 62
256
370
-1
 48
1.0
  6
BYLAYER
100
AcDbDimension
 10
150.0
 20
87.0
 30
0.0
 11
205.1650000000000205
 21
88.875
 31
0.0
 70
0
 71
8
 72
2
 41
1.0
 42
0.0
  1

  3
Standard
100
AcDbAlignedDimension
 13
150.0
 23
150.0
 33
0.0
 14
260.3300000000000409
 24
150.0
 34
0.0
 50
0.0
100
AcDbRotatedDimension
1001
ACAD
1000
DSTYLE
1002
{
1070
144
1040
1.0
1070
40
1040
1.0
1002
}
  0
DIMENSION
  5
1C1
100
AcDbEntity
  8
dimensions
 62
256
370
-1
 48
1.0
  6
BYLAYER
100
AcDbDimension
 10
150.0
 20
80.0
 30
0.0
 11
207.0900000000000318
 21
81.875
 31
0.0
 70
0
 71
8
 72
2
 41
1.0
 42
0.0
  1

  3
Standard
100
AcDbAlignedDimension
 13
150.0
 23
150.0
 33
0.0
 14
264.1800000000000637
 24
150.0
 34
0.0
 50
0.0
100
AcDbRotatedDimension
1001
ACAD
1000
DSTYLE
1002
{
1070
144
1040
1.0
1070
40
1040
1.0
1002
}
  0
DIMENSION
  5
1C2
100
AcDbEntity
  8
dimensions
 62
256
370
-1
 48
1.0
  6
BYLAYER
100
AcDbDimension
 10
150.0
 20
73.0
 30
0.0
 11
207.5799999999999841
 21
74.875
 31
0.0
 70
0
 71
8
 72
2
 41
1.0
 42
0.0
  1

  3
Standard
100
AcDbAlignedDimension
 13
150.0
 23
150.0
 33
0.0
 14
265.1599999999999682
 24
150.0
 34
0.0
 50
0.0
100
AcDbRotatedDimension
1001
ACAD
1000
DSTYLE
1002
{
1070
144
1040
1.0
1070
40
1040
1.0
1002
}
  0
ARC
  5
1C3
100
AcDbEntity
  8
outlines
 62
256
370
-1
 48
1.0
  6
BYLAYER
100
AcDbCircle
 10
150.5
 20
278.0
 30
0.0
 40
0.5
100
AcDbArc
 50
90.0
 51
180.0
  0
ARC
  5
1C4
100
AcDbEntity
  8
outlines
 62
256
370
-1
 48
1.0
  6
BYLAYER
100
AcDbCircle
 10
271.1000000000000227
 20
278.0
 30
0.0
 40
0.5
100
AcDbArc
 50
0.0
 51
90.0
  0
ARC
  5
1C5
100
AcDbEntity
  8
outlines
 62
256
370
-1
 48
1.0
  6
BYLAYER
100
AcDbCircle
 10
271.1000000000000227
 20
150.5
 30
0.0
 40
0.5
100
AcDbArc
 50
270.0
 51
0.0
  0
ARC
  5
1C6
100
AcDbEntity
  8
outlines
 62
256
370
-1
 48
1.0
  6
BYLAYER
100
AcDbCircle
 10
150.5
 20
150.5
 30
0.0
 40
0.5
100
AcDbArc
 50
180.0
 51
270.0
  0
DIMENSION
  5
1C7
100
AcDbEntity
  8
dimensions
 62
256
370
-1
 48
1.0
  6
BYLAYER
100
AcDbDimension
 10
150.5
 20
278.0
 30
0.0
 11
145.6221075884239724
 21
282.6323957615988434
 31
0.0
 70
4
 71
8
 72
2
 41
1.0
 42
0.0
  1

  3
Standard
100
AcDbRadialDimension
 15
150.0558399922705917
 25
278.2296124725136224
 35
0.0
 40
0.0
1001
ACAD
1000
DSTYLE
1002
{
1070
144
1040
1.0
1070
40
1040
1.0
1002
}
  0
DIMENSION
  5
1C8
100
AcDbEntity
  8
dimensions
 62
256
370
-1
 48
1.0
  6
BYLAYER
100
AcDbDimension
 10
271.1000000000000227
 20
278.0
 30
0.0
 11
276.7950768561200903
 21
281.5803665278677386
 31
0.0
 70
4
 71
8
 72
2
 41
1.0
 42
0.0
  1

  3
Standard
100
AcDbRadialDimension
 15
271.5806970626271664
 25
278.1375875502421877
 35
0.0
 40
0.0
1001
ACAD
1000
DSTYLE
1002
{
1070
144
1040
1.0
1070
40
1040
1.0
1002
}
  0
DIMENSION
  5
1C9
100
AcDbEntity
  8
dimensions
 62
256
370
-1
 48
1.0
  6
BYLAYER
100
AcDbDimension
 10
150.5
 20
150.5
 30
0.0
 11
145.2810420696323206
 21
146.255544441033436
 31
0.0
 70
4
 71
8
 72
2
 41
1.0
 42
0.0
  1

  3
Standard
100
AcDbRadialDimension
 15
150.2153950105848423
 25
150.0889039041781245
 35
0.0
 40
0.0
1001
ACAD
1000
DSTYLE
1002
{
1070
144
1040
1.0
1070
40
1040
1.0
1002
}
  0
DIMENSION
  5
1CA
100
AcDbEntity
  8
dimensions
 62
256
370
-1
 48
1.0
  6
BYLAYER
100
AcDbDimension
 10
271.1000000000000227
 20
150.5
 30
0.0
 11
275.9509432067079615
 21
145.8393911474696267
 31
0.0
 70
4
 71
8
 72
2
 41
1.0
 42
0.0
  1

  3
Standard
100
AcDbRadialDimension
 15
271.3497141519776505
 25
150.0668223894265907
 35
0.0
 40
0.0
1001
ACAD
1000
DSTYLE
1002
{
1070
144
1040
1.0
1070
40
1040
1.0
1002
}
  0
DIMENSION
  5
1CB
100
AcDbEntity
  8
dimensions
 62
256
370
-1
 48
1.0
  6
BYLAYER
100
AcDbDimension
 10
156.0434136360598245
 20
274.8379152891180865
 30
0.0
 11
161.0
 21
281.0
 31
0.0
 70
131
 71
8
 72
2
 41
1.0
 42
0.0
  1

  3
Standard
100
AcDbDiametricDimension
 15
158.9565863639401755
 25
276.1620847108819135
 35
0.0
 40
0.0
1001
ACAD
1000
DSTYLE
1002
{
1070
144
1040
1.0
1070
40
1040
1.0
1002
}
  0
DIMENSION
  5
1CC
100
AcDbEntity
  8
dimensions
 62
256
370
-1
 48
1.0
  6
BYLAYER
100
AcDbDimension
 10
157.9188820039237555
 20
264.1406619510584051
 30
0.0
 11
160.9794409031070757
 21
267.4329914646952489
 31
0.0
 70
3
 71
8
 72
2
 41
1.0
 42
0.0
  1

  3
Standard
100
AcDbDiametricDimension
 15
154.9611179960762399
 25
262.9193380489415404
 35
0.0
 40
0.0
1001
ACAD
1000
DSTYLE
1002
{
1070
144
1040
1.0
1070
40
1040
1.0
1002
}
  0
DIMENSION
  5
1CD
100
AcDbEntity
  8
dimensions
 62
256
370
-1
 48
1.0
  6
BYLAYER
100
AcDbDimension
 10
168.4075694668317169
 20
258.9299271460340037
 30
0.0
 11
159.0
 21
260.0
 31
0.0
 70
131
 71
8
 72
2
 41
1.0
 42
0.0
  1

  3
Standard
100
AcDbDiametricDimension
 15
161.7524305331683649
 25
255.9300728539660383
 35
0.0
 40
0.0
1001
ACAD
1000
DSTYLE
1002
{
1070
144
1040
1.0
1070
40
1040
1.0
1002
}
  0
DIMENSION
  5
1CE
100
AcDbEntity
  8
dimensions
 62
256
370
-1
 48
1.0
  6
BYLAYER
100
AcDbDimension
 10
166.1370029931224792
 20
251.734540100036412
 30
0.0
 11
169.0
 21
249.0
 31
0.0
 70
131
 71
8
 72
2
 41
1.0
 42
0.0
  1

  3
Standard
100
AcDbDiametricDimension
 15
164.0229970068776026
 25
251.1254598999636016
 35
0.0
 40
0.0
1001
ACAD
1000
DSTYLE
1002
{
1070
144
1040
1.0
1070
40
1040
1.0
1002
}
  0
DIMENSION
  5
1CF
100
AcDbEntity
  8
dimensions
 62
256
370
-1
 48
1.0
  6
BYLAYER
100
AcDbDimension
 10
196.483994087412583
 20
253.5003238510831238
 30
0.0
 11
188.0
 21
256.0
 31
0.0
 70
131
 71
8
 72
2
 41
1.0
 42
0.0
  1

  3
Standard
100
AcDbDiametricDimension
 15
189.5560059125874375
 25
251.1996761489168648
 35
0.0
 40
0.0
1001
ACAD
1000
DSTYLE
1002
{
1070
144
1040
1.0
1070
40
1040
1.0
1002
}
  0
DIMENSION
  5
1D0
100
AcDbEntity
  8
dimensions
 62
256
370
-1
 48
1.0
  6
BYLAYER
100
AcDbDimension
 10
194.0972141590220588
 20
246.5727322509256112
 30
0.0
 11
197.0
 21
244.0
 31
0.0
 70
131
 71
8
 72
2
 41
1.0
 42
0.0
  1

  3
Standard
100
AcDbDiametricDimension
 15
191.9427858409779617
 25
246.1272677490743774
 35
0.0
 40
0.0
1001
ACAD
1000
DSTYLE
1002
{
1070
144
1040
1.0
1070
40
1040
1.0
1002
}
  0
DIMENSION
  5
1D1
100
AcDbEntity
  8
dimensions
 62
256
370
-1
 48
1.0
  6
BYLAYER
100
AcDbDimension
 10
213.876228450210931
 20
240.435775745434313
 30
0.0
 11
217.365377021357375
 21
243.2622281562841806
 31
0.0
 70
3
 71
8
 72
2
 41
1.0
 42
0.0
  1

  3
Standard
100
AcDbDiametricDimension
 15
207.7237715497890918
 25
238.8642242545656984
 35
0.0
 40
0.0
1001
ACAD
1000
DSTYLE
1002
{
1070
144
1040
1.0
1070
40
1040
1.0
1002
}
  0
DIMENSION
  5
1D2
100
AcDbEntity
  8
dimensions
 62
256
370
-1
 48
1.0
  6
BYLAYER
100
AcDbDimension
 10
211.9754896818606085
 20
233.7352673955106184
 30
0.0
 11
217.0
 21
237.0
 31
0.0
 70
131
 71
8
 72
2
 41
1.0
 42
0.0
  1

  3
Standard
100
AcDbDiametricDimension
 15
209.6245103181394143
 25
233.3647326044893475
 35
0.0
 40
0.0
1001
ACAD
1000
DSTYLE
1002
{
1070
144
1040
1.0
1070
40
1040
1.0
1002
}
  0
DIMENSION
  5
1D3
100
AcDbEntity
  8
dimensions
 62
256
370
-1
 48
1.0
  6
BYLAYER
100
AcDbDimension
 10
232.0616374848950159
 20
253.4457647666237392
 30
0.0
 11
223.0
 21
256.0
 31
0.0
 70
131
 71
8
 72
2
 41
1.0
 42
0.0
  1

  3
Standard
100
AcDbDiametricDimension
 15
225.0983625151050092
 25
251.2542352333762494
 35
0.0
 40
0.0
1001
ACAD
1000
DSTYLE
1002
{
1070
144
1040
1.0
1070
40
1040
1.0
1002
}
  0
DIMENSION
  5
1D4
100
AcDbEntity
  8
dimensions
 62
256
370
-1
 48
1.0
  6
BYLAYER
100
AcDbDimension
 10
229.6537717051130301
 20
246.5887767268782227
 30
0.0
 11
232.0
 21
244.0
 31
0.0
 70
131
 71
8
 72
2
 41
1.0
 42
0.0
  1

  3
Standard
100
AcDbDiametricDimension
 15
227.5062282948869949
 25
246.1112232731217659
 35
0.0
 40
0.0
1001
ACAD
1000
DSTYLE
1002
{
1070
144
1040
1.0
1070
40
1040
1.0
1002
}
  0
DIMENSION
  5
1D5
100
AcDbEntity
  8
dimensions
 62
256
370
-1
 48
1.0
  6
BYLAYER
100
AcDbDimension
 10
259.8246353696044935
 20
258.9798016240663401
 30
0.0
 11
252.0
 21
261.0
 31
0.0
 70
131
 71
8
 72
2
 41
1.0
 42
0.0
  1

  3
Standard
100
AcDbDiametricDimension
 15
253.2153646303954417
 25
255.8801983759336451
 35
0.0
 40
0.0
1001
ACAD
1000
DSTYLE
1002
{
1070
144
1040
1.0
1070
40
1040
1.0
1002
}
  0
DIMENSION
  5
1D6
100
AcDbEntity
  8
dimensions
 62
256
370
-1
 48
1.0
  6
BYLAYER
100
AcDbDimension
 10
257.5890694478650289
 20
251.6890183693129757
 30
0.0
 11
260.0
 21
249.0
 31
0.0
 70
131
 71
8
 72
2
 41
1.0
 42
0.0
  1

  3
Standard
100
AcDbDiametricDimension
 15
255.4509305521349631
 25
251.170981630687038
 35
0.0
 40
0.0
1001
ACAD
1000
DSTYLE
1002
{
1070
144
1040
1.0
1070
40
1040
1.0
1002
}
  0
DIMENSION
  5
1D7
100
AcDbEntity
  8
dimensions
 62
256
370
-1
 48
1.0
  6
BYLAYER
100
AcDbDimension
 10
266.6909461081842778
 20
263.9949774336840278
 30
0.0
 11
270.0551695724519163
 21
266.9763286179971828
 31
0.0
 70
3
 71
8
 72
2
 41
1.0
 42
0.0
  1

  3
Standard
100
AcDbDiametricDimension
 15
263.6290538918156585
 25
263.0650225663159176
 35
0.0
 40
0.0
1001
ACAD
1000
DSTYLE
1002
{
1070
144
1040
1.0
1070
40
1040
1.0
1002
}
  0
DIMENSION
  5
1D8
100
AcDbEntity
  8
dimensions
 62
256
370
-1
 48
1.0
  6
BYLAYER
100
AcDbDimension
 10
265.6021783704905488
 20
276.2330816342734465
 30
0.0
 11
268.0
 21
281.0
 31
0.0
 70
131
 71
8
 72
2
 41
1.0
 42
0.0
  1

  3
Standard
100
AcDbDiametricDimension
 15
262.7578216295095785
 25
274.7669183657265535
 35
0.0
 40
0.0
1001
ACAD
1000
DSTYLE
1002
{
1070
144
1040
1.0
1070
40
1040
1.0
1002
}
  0
DIMENSION
  5
1D9
100
AcDbEntity
  8
dimensions
 62
256
370
-1
 48
1.0
  6
BYLAYER
100
AcDbDimension
 10
174.7559511651567163
 20
233.5335121705502957
 30
0.0
 11
167.0
 21
236.0
 31
0.0
 70
131
 71
8
 72
2
 41
1.0
 42
0.0
  1

  3
Standard
100
AcDbDiametricDimension
 15
168.1040488348432973
 25
230.5264878294497635
 35
0.0
 40
0.0
1001
ACAD
1000
DSTYLE
1002
{
1070
144
1040
1.0
1070
40
1040
1.0
1002
}
  0
DIMENSION
  5
1DA
100
AcDbEntity
  8
dimensions
 62
256
370
-1
 48
1.0
  6
BYLAYER
100
AcDbDimension
 10
172.4693548438228277
 20
226.3901964861323108
 30
0.0
 11
177.0
 21
226.0
 31
0.0
 70
131
 71
8
 72
2
 41
1.0
 42
0.0
  1

  3
Standard
100
AcDbDiametricDimension
 15
170.390645156177186
 25
225.6698035138677483
 35
0.0
 40
0.0
1001
ACAD
1000
DSTYLE
1002
{
1070
144
1040
1.0
1070
40
1040
1.0
1002
}
  0
DIMENSION
  5
1DB
100
AcDbEntity
  8
dimensions
 62
256
370
-1
 48
1.0
  6
BYLAYER
100
AcDbDimension
 10
190.1093871254079772
 20
220.5519313407789923
 30
0.0
 11
183.0
 21
224.0
 31
0.0
 70
131
 71
8
 72
2
 41
1.0
 42
0.0
  1

  3
Standard
100
AcDbDiametricDimension
 15
183.2306128745920546
 25
218.1080686592209759
 35
0.0
 40
0.0
1001
ACAD
1000
DSTYLE
1002
{
1070
144
1040
1.0
1070
40
1040
1.0
1002
}
  0
DIMENSION
  5
1DC
100
AcDbEntity
  8
dimensions
 62
256
370
-1
 48
1.0
  6
BYLAYER
100
AcDbDimension
 10
187.7275479272146299
 20
213.6326423328684712
 30
0.0
 11
192.0
 21
211.0
 31
0.0
 70
131
 71
8
 72
2
 41
1.0
 42
0.0
  1

  3
Standard
100
AcDbDiametricDimension
 15
185.6124520727854019
 25
213.027357667131497
 35
0.0
 40
0.0
1001
ACAD
1000
DSTYLE
1002
{
1070
144
1040
1.0
1070
40
1040
1.0
1002
}
  0
DIMENSION
  5
1DD
100
AcDbEntity
  8
dimensions
 62
256
370
-1
 48
1.0
  6
BYLAYER
100
AcDbDimension
 10
214.1315474467066053
 20
220.8210706255381695
 30
0.0
 11
207.0
 21
224.0
 31
0.0
 70
131
 71
8
 72
2
 41
1.0
 42
0.0
  1

  3
Standard
100
AcDbDiametricDimension
 15
207.4684525532934174
 25
217.8389293744617987
 35
0.0
 40
0.0
1001
ACAD
1000
DSTYLE
1002
{
1070
144
1040
1.0
1070
40
1040
1.0
1002
}
  0
DIMENSION
  5
1DE
100
AcDbEntity
  8
dimensions
 62
256
370
-1
 48
1.0
  6
BYLAYER
100
AcDbDimension
 10
211.8641459652270385
 20
213.6085558556035267
 30
0.0
 11
215.0
 21
211.0
 31
0.0
 70
131
 71
8
 72
2
 41
1.0
 42
0.0
  1

  3
Standard
100
AcDbDiametricDimension
 15
209.7358540347729843
 25
213.0514441443964415
 35
0.0
 40
0.0
1001
ACAD
1000
DSTYLE
1002
{
1070
144
1040
1.0
1070
40
1040
1.0
1002
}
  0
DIMENSION
  5
1DF
100
AcDbEntity
  8
dimensions
 62
256
370
-1
 48
1.0
  6
BYLAYER
100
AcDbDimension
 10
238.2710621708469887
 20
220.7996270174895415
 30
0.0
 11
231.0
 21
224.0
 31
0.0
 70
131
 71
8
 72
2
 41
1.0
 42
0.0
  1

  3
Standard
100
AcDbDiametricDimension
 15
231.5889378291530249
 25
217.8603729825104267
 35
0.0
 40
0.0
1001
ACAD
1000
DSTYLE
1002
{
1070
144
1040
1.0
1070
40
1040
1.0
1002
}
  0
DIMENSION
  5
1E0
100
AcDbEntity
  8
dimensions
 62
256
370
-1
 48
1.0
  6
BYLAYER
100
AcDbDimension
 10
235.9743254783070086
 20
213.6755203255364961
 30
0.0
 11
239.0
 21
211.0
 31
0.0
 70
131
 71
8
 72
2
 41
1.0
 42
0.0
  1

  3
Standard
100
AcDbDiametricDimension
 15
233.8856745216930051
 25
212.9844796744634721
 35
0.0
 40
0.0
1001
ACAD
1000
DSTYLE
1002
{
1070
144
1040
1.0
1070
40
1040
1.0
1002
}
  0
DIMENSION
  5
1E1
100
AcDbEntity
  8
dimensions
 62
256
370
-1
 48
1.0
  6
BYLAYER
100
AcDbDimension
 10
253.554409715542846
 20
233.3968470570401905
 30
0.0
 11
246.0
 21
237.0
 31
0.0
 70
131
 71
8
 72
2
 41
1.0
 42
0.0
  1

  3
Standard
100
AcDbDiametricDimension
 15
246.7855902844571858
 25
230.6631529429598118
 35
0.0
 40
0.0
1001
ACAD
1000
DSTYLE
1002
{
1070
144
1040
1.0
1070
40
1040
1.0
1002
}
  0
DIMENSION
  5
1E2
100
AcDbEntity
  8
dimensions
 62
256
370
-1
 48
1.0
  6
BYLAYER
100
AcDbDimension
 10
251.2269138747870443
 20
226.3348492435330002
 30
0.0
 11
254.0
 21
224.0
 31
0.0
 70
131
 71
8
 72
2
 41
1.0
 42
0.0
  1

  3
Standard
100
AcDbDiametricDimension
 15
249.1130861252129876
 25
225.7251507564670021
 35
0.0
 40
0.0
1001
ACAD
1000
DSTYLE
1002
{
1070
144
1040
1.0
1070
40
1040
1.0
1002
}
  0
DIMENSION
  5
1E3
100
AcDbEntity
  8
dimensions
 62
256
370
-1
 48
1.0
  6
BYLAYER
100
AcDbDimension
 10
263.0500027471945828
 20
217.1087369370836768
 30
0.0
 11
265.6320755720639113
 21
220.78832309979353
 31
0.0
 70
3
 71
8
 72
2
 41
1.0
 42
0.0
  1

  3
Standard
100
AcDbDiametricDimension
 15
257.6099972528054991
 25
213.9312630629163436
 35
0.0
 40
0.0
1001
ACAD
1000
DSTYLE
1002
{
1070
144
1040
1.0
1070
40
1040
1.0
1002
}
  0
DIMENSION
  5
1E4
100
AcDbEntity
  8
dimensions
 62
256
370
-1
 48
1.0
  6
BYLAYER
100
AcDbDimension
 10
164.1423441224643796
 20
216.8131122310706189
 30
0.0
 11
167.0979655337990835
 21
220.1999627554655774
 31
0.0
 70
3
 71
8
 72
2
 41
1.0
 42
0.0
  1

  3
Standard
100
AcDbDiametricDimension
 15
158.3976558775356409
 25
214.2268877689293447
 35
0.0
 40
0.0
1001
ACAD
1000
DSTYLE
1002
{
1070
144
1040
1.0
1070
40
1040
1.0
1002
}
  0
DIMENSION
  5
1E5
100
AcDbEntity
  8
dimensions
 62
256
370
-1
 48
1.0
  6
BYLAYER
100
AcDbDimension
 10
164.2299638538494264
 20
202.6275499913716658
 30
0.0
 11
167.4275358860452627
 21
205.7869783416675205
 31
0.0
 70
3
 71
8
 72
2
 41
1.0
 42
0.0
  1

  3
Standard
100
AcDbDiametricDimension
 15
158.310036146150594
 25
200.4724500086284138
 35
0.0
 40
0.0
1001
ACAD
1000
DSTYLE
1002
{
1070
144
1040
1.0
1070
40
1040
1.0
1002
}
  0
DIMENSION
  5
1E6
100
AcDbEntity
  8
dimensions
 62
256
370
-1
 48
1.0
  6
BYLAYER
100
AcDbDimension
 10
180.6221889606183311
 20
202.9081096833979814
 30
0.0
 11
183.5000112093348434
 21
206.3613101563688872
 31
0.0
 70
3
 71
8
 72
2
 41
1.0
 42
0.0
  1

  3
Standard
100
AcDbDiametricDimension
 15
174.9378110393816712
 25
200.1918903166020982
 35
0.0
 40
0.0
1001
ACAD
1000
DSTYLE
1002
{
1070
144
1040
1.0
1070
40
1040
1.0
1002
}
  0
DIMENSION
  5
1E7
100
AcDbEntity
  8
dimensions
 62
256
370
-1
 48
1.0
  6
BYLAYER
100
AcDbDimension
 10
202.7441687804760306
 20
205.481935717215805
 30
0.0
 11
193.0
 21
207.0
 31
0.0
 70
131
 71
8
 72
2
 41
1.0
 42
0.0
  1

  3
Standard
100
AcDbDiametricDimension
 15
195.9958312195240353
 25
202.6980642827842019
 35
0.0
 40
0.0
1001
ACAD
1000
DSTYLE
1002
{
1070
144
1040
1.0
1070
40
1040
1.0
1002
}
  0
DIMENSION
  5
1E8
100
AcDbEntity
  8
dimensions
 62
256
370
-1
 48
1.0
  6
BYLAYER
100
AcDbDimension
 10
200.4116866227163882
 20
198.4433963498025264
 30
0.0
 11
205.0
 21
198.0
 31
0.0
 70
131
 71
8
 72
2
 41
1.0
 42
0.0
  1

  3
Standard
100
AcDbDiametricDimension
 15
198.3283133772836777
 25
197.7366036501974804
 35
0.0
 40
0.0
1001
ACAD
1000
DSTYLE
1002
{
1070
144
1040
1.0
1070
40
1040
1.0
1002
}
  0
DIMENSION
  5
1E9
100
AcDbEntity
  8
dimensions
 62
256
370
-1
 48
1.0
  6
BYLAYER
100
AcDbDimension
 10
225.6187006637544812
 20
205.4461739606223318
 30
0.0
 11
217.0
 21
208.0
 31
0.0
 70
131
 71
8
 72
2
 41
1.0
 42
0.0
  1

  3
Standard
100
AcDbDiametricDimension
 15
218.8412993362455552
 25
202.733826039377675
 35
0.0
 40
0.0
1001
ACAD
1000
DSTYLE
1002
{
1070
144
1040
1.0
1070
40
1040
1.0
1002
}
  0
DIMENSION
  5
1EA
100
AcDbEntity
  8
dimensions
 62
256
370
-1
 48
1.0
  6
BYLAYER
100
AcDbDimension
 10
223.2886736890998804
 20
198.3886804647239046
 30
0.0
 11
229.0
 21
198.0
 31
0.0
 70
131
 71
8
 72
2
 41
1.0
 42
0.0
  1

  3
Standard
100
AcDbDiametricDimension
 15
221.1713263109001559
 25
197.7913195352761022
 35
0.0
 40
0.0
1001
ACAD
1000
DSTYLE
1002
{
1070
144
1040
1.0
1070
40
1040
1.0
1002
}
  0
DIMENSION
  5
1EB
100
AcDbEntity
  8
dimensions
 62
256
370
-1
 48
1.0
  6
BYLAYER
100
AcDbDimension
 10
246.746683267987919
 20
202.7149141809075559
 30
0.0
 11
249.8490890365641803
 21
205.9678409936162495
 31
0.0
 70
3
 71
8
 72
2
 41
1.0
 42
0.0
  1

  3
Standard
100
AcDbDiametricDimension
 15
240.8933167320120674
 25
200.3850858190924669
 35
0.0
 40
0.0
1001
ACAD
1000
DSTYLE
1002
{
1070
144
1040
1.0
1070
40
1040
1.0
1002
}
  0
DIMENSION
  5
1EC
100
AcDbEntity
  8
dimensions
 62
256
370
-1
 48
1.0
  6
BYLAYER
100
AcDbDimension
 10
263.2868390238825782
 20
202.636095293630035
 30
0.0
 11
266.4752717701506981
 21
205.8047465878338187
 31
0.0
 70
3
 71
8
 72
2
 41
1.0
 42
0.0
  1

  3
Standard
100
AcDbDiametricDimension
 15
257.3731609761175037
 25
200.4639047063699877
 35
0.0
 40
0.0
1001
ACAD
1000
DSTYLE
1002
{
1070
144
1040
1.0
1070
40
1040
1.0
1002
}
  0
DIMENSION
  5
1ED
100
AcDbEntity
  8
dimensions
 62
256
370
-1
 48
1.0
  6
BYLAYER
100
AcDbDimension
 10
164.3055293259560301
 20
188.4214640285009921
 30
0.0
 11
167.7416345231529817
 21
191.3196764906111298
 31
0.0
 70
3
 71
8
 72
2
 41
1.0
 42
0.0
  1

  3
Standard
100
AcDbDiametricDimension
 15
158.2344706740439904
 25
186.7385359714990329
 35
0.0
 40
0.0
1001
ACAD
1000
DSTYLE
1002
{
1070
144
1040
1.0
1070
40
1040
1.0
1002
}
  0
DIMENSION
  5
1EE
100
AcDbEntity
  8
dimensions
 62
256
370
-1
 48
1.0
  6
BYLAYER
100
AcDbDimension
 10
180.7333672815504713
 20
188.6755006619200401
 30
0.0
 11
183.9116988644743742
 21
191.8542838804995654
 31
0.0
 70
3
 71
8
 72
2
 41
1.0
 42
0.0
  1

  3
Standard
100
AcDbDiametricDimension
 15
174.826632718449531
 25
186.4844993380799849
 35
0.0
 40
0.0
1001
ACAD
1000
DSTYLE
1002
{
1070
144
1040
1.0
1070
40
1040
1.0
1002
}
  0
DIMENSION
  5
1EF
100
AcDbEntity
  8
dimensions
 62
256
370
-1
 48
1.0
  6
BYLAYER
100
AcDbDimension
 10
197.3250314882838268
 20
188.4232578876747368
 30
0.0
 11
200.7594232339050677
 21
191.323500591198524
 31
0.0
 70
3
 71
8
 72
2
 41
1.0
 42
0.0
  1

  3
Standard
100
AcDbDiametricDimension
 15
191.2549685117161573
 25
186.7367421123252882
 35
0.0
 40
0.0
1001
ACAD
1000
DSTYLE
1002
{
1070
144
1040
1.0
1070
40
1040
1.0
1002
}
  0
DIMENSION
  5
1F0
100
AcDbEntity
  8
dimensions
 62
256
370
-1
 48
1.0
  6
BYLAYER
100
AcDbDimension
 10
213.7072725529268382
 20
188.7925453818304504
 30
0.0
 11
216.7561513894968357
 21
192.0956942191749022
 31
0.0
 70
3
 71
8
 72
2
 41
1.0
 42
0.0
  1

  3
Standard
100
AcDbDiametricDimension
 15
207.8927274470731845
 25
186.3674546181695177
 35
0.0
 40
0.0
1001
ACAD
1000
DSTYLE
1002
{
1070
144
1040
1.0
1070
40
1040
1.0
1002
}
  0
DIMENSION
  5
1F1
100
AcDbEntity
  8
dimensions
 62
256
370
-1
 48
1.0
  6
BYLAYER
100
AcDbDimension
 10
230.2564221915694702
 20
188.6940450031426053
 30
0.0
 11
233.414707934429515
 21
191.8927456093546198
 31
0.0
 70
3
 71
8
 72
2
 41
1.0
 42
0.0
  1

  3
Standard
100
AcDbDiametricDimension
 15
224.3635778084305343
 25
186.4659549968573629
 35
0.0
 40
0.0
1001
ACAD
1000
DSTYLE
1002
{
1070
144
1040
1.0
1070
40
1040
1.0
1002
}
  0
DIMENSION
  5
1F2
100
AcDbEntity
  8
dimensions
 62
256
370
-1
 48
1.0
  6
BYLAYER
100
AcDbDimension
 10
246.7531345667559037
 20
188.7285737300241522
 30
0.0
 11
249.873633905768088
 21
191.9641476013735542
 31
0.0
 70
3
 71
8
 72
2
 41
1.0
 42
0.0
  1

  3
Standard
100
AcDbDiametricDimension
 15
240.8868654332440826
 25
186.431426269975816
 35
0.0
 40
0.0
1001
ACAD
1000
DSTYLE
1002
{
1070
144
1040
1.0
1070
40
1040
1.0
1002
}
  0
DIMENSION
  5
1F3
100
AcDbEntity
  8
dimensions
 62
256
370
-1
 48
1.0
  6
BYLAYER
100
AcDbDimension
 10
263.2911262287254885
 20
188.6543516452047413
 30
0.0
 11
266.492109598449872
 21
191.8103237408485029
 31
0.0
 70
3
 71
8
 72
2
 41
1.0
 42
0.0
  1

  3
Standard
100
AcDbDiametricDimension
 15
257.3688737712745933
 25
186.5056483547952553
 35
0.0
 40
0.0
1001
ACAD
1000
DSTYLE
1002
{
1070
144
1040
1.0
1070
40
1040
1.0
1002
}
  0
DIMENSION
  5
1F4
100
AcDbEntity
  8
dimensions
 62
256
370
-1
 48
1.0
  6
BYLAYER
100
AcDbDimension
 10
164.2736584474773167
 20
174.558965716397779
 30
0.0
 11
167.604439116650326
 21
177.577633391978793
 31
0.0
 70
3
 71
8
 72
2
 41
1.0
 42
0.0
  1

  3
Standard
100
AcDbDiametricDimension
 15
158.2663415525227038
 25
172.6610342836022483
 35
0.0
 40
0.0
1001
ACAD
1000
DSTYLE
1002
{
1070
144
1040
1.0
1070
40
1040
1.0
1002
}
  0
DIMENSION
  5
1F5
100
AcDbEntity
  8
dimensions
 62
256
370
-1
 48
1.0
  6
BYLAYER
100
AcDbDimension
 10
180.7953717681779153
 20
174.5210615235403964
 30
0.0
 11
184.1639062291025652
 21
177.4975409854714883
 31
0.0
 70
3
 71
8
 72
2
 41
1.0
 42
0.0
  1

  3
Standard
100
AcDbDiametricDimension
 15
174.7646282318220869
 25
172.6989384764596309
 35
0.0
 40
0.0
1001
ACAD
1000
DSTYLE
1002
{
1070
144
1040
1.0
1070
40
1040
1.0
1002
}
  0
DIMENSION
  5
1F6
100
AcDbEntity
  8
dimensions
 62
256
370
-1
 48
1.0
  6
BYLAYER
100
AcDbDimension
 10
197.2931490393950185
 20
174.560576586699284
 30
0.0
 11
200.6223101725180129
 21
177.5810302863009724
 31
0.0
 70
3
 71
8
 72
2
 41
1.0
 42
0.0
  1

  3
Standard
100
AcDbDiametricDimension
 15
191.2868509606049656
 25
172.6594234133007433
 35
0.0
 40
0.0
1001
ACAD
1000
DSTYLE
1002
{
1070
144
1040
1.0
1070
40
1040
1.0
1002
}
  0
DIMENSION
  5
1F7
100
AcDbEntity
  8
dimensions
 62
256
370
-1
 48
1.0
  6
BYLAYER
100
AcDbDimension
 10
213.7892304103040715
 20
174.6034795187187285
 30
0.0
 11
217.0748021029203869
 21
177.6712919403658759
 31
0.0
 70
3
 71
8
 72
2
 41
1.0
 42
0.0
  1

  3
Standard
100
AcDbDiametricDimension
 15
207.8107695896959513
 25
172.6165204812813556
 35
0.0
 40
0.0
1001
ACAD
1000
DSTYLE
1002
{
1070
144
1040
1.0
1070
40
1040
1.0
1002
}
  0
DIMENSION
  5
1F8
100
AcDbEntity
  8
dimensions
 62
256
370
-1
 48
1.0
  6
BYLAYER
100
AcDbDimension
 10
230.2832973060464496
 20
174.6501937943754115
 30
0.0
 11
233.5203981965484274
 21
177.7691090267030916
 31
0.0
 70
3
 71
8
 72
2
 41
1.0
 42
0.0
  1

  3
Standard
100
AcDbDiametricDimension
 15
224.3367026939535549
 25
172.5698062056246727
 35
0.0
 40
0.0
1001
ACAD
1000
DSTYLE
1002
{
1070
144
1040
1.0
1070
40
1040
1.0
1002
}
  0
DIMENSION
  5
1F9
100
AcDbEntity
  8
dimensions
 62
256
370
-1
 48
1.0
  6
BYLAYER
100
AcDbDimension
 10
246.75205842480608
 20
174.7613181113505334
 30
0.0
 11
249.8695284845822471
 21
177.9998107897633588
 31
0.0
 70
3
 71
8
 72
2
 41
1.0
 42
0.0
  1

  3
Standard
100
AcDbDiametricDimension
 15
240.8879415751939064
 25
172.4586818886495507
 35
0.0
 40
0.0
1001
ACAD
1000
DSTYLE
1002
{
1070
144
1040
1.0
1070
40
1040
1.0
1002
}
  0
DIMENSION
  5
1FA
100
AcDbEntity
  8
dimensions
 62
256
370
-1
 48
1.0
  6
BYLAYER
100
AcDbDimension
 10
263.3026262618754458
 20
174.6521099304816858
 30
0.0
 11
266.5377162740695098
 21
177.7731108940727722
 31
0.0
 70
3
 71
8
 72
2
 41
1.0
 42
0.0
  1

  3
Standard
100
AcDbDiametricDimension
 15
257.357373738124636
 25
172.5678900695183984
 35
0.0
 40
0.0
1001
ACAD
1000
DSTYLE
1002
{
1070
144
1040
1.0
1070
40
1040
1.0
1002
}
  0
DIMENSION
  5
1FB
100
AcDbEntity
  8
dimensions
 62
256
370
-1
 48
1.0
  6
BYLAYER
100
AcDbDimension
 10
158.0051040729960334
 20
165.3023390447889085
 30
0.0
 11
161.6119821211818817
 21
167.9850401364592472
 31
0.0
 70
3
 71
8
 72
2
 41
1.0
 42
0.0
  1

  3
Standard
100
AcDbDiametricDimension
 15
154.874895927003962
 25
164.6376609552110892
 35
0.0
 40
0.0
1001
ACAD
1000
DSTYLE
1002
{
1070
144
1040
1.0
1070
40
1040
1.0
1002
}
  0
DIMENSION
  5
1FC
100
AcDbEntity
  8
dimensions
 62
256
370
-1
 48
1.0
  6
BYLAYER
100
AcDbDimension
 10
159.0257322642146107
 20
153.4818101886993418
 30
0.0
 11
162.3569168107545124
 21
156.5000321683801303
 31
0.0
 70
3
 71
8
 72
2
 41
1.0
 42
0.0
  1

  3
Standard
100
AcDbDiametricDimension
 15
155.9742677357853893
 25
152.5181898113006582
 35
0.0
 40
0.0
1001
ACAD
1000
DSTYLE
1002
{
1070
144
1040
1.0
1070
40
1040
1.0
1002
}
  0
DIMENSION
  5
1FD
100
AcDbEntity
  8
dimensions
 62
256
370
-1
 48
1.0
  6
BYLAYER
100
AcDbDimension
 10
266.6354759372705416
 20
165.588846312532894
 30
0.0
 11
268.0
 21
169.0
 31
0.0
 70
131
 71
8
 72
2
 41
1.0
 42
0.0
  1

  3
Standard
100
AcDbDiametricDimension
 15
263.6845240627293947
 25
164.3511536874671037
 35
0.0
 40
0.0
1001
ACAD
1000
DSTYLE
1002
{
1070
144
1040
1.0
1070
40
1040
1.0
1002
}
  0
DIMENSION
  5
1FE
100
AcDbEntity
  8
dimensions
 62
256
370
-1
 48
1.0
  6
BYLAYER
100
AcDbDimension
 10
265.6578285831355402
 20
153.613206880969102
 30
0.0
 11
267.0
 21
158.0
 31
0.0
 70
131
 71
8
 72
2
 41
1.0
 42
0.0
  1

  3
Standard
100
AcDbDiametricDimension
 15
262.7021714168645872
 25
152.386793119030898
 35
0.0
 40
0.0
1001
ACAD
1000
DSTYLE
1002
{
1070
144
1040
1.0
1070
40
1040
1.0
1002
}
  0
ENDSEC
  0
SECTION
  2
OBJECTS
  0
DICTIONARY
  5
C
100
AcDbDictionary
280
0
281
1
  3
ACAD_GROUP
350
D
  3
ACAD_LAYOUT
350
1A
  3
ACAD_MLINESTYLE
350
17
  3
ACAD_PLOTSETTINGS
350
19
  3
ACAD_PLOTSTYLENAME
350
E
  3
AcDbVariableDictionary
350
1FF
  3
QCAD_OBJECTS
350
200
  0
DICTIONARY
  5
D
100
AcDbDictionary
280
0
281
1
  0
ACDBDICTIONARYWDFLT
  5
E
100
AcDbDictionary
281
1
  3
Normal
350
F
100
AcDbDictionaryWithDefault
340
F
  0
ACDBPLACEHOLDER
  5
F
  0
DICTIONARY
  5
17
100
AcDbDictionary
280
0
281
1
  3
Standard
350
18
  0
MLINESTYLE
  5
18
100
AcDbMlineStyle
  2
STANDARD
 70
0
  3

 62
256
 51
90.0
 52
90.0
 71
2
 49
0.5
 62
256
  6
BYLAYER
 49
-0.5
 62
256
  6
BYLAYER
  0
DICTIONARY
  5
19
100
AcDbDictionary
280
0
281
1
  0
DICTIONARY
  5
1A
100
AcDbDictionary
281
1
  3
Layout1
350
1E
  3
Layout2
350
26
  3
Model
350
22
  0
LAYOUT
  5
1E
100
AcDbPlotSettings
  1

  2
none_device
  4

  6

 40
0.0
 41
0.0
 42
0.0
 43
0.0
 44
0.0
 45
0.0
 46
0.0
 47
0.0
 48
0.0
 49
0.0
140
0.0
141
0.0
142
1.0
143
1.0
 70
688
 72
0
 73
0
 74
5
  7

 75
16
147
1.0
148
0.0
149
0.0
100
AcDbLayout
  1
Layout1
 70
1
 71
1
 10
0.0
 20
0.0
 11
420.0
 21
297.0
 12
0.0
 22
0.0
 32
0.0
 14
100000000000000000000.0
 24
100000000000000000000.0
 34
100000000000000000000.0
 15
-100000000000000000000.0
 25
-100000000000000000000.0
 35
-100000000000000000000.0
146
0.0
 13
0.0
 23
0.0
 33
0.0
 16
1.0
 26
0.0
 36
0.0
 17
0.0
 27
1.0
 37
0.0
 76
0
330
1B
  0
LAYOUT
  5
22
100
AcDbPlotSettings
  1

  2
none_device
  4

  6

 40
0.0
 41
0.0
 42
0.0
 43
0.0
 44
0.0
 45
0.0
 46
0.0
 47
0.0
 48
0.0
 49
0.0
140
0.0
141
0.0
142
1.0
143
1.0
 70
1712
 72
0
 73
0
 74
0
  7

 75
0
147
1.0
148
0.0
149
0.0
100
AcDbLayout
  1
Model
 70
1
 71
0
 10
0.0
 20
0.0
 11
12.0
 21
9.0
 12
0.0
 22
0.0
 32
0.0
 14
0.0
 24
0.0
 34
0.0
 15
0.0
 25
0.0
 35
0.0
146
0.0
 13
0.0
 23
0.0
 33
0.0
 16
1.0
 26
0.0
 36
0.0
 17
0.0
 27
1.0
 37
0.0
 76
0
330
1F
  0
LAYOUT
  5
26
100
AcDbPlotSettings
  1

  2
none_device
  4

  6

 40
0.0
 41
0.0
 42
0.0
 43
0.0
 44
0.0
 45
0.0
 46
0.0
 47
0.0
 48
0.0
 49
0.0
140
0.0
141
0.0
142
1.0
143
1.0
 70
688
 72
0
 73
0
 74
5
  7

 75
16
147
1.0
148
0.0
149
0.0
100
AcDbLayout
  1
Layout2
 70
1
 71
2
 10
0.0
 20
0.0
 11
12.0
 21
9.0
 12
0.0
 22
0.0
 32
0.0
 14
0.0
 24
0.0
 34
0.0
 15
0.0
 25
0.0
 35
0.0
146
0.0
 13
0.0
 23
0.0
 33
0.0
 16
1.0
 26
0.0
 36
0.0
 17
0.0
 27
1.0
 37
0.0
 76
0
330
23
  0
DICTIONARY
  5
1FF
100
AcDbDictionary
281
1
  3
DIMASSOC
350
202
  3
HIDETEXT
350
201
  0
DICTIONARYVAR
  5
201
100
DictionaryVariables
280
0
  1
2
  0
DICTIONARYVAR
  5
202
100
DictionaryVariables
280
0
  1
1
  0
DICTIONARY
  5
200
100
AcDbDictionary
281
1
  3
ColorSettings/BackgroundColor
350
203
  3
ColorSettings/ColorMode
350
204
  3
DimensionSettings/AngularFormat
350
205
  3
DimensionSettings/AngularPrecision
350
206
  3
DimensionSettings/DimensionFont
350
207
  3
DimensionSettings/KeepProportions
350
208
  3
DimensionSettings/LinearFormat
350
209
  3
DimensionSettings/LinearPrecision
350
20A
  3
Grid/DisplayGrid00
350
20B
  3
Grid/DisplayGrid01
350
20C
  3
Grid/DisplayGrid02
350
20D
  3
Grid/DisplayGrid03
350
20E
  3
Grid/GridSpacingX00
350
20F
  3
Grid/GridSpacingX01
350
210
  3
Grid/GridSpacingX02
350
211
  3
Grid/GridSpacingX03
350
212
  3
Grid/GridSpacingY00
350
213
  3
Grid/GridSpacingY01
350
214
  3
Grid/GridSpacingY02
350
215
  3
Grid/GridSpacingY03
350
216
  3
Grid/IsometricGrid00
350
217
  3
Grid/IsometricGrid01
350
218
  3
Grid/IsometricGrid02
350
219
  3
Grid/IsometricGrid03
350
21A
  3
Grid/IsometricProjection00
350
21B
  3
Grid/IsometricProjection01
350
21C
  3
Grid/IsometricProjection02
350
21D
  3
Grid/IsometricProjection03
350
21E
  3
Grid/MetaGridSpacingX00
350
21F
  3
Grid/MetaGridSpacingX01
350
220
  3
Grid/MetaGridSpacingX02
350
221
  3
Grid/MetaGridSpacingX03
350
222
  3
Grid/MetaGridSpacingY00
350
223
  3
Grid/MetaGridSpacingY01
350
224
  3
Grid/MetaGridSpacingY02
350
225
  3
Grid/MetaGridSpacingY03
350
226
  3
MultiPageSettings/Columns
350
227
  3
MultiPageSettings/GlueMarginsBottom
350
228
  3
MultiPageSettings/GlueMarginsLeft
350
229
  3
MultiPageSettings/GlueMarginsRight
350
22A
  3
MultiPageSettings/GlueMarginsTop
350
22B
  3
MultiPageSettings/PrintCropMarks
350
22C
  3
MultiPageSettings/Rows
350
22D
  3
PageSettings/OffsetX
350
22E
  3
PageSettings/OffsetY
350
22F
  3
PageSettings/PageOrientation
350
230
  3
PageSettings/PaperHeight
350
231
  3
PageSettings/PaperSizeName
350
232
  3
PageSettings/PaperWidth
350
233
  3
PageSettings/Scale
350
234
  3
PageSettings/ShowPaperBorders
350
235
  3
QCADVersion
350
236
  3
UnitSettings/PaperUnit
350
237
  3
ViewportCenter
350
238
  3
ViewportHeight
350
239
  3
ViewportWidth
350
23A
  0
XRECORD
  5
203
330
200
100
AcDbXrecord
280
1
1000
White
  0
XRECORD
  5
204
330
200
100
AcDbXrecord
280
1
1000
FullColor
  0
XRECORD
  5
205
330
200
100
AcDbXrecord
280
1
 90
0
  0
XRECORD
  5
206
330
200
100
AcDbXrecord
280
1
 90
0
  0
XRECORD
  5
207
330
200
100
AcDbXrecord
280
1
1000
DejaVu Sans
  0
XRECORD
  5
208
330
200
100
AcDbXrecord
280
1
290
1
  0
XRECORD
  5
209
330
200
100
AcDbXrecord
280
1
 90
2
  0
XRECORD
  5
20A
330
200
100
AcDbXrecord
280
1
 90
2
  0
XRECORD
  5
20B
330
200
100
AcDbXrecord
280
1
290
0
  0
XRECORD
  5
20C
330
200
100
AcDbXrecord
280
1
290
1
  0
XRECORD
  5
20D
330
200
100
AcDbXrecord
280
1
290
1
  0
XRECORD
  5
20E
330
200
100
AcDbXrecord
280
1
290
1
  0
XRECORD
  5
20F
330
200
100
AcDbXrecord
280
1
1000
1
  0
XRECORD
  5
210
330
200
100
AcDbXrecord
280
1
1000
auto
  0
XRECORD
  5
211
330
200
100
AcDbXrecord
280
1
1000
auto
  0
XRECORD
  5
212
330
200
100
AcDbXrecord
280
1
1000
auto
  0
XRECORD
  5
213
330
200
100
AcDbXrecord
280
1
1000
1
  0
XRECORD
  5
214
330
200
100
AcDbXrecord
280
1
1000
auto
  0
XRECORD
  5
215
330
200
100
AcDbXrecord
280
1
1000
auto
  0
XRECORD
  5
216
330
200
100
AcDbXrecord
280
1
1000
auto
  0
XRECORD
  5
217
330
200
100
AcDbXrecord
280
1
290
0
  0
XRECORD
  5
218
330
200
100
AcDbXrecord
280
1
290
0
  0
XRECORD
  5
219
330
200
100
AcDbXrecord
280
1
290
0
  0
XRECORD
  5
21A
330
200
100
AcDbXrecord
280
1
290
0
  0
XRECORD
  5
21B
330
200
100
AcDbXrecord
280
1
 90
0
  0
XRECORD
  5
21C
330
200
100
AcDbXrecord
280
1
 90
0
  0
XRECORD
  5
21D
330
200
100
AcDbXrecord
280
1
 90
0
  0
XRECORD
  5
21E
330
200
100
AcDbXrecord
280
1
 90
0
  0
XRECORD
  5
21F
330
200
100
AcDbXrecord
280
1
1000
10
  0
XRECORD
  5
220
330
200
100
AcDbXrecord
280
1
1000
auto
  0
XRECORD
  5
221
330
200
100
AcDbXrecord
280
1
1000
auto
  0
XRECORD
  5
222
330
200
100
AcDbXrecord
280
1
1000
auto
  0
XRECORD
  5
223
330
200
100
AcDbXrecord
280
1
1000
10
  0
XRECORD
  5
224
330
200
100
AcDbXrecord
280
1
1000
auto
  0
XRECORD
  5
225
330
200
100
AcDbXrecord
280
1
1000
auto
  0
XRECORD
  5
226
330
200
100
AcDbXrecord
280
1
1000
auto
  0
XRECORD
  5
227
330
200
100
AcDbXrecord
280
1
 90
1
  0
XRECORD
  5
228
330
200
100
AcDbXrecord
280
1
 40
10.0
  0
XRECORD
  5
229
330
200
100
AcDbXrecord
280
1
 40
10.0
  0
XRECORD
  5
22A
330
200
100
AcDbXrecord
280
1
 40
10.0
  0
XRECORD
  5
22B
330
200
100
AcDbXrecord
280
1
 40
10.0
  0
XRECORD
  5
22C
330
200
100
AcDbXrecord
280
1
290
0
  0
XRECORD
  5
22D
330
200
100
AcDbXrecord
280
1
 90
1
  0
XRECORD
  5
22E
330
200
100
AcDbXrecord
280
1
 40
0.0
  0
XRECORD
  5
22F
330
200
100
AcDbXrecord
280
1
 40
0.0
  0
XRECORD
  5
230
330
200
100
AcDbXrecord
280
1
1000
Landscape
  0
XRECORD
  5
231
330
200
100
AcDbXrecord
280
1
1000
594
  0
XRECORD
  5
232
330
200
100
AcDbXrecord
280
1
1000
ISO A2
  0
XRECORD
  5
233
330
200
100
AcDbXrecord
280
1
1000
420
  0
XRECORD
  5
234
330
200
100
AcDbXrecord
280
1
1000
1:1
  0
XRECORD
  5
235
330
200
100
AcDbXrecord
280
1
290
1
  0
XRECORD
  5
236
330
200
100
AcDbXrecord
280
1
1000
3.15.5
  0
XRECORD
  5
237
330
200
100
AcDbXrecord
280
1
 90
4
  0
XRECORD
  5
239
330
200
100
AcDbXrecord
280
1
 40
650.8155789473682944
  0
XRECORD
  5
23A
330
200
100
AcDbXrecord
280
1
 40
1457.2807578947365528
  0
ENDSEC
  0
EOF
