999
dxflib 3.12.2.0
  0
SECTION
  2
HEADER
  9
$ACADVER
  1
AC1015
  9
$HANDSEED
  5
FFFF
  9
$DIMADEC
 70
0
  9
$DIMASZ
 40
2.5
  9
$DIMAUNIT
 70
0
  9
$DIMAZIN
 70
2
  9
$DIMDEC
 70
2
  9
$DIMEXE
 40
1.25
  9
$DIMEXO
 40
0.625
  9
$DIMGAP
 40
0.625
  9
$DIMLUNIT
 70
2
  9
$DIMSCALE
 40
1.0
  9
$DIMTSZ
 40
0.0
  9
$DIMTXT
 40
2.5
  9
$DIMZIN
 70
0
  9
$DWGCODEPAGE
  3
ANSI_1252
  9
$INSUNITS
 70
4
  9
$LTSCALE
 40
1.0
  9
$MEASUREMENT
 70
1
  9
$PDMODE
 70
0
  9
$PDSIZE
 40
0
  0
ENDSEC
  0
SECTION
  2
TABLES
  0
TABLE
  2
VPORT
  5
8
100
AcDbSymbolTable
 70
1
  0
VPORT
  5
30
100
AcDbSymbolTableRecord
100
AcDbViewportTableRecord
  2
*Active
 70
0
 10
0.0
 20
0.0
 11
1.0
 21
1.0
 12
286.3055555555554861
 22
148.5
 13
0.0
 23
0.0
 14
10.0
 24
10.0
 15
10.0
 25
10.0
 16
0.0
 26
0.0
 36
1.0
 17
0.0
 27
0.0
 37
0.0
 40
297.0
 41
1.92798353909465
 42
50.0
 43
0.0
 44
0.0
 50
0.0
 51
0.0
 71
0
 72
100
 73
1
 74
3
 75
1
 76
1
 77
0
 78
0
281
0
 65
1
110
0.0
120
0.0
130
0.0
111
1.0
121
0.0
131
0.0
112
0.0
122
1.0
132
0.0
 79
0
146
0.0
  0
ENDTAB
  0
TABLE
  2
LTYPE
  5
5
100
AcDbSymbolTable
 70
41
  0
LTYPE
  5
16
100
AcDbSymbolTableRecord
100
AcDbLinetypeTableRecord
  2
Continuous
 70
0
  3
Solid line
 72
65
 73
0
 40
0.0
  0
LTYPE
  5
31
100
AcDbSymbolTableRecord
100
AcDbLinetypeTableRecord
  2
ACAD_ISO15W100
 70
0
  3
ISO double-dash triple-dot __ __ . . . __ __ . .
 72
65
 73
10
 40
39.0
 49
12.0
 74
0
 49
-3.0
 74
0
 49
12.0
 74
0
 49
-2.9500000000000002
 74
0
 49
0.1
 74
0
 49
-2.9000000000000004
 74
0
 49
0.1
 74
0
 49
-2.9000000000000004
 74
0
 49
0.1
 74
0
 49
-2.9500000000000002
 74
0
  0
LTYPE
  5
32
100
AcDbSymbolTableRecord
100
AcDbLinetypeTableRecord
  2
DIVIDE
 70
0
  3
Divide ____ . . ____ . . ____ . . ____ . . ____
 72
65
 73
6
 40
31.75
 49
12.6999999999999993
 74
0
 49
-6.2999999999999998
 74
0
 49
0.1
 74
0
 49
-6.25
 74
0
 49
0.1
 74
0
 49
-6.2999999999999998
 74
0
  0
LTYPE
  5
33
100
AcDbSymbolTableRecord
100
AcDbLinetypeTableRecord
  2
ACAD_ISO10W100
 70
0
  3
ISO dash dot __ . __ . __ . __ . __ . __ . __ . 
 72
65
 73
4
 40
18.0
 49
12.0
 74
0
 49
-2.9500000000000002
 74
0
 49
0.1
 74
0
 49
-2.9500000000000002
 74
0
  0
LTYPE
  5
34
100
AcDbSymbolTableRecord
100
AcDbLinetypeTableRecord
  2
ACAD_ISO04W100
 70
0
  3
ISO long-dash dot ____ . ____ . ____ . ____ . _
 72
65
 73
4
 40
30.0
 49
24.0
 74
0
 49
-2.9500000000000002
 74
0
 49
0.1
 74
0
 49
-2.9500000000000002
 74
0
  0
LTYPE
  5
35
100
AcDbSymbolTableRecord
100
AcDbLinetypeTableRecord
  2
CENTER2
 70
0
  3
Center (.5x) ___ _ ___ _ ___ _ ___ _ ___ _ ___
 72
65
 73
4
 40
28.5749999999999993
 49
19.0500000000000007
 74
0
 49
-3.1749999999999998
 74
0
 49
3.1749999999999998
 74
0
 49
-3.1749999999999998
 74
0
  0
LTYPE
  5
36
100
AcDbSymbolTableRecord
100
AcDbLinetypeTableRecord
  2
ACAD_ISO11W100
 70
0
  3
ISO double-dash dot __ __ . __ __ . __ __ . __ _
 72
65
 73
6
 40
33.0
 49
12.0
 74
0
 49
-3.0
 74
0
 49
12.0
 74
0
 49
-2.9500000000000002
 74
0
 49
0.1
 74
0
 49
-2.9500000000000002
 74
0
  0
LTYPE
  5
37
100
AcDbSymbolTableRecord
100
AcDbLinetypeTableRecord
  2
HIDDEN2
 70
0
  3
Hidden (.5x) _ _ _ _ _ _ _ _ _ _ _ _ _ _ _ _ _ 
 72
65
 73
2
 40
4.7624999999999993
 49
3.1749999999999998
 74
0
 49
-1.5874999999999999
 74
0
  0
LTYPE
  5
38
100
AcDbSymbolTableRecord
100
AcDbLinetypeTableRecord
  2
BORDERX2
 70
0
  3
Border (2x) ____  ____  .  ____  ____  .  ___
 72
65
 73
6
 40
88.8999999999999915
 49
25.3999999999999986
 74
0
 49
-12.6999999999999993
 74
0
 49
25.3999999999999986
 74
0
 49
-12.6499999999999986
 74
0
 49
0.1
 74
0
 49
-12.6499999999999986
 74
0
  0
LTYPE
  5
39
100
AcDbSymbolTableRecord
100
AcDbLinetypeTableRecord
  2
ACAD_ISO05W100
 70
0
  3
ISO long-dash double-dot ____ .. ____ .. ____ . 
 72
65
 73
6
 40
33.0
 49
24.0
 74
0
 49
-2.9500000000000002
 74
0
 49
0.1
 74
0
 49
-2.9000000000000004
 74
0
 49
0.1
 74
0
 49
-2.9500000000000002
 74
0
  0
LTYPE
  5
3A
100
AcDbSymbolTableRecord
100
AcDbLinetypeTableRecord
  2
DASHDOTX2
 70
0
  3
Dash dot (2x) ____  .  ____  .  ____  .  ___
 72
65
 73
4
 40
50.7999999999999972
 49
25.3999999999999986
 74
0
 49
-12.6499999999999986
 74
0
 49
0.1
 74
0
 49
-12.6499999999999986
 74
0
  0
LTYPE
  5
3B
100
AcDbSymbolTableRecord
100
AcDbLinetypeTableRecord
  2
HIDDENX2
 70
0
  3
Hidden (2x) ____ ____ ____ ____ ____ ____ ____ 
 72
65
 73
2
 40
19.0499999999999972
 49
12.6999999999999993
 74
0
 49
-6.3499999999999996
 74
0
  0
LTYPE
  5
3C
100
AcDbSymbolTableRecord
100
AcDbLinetypeTableRecord
  2
CENTERX2
 70
0
  3
Center (2x) ________  __  ________  __  _____
 72
65
 73
4
 40
101.5999999999999943
 49
63.5
 74
0
 49
-12.6999999999999993
 74
0
 49
12.6999999999999993
 74
0
 49
-12.6999999999999993
 74
0
  0
LTYPE
  5
3D
100
AcDbSymbolTableRecord
100
AcDbLinetypeTableRecord
  2
BORDER2
 70
0
  3
Border (.5x) __.__.__.__.__.__.__.__.__.__.__.
 72
65
 73
6
 40
22.2249999999999979
 49
6.3499999999999996
 74
0
 49
-3.1749999999999998
 74
0
 49
6.3499999999999996
 74
0
 49
-3.125
 74
0
 49
0.1
 74
0
 49
-3.125
 74
0
  0
LTYPE
  5
3E
100
AcDbSymbolTableRecord
100
AcDbLinetypeTableRecord
  2
DASHDOT2
 70
0
  3
Dash dot (.5x) _._._._._._._._._._._._._._._.
 72
65
 73
4
 40
12.6999999999999993
 49
6.3499999999999996
 74
0
 49
-3.125
 74
0
 49
0.1
 74
0
 49
-3.125
 74
0
  0
LTYPE
  5
3F
100
AcDbSymbolTableRecord
100
AcDbLinetypeTableRecord
  2
ACAD_ISO12W100
 70
0
  3
ISO dash double-dot __ . . __ . . __ . . __ . . 
 72
65
 73
6
 40
21.0
 49
12.0
 74
0
 49
-2.9500000000000002
 74
0
 49
0.1
 74
0
 49
-2.9000000000000004
 74
0
 49
0.1
 74
0
 49
-2.9500000000000002
 74
0
  0
LTYPE
  5
40
100
AcDbSymbolTableRecord
100
AcDbLinetypeTableRecord
  2
ACAD_ISO07W100
 70
0
  3
ISO dot . . . . . . . . . . . . . . . . . . . . 
 72
65
 73
2
 40
3.0
 49
0.1
 74
0
 49
-2.8999999999999999
 74
0
  0
LTYPE
  5
41
100
AcDbSymbolTableRecord
100
AcDbLinetypeTableRecord
  2
HIDDEN
 70
0
  3
Hidden __ __ __ __ __ __ __ __ __ __ __ __ __ __
 72
65
 73
2
 40
9.5249999999999986
 49
6.3499999999999996
 74
0
 49
-3.1749999999999998
 74
0
  0
LTYPE
  5
42
100
AcDbSymbolTableRecord
100
AcDbLinetypeTableRecord
  2
ACAD_ISO06W100
 70
0
  3
ISO long-dash triple-dot ____ ... ____ ... ____
 72
65
 73
8
 40
36.0
 49
24.0
 74
0
 49
-2.9500000000000002
 74
0
 49
0.1
 74
0
 49
-2.9000000000000004
 74
0
 49
0.1
 74
0
 49
-2.9000000000000004
 74
0
 49
0.1
 74
0
 49
-2.9500000000000002
 74
0
  0
LTYPE
  5
43
100
AcDbSymbolTableRecord
100
AcDbLinetypeTableRecord
  2
CENTER
 70
0
  3
Center ____ _ ____ _ ____ _ ____ _ ____ _ ____
 72
65
 73
4
 40
50.7999999999999972
 49
31.75
 74
0
 49
-6.3499999999999996
 74
0
 49
6.3499999999999996
 74
0
 49
-6.3499999999999996
 74
0
  0
LTYPE
  5
44
100
AcDbSymbolTableRecord
100
AcDbLinetypeTableRecord
  2
DOTX2
 70
0
  3
Dot (2x) .  .  .  .  .  .  .  .  .  .  .  .  .  .
 72
65
 73
2
 40
12.6999999999999993
 49
0.1
 74
0
 49
-12.5999999999999996
 74
0
  0
LTYPE
  5
45
100
AcDbSymbolTableRecord
100
AcDbLinetypeTableRecord
  2
PHANTOM
 70
0
  3
Phantom ______  __  __  ______  __  __  ______ 
 72
65
 73
6
 40
63.5
 49
31.75
 74
0
 49
-6.3499999999999996
 74
0
 49
6.3499999999999996
 74
0
 49
-6.3499999999999996
 74
0
 49
6.3499999999999996
 74
0
 49
-6.3499999999999996
 74
0
  0
LTYPE
  5
46
100
AcDbSymbolTableRecord
100
AcDbLinetypeTableRecord
  2
ACAD_ISO08W100
 70
0
  3
ISO long-dash short-dash ____ __ ____ __ ____ _
 72
65
 73
4
 40
36.0
 49
24.0
 74
0
 49
-3.0
 74
0
 49
6.0
 74
0
 49
-3.0
 74
0
  0
LTYPE
  5
47
100
AcDbSymbolTableRecord
100
AcDbLinetypeTableRecord
  2
DASHEDX2
 70
0
  3
Dashed (2x) ____  ____  ____  ____  ____  ___
 72
65
 73
2
 40
38.0999999999999943
 49
25.3999999999999986
 74
0
 49
-12.6999999999999993
 74
0
  0
LTYPE
  5
48
100
AcDbSymbolTableRecord
100
AcDbLinetypeTableRecord
  2
ACAD_ISO02W100
 70
0
  3
ISO dash __ __ __ __ __ __ __ __ __ __ __ __ __
 72
65
 73
2
 40
15.0
 49
12.0
 74
0
 49
-3.0
 74
0
  0
LTYPE
  5
49
100
AcDbSymbolTableRecord
100
AcDbLinetypeTableRecord
  2
PHANTOM2
 70
0
  3
Phantom (.5x) ___ _ _ ___ _ _ ___ _ _ ___ _ _
 72
65
 73
6
 40
31.75
 49
15.875
 74
0
 49
-3.1749999999999998
 74
0
 49
3.1749999999999998
 74
0
 49
-3.1749999999999998
 74
0
 49
3.1749999999999998
 74
0
 49
-3.1749999999999998
 74
0
  0
LTYPE
  5
4A
100
AcDbSymbolTableRecord
100
AcDbLinetypeTableRecord
  2
DASHED2
 70
0
  3
Dashed (.5x) _ _ _ _ _ _ _ _ _ _ _ _ _ _ _ _ _ 
 72
65
 73
2
 40
9.5249999999999986
 49
6.3499999999999996
 74
0
 49
-3.1749999999999998
 74
0
  0
LTYPE
  5
4B
100
AcDbSymbolTableRecord
100
AcDbLinetypeTableRecord
  2
ACAD_ISO09W100
 70
0
  3
ISO long-dash double-short-dash ____ __ __ ____
 72
65
 73
6
 40
45.0
 49
24.0
 74
0
 49
-3.0
 74
0
 49
6.0
 74
0
 49
-3.0
 74
0
 49
6.0
 74
0
 49
-3.0
 74
0
  0
LTYPE
  5
4C
100
AcDbSymbolTableRecord
100
AcDbLinetypeTableRecord
  2
ACAD_ISO13W100
 70
0
  3
ISO double-dash double-dot __ __ . . __ __ . . _
 72
65
 73
8
 40
36.0
 49
12.0
 74
0
 49
-3.0
 74
0
 49
12.0
 74
0
 49
-2.9500000000000002
 74
0
 49
0.1
 74
0
 49
-2.9000000000000004
 74
0
 49
0.1
 74
0
 49
-2.9500000000000002
 74
0
  0
LTYPE
  5
4D
100
AcDbSymbolTableRecord
100
AcDbLinetypeTableRecord
  2
DOT2
 70
0
  3
Dot (.5x) ........................................
 72
65
 73
2
 40
3.1749999999999998
 49
0.1
 74
0
 49
-3.0749999999999997
 74
0
  0
LTYPE
  5
4E
100
AcDbSymbolTableRecord
100
AcDbLinetypeTableRecord
  2
DASHED
 70
0
  3
Dashed __ __ __ __ __ __ __ __ __ __ __ __ __ _
 72
65
 73
2
 40
19.0499999999999972
 49
12.6999999999999993
 74
0
 49
-6.3499999999999996
 74
0
  0
LTYPE
  5
4F
100
AcDbSymbolTableRecord
100
AcDbLinetypeTableRecord
  2
ACAD_ISO14W100
 70
0
  3
ISO dash triple-dot __ . . . __ . . . __ . . . _
 72
65
 73
8
 40
24.0
 49
12.0
 74
0
 49
-2.9500000000000002
 74
0
 49
0.1
 74
0
 49
-2.9000000000000004
 74
0
 49
0.1
 74
0
 49
-2.9000000000000004
 74
0
 49
0.1
 74
0
 49
-2.9500000000000002
 74
0
  0
LTYPE
  5
15
100
AcDbSymbolTableRecord
100
AcDbLinetypeTableRecord
  2
BYLAYER
 70
0
  3

 72
65
 73
0
 40
0.0
  0
LTYPE
  5
50
100
AcDbSymbolTableRecord
100
AcDbLinetypeTableRecord
  2
PHANTOMX2
 70
0
  3
Phantom (2x) ____________    ____    ____   _
 72
65
 73
6
 40
127.0
 49
63.5
 74
0
 49
-12.6999999999999993
 74
0
 49
12.6999999999999993
 74
0
 49
-12.6999999999999993
 74
0
 49
12.6999999999999993
 74
0
 49
-12.6999999999999993
 74
0
  0
LTYPE
  5
14
100
AcDbSymbolTableRecord
100
AcDbLinetypeTableRecord
  2
BYBLOCK
 70
0
  3

 72
65
 73
0
 40
0.0
  0
LTYPE
  5
51
100
AcDbSymbolTableRecord
100
AcDbLinetypeTableRecord
  2
DIVIDEX2
 70
0
  3
Divide (2x) ________  .  .  ________  .  .  _
 72
65
 73
6
 40
63.4999999999999929
 49
25.3999999999999986
 74
0
 49
-12.6499999999999986
 74
0
 49
0.1
 74
0
 49
-12.5999999999999979
 74
0
 49
0.1
 74
0
 49
-12.6499999999999986
 74
0
  0
LTYPE
  5
52
100
AcDbSymbolTableRecord
100
AcDbLinetypeTableRecord
  2
BORDER
 70
0
  3
Border __ __ . __ __ . __ __ . __ __ . __ __ .
 72
65
 73
6
 40
44.4499999999999957
 49
12.6999999999999993
 74
0
 49
-6.3499999999999996
 74
0
 49
12.6999999999999993
 74
0
 49
-6.2999999999999998
 74
0
 49
0.1
 74
0
 49
-6.2999999999999998
 74
0
  0
LTYPE
  5
53
100
AcDbSymbolTableRecord
100
AcDbLinetypeTableRecord
  2
DIVIDE2
 70
0
  3
Divide (.5x) __..__..__..__..__..__..__..__.._
 72
65
 73
6
 40
15.875
 49
6.3499999999999996
 74
0
 49
-3.125
 74
0
 49
0.1
 74
0
 49
-3.0750000000000002
 74
0
 49
0.1
 74
0
 49
-3.125
 74
0
  0
LTYPE
  5
54
100
AcDbSymbolTableRecord
100
AcDbLinetypeTableRecord
  2
DOT
 70
0
  3
Dot . . . . . . . . . . . . . . . . . . . . . . . .
 72
65
 73
2
 40
6.3499999999999996
 49
0.1
 74
0
 49
-6.25
 74
0
  0
LTYPE
  5
55
100
AcDbSymbolTableRecord
100
AcDbLinetypeTableRecord
  2
DASHDOT
 70
0
  3
Dash dot __ . __ . __ . __ . __ . __ . __ . __
 72
65
 73
4
 40
25.3999999999999986
 49
12.6999999999999993
 74
0
 49
-6.2999999999999998
 74
0
 49
0.1
 74
0
 49
-6.2999999999999998
 74
0
  0
LTYPE
  5
56
100
AcDbSymbolTableRecord
100
AcDbLinetypeTableRecord
  2
ACAD_ISO03W100
 70
0
  3
ISO dash space __    __    __    __    __    __
 72
65
 73
2
 40
30.0
 49
12.0
 74
0
 49
-18.0
 74
0
  0
ENDTAB
  0
TABLE
  2
LAYER
  5
2
100
AcDbSymbolTable
 70
12
  0
LAYER
  5
57
100
AcDbSymbolTableRecord
100
AcDbLayerTableRecord
  2
assembly lines
 70
0
 62
14
420
8388608
  6
Continuous
370
25
390
F
  0
LAYER
  5
58
100
AcDbSymbolTableRecord
100
AcDbLayerTableRecord
  2
outlines
 70
0
 62
7
420
0
  6
Continuous
370
35
390
F
  0
LAYER
  5
59
100
AcDbSymbolTableRecord
100
AcDbLayerTableRecord
  2
centre lines
 70
0
 62
14
420
8388608
  6
CENTER
370
25
390
F
  0
LAYER
  5
5A
100
AcDbSymbolTableRecord
100
AcDbLayerTableRecord
  2
paper outline
 70
1
 62
-1
420
16711680
  6
Continuous
370
25
390
F
  0
LAYER
  5
5B
100
AcDbSymbolTableRecord
100
AcDbLayerTableRecord
  2
details
 70
0
 62
7
420
0
  6
Continuous
370
25
390
F
  0
LAYER
  5
5C
100
AcDbSymbolTableRecord
100
AcDbLayerTableRecord
  2
dimensions
 70
0
 62
174
420
128
  6
Continuous
370
25
390
F
  0
LAYER
  5
5D
100
AcDbSymbolTableRecord
100
AcDbLayerTableRecord
  2
artwork
 70
1
 62
-7
420
0
  6
Continuous
370
25
390
F
  0
LAYER
  5
5E
100
AcDbSymbolTableRecord
100
AcDbLayerTableRecord
  2
frame
 70
0
 62
5
420
255
  6
Continuous
370
35
390
F
  0
LAYER
  5
5F
100
AcDbSymbolTableRecord
100
AcDbLayerTableRecord
  2
notes
 70
0
 62
94
420
32768
  6
Continuous
370
25
390
F
  0
LAYER
  5
60
100
AcDbSymbolTableRecord
100
AcDbLayerTableRecord
  2
construction lines
 70
0
 62
9
420
12632256
  6
Continuous
370
25
390
F
  0
LAYER
  5
61
100
AcDbSymbolTableRecord
100
AcDbLayerTableRecord
  2
holes
 70
0
 62
7
420
0
  6
Continuous
370
35
390
F
  0
LAYER
  5
10
100
AcDbSymbolTableRecord
100
AcDbLayerTableRecord
  2
0
 70
0
 62
7
420
0
  6
Continuous
370
25
390
F
  0
ENDTAB
  0
TABLE
  2
STYLE
  5
3
100
AcDbSymbolTable
 70
37
  0
STYLE
  5
62
100
AcDbSymbolTableRecord
100
AcDbTextStyleTableRecord
  2
Standard
 70
0
 40
0.0
 41
1.0
 50
0.0
 71
0
 42
2.5
  3

  4

1001
ACAD
1000
txt
1071
0
  0
STYLE
  5
63
100
AcDbSymbolTableRecord
100
AcDbTextStyleTableRecord
  2
textstyle0
 70
0
 40
0.0
 41
1.0
 50
0.0
 71
0
 42
1.0
  3

  4

1001
ACAD
1000
Liberation Sans
1071
0
  0
STYLE
  5
64
100
AcDbSymbolTableRecord
100
AcDbTextStyleTableRecord
  2
textstyle1
 70
0
 40
0.0
 41
1.0
 50
0.0
 71
0
 42
3.0
  3

  4

1001
ACAD
1000
Nimbus Sans L
1071
0
  0
STYLE
  5
65
100
AcDbSymbolTableRecord
100
AcDbTextStyleTableRecord
  2
textstyle2
 70
0
 40
0.0
 41
1.0
 50
0.0
 71
0
 42
5.0
  3

  4

1001
ACAD
1000
Nimbus Sans L
1071
0
  0
STYLE
  5
66
100
AcDbSymbolTableRecord
100
AcDbTextStyleTableRecord
  2
textstyle3
 70
0
 40
0.0
 41
1.0
 50
0.0
 71
0
 42
3.0
  3

  4

1001
ACAD
1000
Nimbus Sans L
1071
0
  0
STYLE
  5
67
100
AcDbSymbolTableRecord
100
AcDbTextStyleTableRecord
  2
textstyle4
 70
0
 40
0.0
 41
1.0
 50
0.0
 71
0
 42
3.0
  3

  4

1001
ACAD
1000
Nimbus Sans L
1071
0
  0
STYLE
  5
68
100
AcDbSymbolTableRecord
100
AcDbTextStyleTableRecord
  2
textstyle5
 70
0
 40
0.0
 41
1.0
 50
0.0
 71
0
 42
3.0
  3

  4

1001
ACAD
1000
Nimbus Sans L
1071
0
  0
STYLE
  5
69
100
AcDbSymbolTableRecord
100
AcDbTextStyleTableRecord
  2
textstyle6
 70
0
 40
0.0
 41
1.0
 50
0.0
 71
0
 42
3.0
  3

  4

1001
ACAD
1000
Nimbus Sans L
1071
0
  0
STYLE
  5
6A
100
AcDbSymbolTableRecord
100
AcDbTextStyleTableRecord
  2
textstyle7
 70
0
 40
0.0
 41
1.0
 50
0.0
 71
0
 42
3.0
  3

  4

1001
ACAD
1000
Nimbus Sans L
1071
0
  0
STYLE
  5
6B
100
AcDbSymbolTableRecord
100
AcDbTextStyleTableRecord
  2
textstyle8
 70
0
 40
0.0
 41
1.0
 50
0.0
 71
0
 42
3.0
  3

  4

1001
ACAD
1000
Nimbus Sans L
1071
0
  0
STYLE
  5
6C
100
AcDbSymbolTableRecord
100
AcDbTextStyleTableRecord
  2
textstyle9
 70
0
 40
0.0
 41
1.0
 50
0.0
 71
0
 42
3.0
  3

  4

1001
ACAD
1000
Nimbus Sans L
1071
0
  0
STYLE
  5
6D
100
AcDbSymbolTableRecord
100
AcDbTextStyleTableRecord
  2
textstyle10
 70
0
 40
0.0
 41
1.0
 50
0.0
 71
0
 42
3.0
  3

  4

1001
ACAD
1000
Nimbus Sans L
1071
0
  0
STYLE
  5
6E
100
AcDbSymbolTableRecord
100
AcDbTextStyleTableRecord
  2
textstyle11
 70
0
 40
0.0
 41
1.0
 50
0.0
 71
0
 42
3.0
  3

  4

1001
ACAD
1000
Nimbus Sans L
1071
0
  0
STYLE
  5
6F
100
AcDbSymbolTableRecord
100
AcDbTextStyleTableRecord
  2
textstyle12
 70
0
 40
0.0
 41
1.0
 50
0.0
 71
0
 42
3.0
  3

  4

1001
ACAD
1000
Nimbus Sans L
1071
0
  0
STYLE
  5
70
100
AcDbSymbolTableRecord
100
AcDbTextStyleTableRecord
  2
textstyle13
 70
0
 40
0.0
 41
1.0
 50
0.0
 71
0
 42
3.0
  3

  4

1001
ACAD
1000
Nimbus Sans L
1071
0
  0
STYLE
  5
71
100
AcDbSymbolTableRecord
100
AcDbTextStyleTableRecord
  2
textstyle14
 70
0
 40
0.0
 41
1.0
 50
0.0
 71
0
 42
3.0
  3

  4

1001
ACAD
1000
Nimbus Sans L
1071
0
  0
STYLE
  5
72
100
AcDbSymbolTableRecord
100
AcDbTextStyleTableRecord
  2
textstyle15
 70
0
 40
0.0
 41
1.0
 50
0.0
 71
0
 42
3.0
  3

  4

1001
ACAD
1000
Nimbus Sans L
1071
0
  0
STYLE
  5
73
100
AcDbSymbolTableRecord
100
AcDbTextStyleTableRecord
  2
textstyle16
 70
0
 40
0.0
 41
1.0
 50
0.0
 71
0
 42
3.0
  3

  4

1001
ACAD
1000
Nimbus Sans L
1071
0
  0
STYLE
  5
74
100
AcDbSymbolTableRecord
100
AcDbTextStyleTableRecord
  2
textstyle17
 70
0
 40
0.0
 41
1.0
 50
0.0
 71
0
 42
3.0
  3

  4

1001
ACAD
1000
Nimbus Sans L
1071
0
  0
STYLE
  5
75
100
AcDbSymbolTableRecord
100
AcDbTextStyleTableRecord
  2
textstyle18
 70
0
 40
0.0
 41
1.0
 50
0.0
 71
0
 42
3.0
  3

  4

1001
ACAD
1000
Nimbus Sans L
1071
0
  0
STYLE
  5
76
100
AcDbSymbolTableRecord
100
AcDbTextStyleTableRecord
  2
textstyle19
 70
0
 40
0.0
 41
1.0
 50
0.0
 71
0
 42
3.0
  3

  4

1001
ACAD
1000
Nimbus Sans L
1071
0
  0
STYLE
  5
77
100
AcDbSymbolTableRecord
100
AcDbTextStyleTableRecord
  2
textstyle20
 70
0
 40
0.0
 41
1.0
 50
0.0
 71
0
 42
3.0
  3

  4

1001
ACAD
1000
Nimbus Sans L
1071
0
  0
STYLE
  5
78
100
AcDbSymbolTableRecord
100
AcDbTextStyleTableRecord
  2
textstyle21
 70
0
 40
0.0
 41
1.0
 50
0.0
 71
0
 42
3.0
  3

  4

1001
ACAD
1000
Nimbus Sans L
1071
0
  0
STYLE
  5
79
100
AcDbSymbolTableRecord
100
AcDbTextStyleTableRecord
  2
textstyle22
 70
0
 40
0.0
 41
1.0
 50
0.0
 71
0
 42
3.0
  3

  4

1001
ACAD
1000
Nimbus Sans L
1071
0
  0
STYLE
  5
7A
100
AcDbSymbolTableRecord
100
AcDbTextStyleTableRecord
  2
textstyle23
 70
0
 40
0.0
 41
1.0
 50
0.0
 71
0
 42
3.0
  3

  4

1001
ACAD
1000
Nimbus Sans L
1071
0
  0
STYLE
  5
7B
100
AcDbSymbolTableRecord
100
AcDbTextStyleTableRecord
  2
textstyle24
 70
0
 40
0.0
 41
1.0
 50
0.0
 71
0
 42
3.0
  3

  4

1001
ACAD
1000
Nimbus Sans L
1071
0
  0
STYLE
  5
7C
100
AcDbSymbolTableRecord
100
AcDbTextStyleTableRecord
  2
textstyle25
 70
0
 40
0.0
 41
1.0
 50
0.0
 71
0
 42
3.0
  3

  4

1001
ACAD
1000
Nimbus Sans L
1071
0
  0
STYLE
  5
7D
100
AcDbSymbolTableRecord
100
AcDbTextStyleTableRecord
  2
textstyle26
 70
0
 40
0.0
 41
1.0
 50
0.0
 71
0
 42
3.0
  3

  4

1001
ACAD
1000
Nimbus Sans L
1071
0
  0
STYLE
  5
7E
100
AcDbSymbolTableRecord
100
AcDbTextStyleTableRecord
  2
textstyle27
 70
0
 40
0.0
 41
1.0
 50
0.0
 71
0
 42
3.0
  3

  4

1001
ACAD
1000
Nimbus Sans L
1071
0
  0
STYLE
  5
7F
100
AcDbSymbolTableRecord
100
AcDbTextStyleTableRecord
  2
textstyle28
 70
0
 40
0.0
 41
1.0
 50
0.0
 71
0
 42
3.0
  3

  4

1001
ACAD
1000
Nimbus Sans L
1071
0
  0
STYLE
  5
80
100
AcDbSymbolTableRecord
100
AcDbTextStyleTableRecord
  2
textstyle29
 70
0
 40
0.0
 41
1.0
 50
0.0
 71
0
 42
3.0
  3

  4

1001
ACAD
1000
Nimbus Sans L
1071
0
  0
STYLE
  5
81
100
AcDbSymbolTableRecord
100
AcDbTextStyleTableRecord
  2
textstyle30
 70
0
 40
0.0
 41
1.0
 50
0.0
 71
0
 42
3.0
  3

  4

1001
ACAD
1000
Nimbus Sans L
1071
0
  0
STYLE
  5
82
100
AcDbSymbolTableRecord
100
AcDbTextStyleTableRecord
  2
textstyle31
 70
0
 40
0.0
 41
1.0
 50
0.0
 71
0
 42
3.0
  3

  4

1001
ACAD
1000
Nimbus Sans L
1071
0
  0
STYLE
  5
83
100
AcDbSymbolTableRecord
100
AcDbTextStyleTableRecord
  2
textstyle32
 70
0
 40
0.0
 41
1.0
 50
0.0
 71
0
 42
1.0
  3

  4

1001
ACAD
1000
Liberation Sans
1071
0
  0
STYLE
  5
84
100
AcDbSymbolTableRecord
100
AcDbTextStyleTableRecord
  2
textstyle33
 70
0
 40
0.0
 41
1.0
 50
0.0
 71
0
 42
1.0
  3

  4

1001
ACAD
1000
Liberation Sans
1071
0
  0
STYLE
  5
85
100
AcDbSymbolTableRecord
100
AcDbTextStyleTableRecord
  2
textstyle34
 70
0
 40
0.0
 41
1.0
 50
0.0
 71
0
 42
1.0
  3

  4

1001
ACAD
1000
Liberation Sans
1071
0
  0
STYLE
  5
86
100
AcDbSymbolTableRecord
100
AcDbTextStyleTableRecord
  2
textstyle35
 70
0
 40
0.0
 41
1.0
 50
0.0
 71
0
 42
1.0
  3

  4

1001
ACAD
1000
Liberation Sans
1071
0
  0
ENDTAB
  0
TABLE
  2
VIEW
  5
6
100
AcDbSymbolTable
 70
0
  0
ENDTAB
  0
TABLE
  2
UCS
  5
7
100
AcDbSymbolTable
 70
0
  0
ENDTAB
  0
TABLE
  2
APPID
  5
9
100
AcDbSymbolTable
 70
1
  0
APPID
  5
12
100
AcDbSymbolTableRecord
100
AcDbRegAppTableRecord
  2
ACAD
 70
0
  0
APPID
  5
87
100
AcDbSymbolTableRecord
100
AcDbRegAppTableRecord
  2
QCAD
 70
0
  0
ENDTAB
  0
TABLE
  2
DIMSTYLE
  5
A
100
AcDbSymbolTable
 70
1
100
AcDbDimStyleTable
 71
0
  0
DIMSTYLE
105
27
100
AcDbSymbolTableRecord
100
AcDbDimStyleTableRecord
  2
Standard
 41
2.5
 42
0.625
 43
3.75
 44
1.25
 70
0
 73
0
 74
0
 77
1
 78
8
140
2.5
141
2.5
143
0.03937007874016
147
0.625
171
3
172
1
271
2
272
2
274
3
278
44
283
0
284
8
340
62
  0
ENDTAB
  0
TABLE
  2
BLOCK_RECORD
  5
1
100
AcDbSymbolTable
 70
1
  0
BLOCK_RECORD
  5
1F
100
AcDbSymbolTableRecord
100
AcDbBlockTableRecord
  2
*Model_Space
340
22
  0
BLOCK_RECORD
  5
1B
100
AcDbSymbolTableRecord
100
AcDbBlockTableRecord
  2
*Paper_Space
340
1E
  0
BLOCK_RECORD
  5
23
100
AcDbSymbolTableRecord
100
AcDbBlockTableRecord
  2
*Paper_Space0
340
26
  0
ENDTAB
  0
ENDSEC
  0
SECTION
  2
BLOCKS
  0
BLOCK
  5
20
100
AcDbEntity
  8
0
100
AcDbBlockBegin
  2
*Model_Space
 70
0
 10
0.0
 20
0.0
 30
0.0
  3
*Model_Space
  1

  0
ENDBLK
  5
21
100
AcDbEntity
  8
0
100
AcDbBlockEnd
  0
BLOCK
  5
1C
100
AcDbEntity
 67
1
  8
0
100
AcDbBlockBegin
  2
*Paper_Space
 70
0
 10
0.0
 20
0.0
 30
0.0
  3
*Paper_Space
  1

  0
ENDBLK
  5
1D
100
AcDbEntity
 67
1
  8
0
100
AcDbBlockEnd
  0
BLOCK
  5
24
100
AcDbEntity
  8
0
100
AcDbBlockBegin
  2
*Paper_Space0
 70
0
 10
0.0
 20
0.0
 30
0.0
  3
*Paper_Space0
  1

  0
ENDBLK
  5
25
100
AcDbEntity
  8
0
100
AcDbBlockEnd
  0
ENDSEC
  0
SECTION
  2
ENTITIES
  0
IMAGE
  5
88
  8
artwork
 62
256
370
-1
 48
1.0
  6
BYLAYER
100
AcDbEntity
100
AcDbRasterImage
 90
0
 10
92.5522783271469791
 20
87.625
 30
0.0
 11
0.1691304347826087
 21
0.0
 31
0.0
 12
0.0
 22
0.1691304347826087
 32
0.0
 13
40.0
 23
128.0
340
89
 70
15
280
0
281
50
282
50
283
0
  0
MTEXT
  5
8A
100
AcDbEntity
100
AcDbMText
  8
notes
 62
256
370
-1
 48
1.0
  6
BYLAYER
 10
232.5522783271469791
 20
262.625
 30
0.0
 40
1.0
 41
0.0
 71
1
 72
1
  3
\H3;NOTES\P\P1:  All dimensions are millimetres with tolerance +/- 0.10mm.\PDo not scale off drawing.\P\P2:  Material is aluminum, 2.00mm thick.  Overall dimensions are\P128.50mm by 40.30mm, per Doepfer spec for an 8HP Eurorack\Psynthesizer module.\P
  1
\P3:  Do not confuse similar horizontal positions.  The 3.20mm holes are\Pcentred 7.50mm and 32.90mm from the left edge.  The 2.38mm, 6.30mm,\Pand 6.35mm holes are centred 8.76mm and 32.38mm from the left edge.
  7
textstyle0
 50
0.0
 73
2
 44
1.0
  0
CIRCLE
  5
8B
100
AcDbEntity
100
AcDbCircle
  8
holes
 62
256
370
-1
 48
1.0
  6
BYLAYER
 10
125.4522783271469848
 20
90.625
 30
0.0
 40
1.5999999999999943
  0
CIRCLE
  5
8C
100
AcDbEntity
100
AcDbCircle
  8
holes
 62
256
370
-1
 48
1.0
  6
BYLAYER
 10
112.8722783271469723
 20
107.4350000000000023
 30
0.0
 40
1.5999999999999943
  0
CIRCLE
  5
8D
100
AcDbEntity
100
AcDbCircle
  8
holes
 62
256
370
-1
 48
1.0
  6
BYLAYER
 10
100.0522783271469791
 20
90.625
 30
0.0
 40
1.5999999999999943
  0
CIRCLE
  5
8E
100
AcDbEntity
100
AcDbCircle
  8
holes
 62
256
370
-1
 48
1.0
  6
BYLAYER
 10
112.8722783271469723
 20
196.3349999999999795
 30
0.0
 40
1.5999999999999943
  0
CIRCLE
  5
8F
100
AcDbEntity
100
AcDbCircle
  8
holes
 62
256
370
-1
 48
1.0
  6
BYLAYER
 10
125.4522783271469848
 20
213.125
 30
0.0
 40
1.5999999999999943
  0
CIRCLE
  5
90
100
AcDbEntity
100
AcDbCircle
  8
holes
 62
256
370
-1
 48
1.0
  6
BYLAYER
 10
100.0522783271469791
 20
213.125
 30
0.0
 40
1.5999999999999943
  0
CIRCLE
  5
91
100
AcDbEntity
100
AcDbCircle
  8
holes
 62
256
370
-1
 48
1.0
  6
BYLAYER
 10
129.3822783271469916
 20
120.1349999999999909
 30
0.0
 40
2.5499999999999972
  0
CIRCLE
  5
92
100
AcDbEntity
100
AcDbCircle
  8
holes
 62
256
370
-1
 48
1.0
  6
BYLAYER
 10
105.252278327146982
 20
120.1349999999999909
 30
0.0
 40
2.5499999999999972
  0
CIRCLE
  5
93
100
AcDbEntity
100
AcDbCircle
  8
holes
 62
256
370
-1
 48
1.0
  6
BYLAYER
 10
124.9322783271469746
 20
187.6949999999999932
 30
0.0
 40
1.1899999999999977
  0
CIRCLE
  5
94
100
AcDbEntity
100
AcDbCircle
  8
holes
 62
256
370
-1
 48
1.0
  6
BYLAYER
 10
100.8122783271469842
 20
187.6949999999999932
 30
0.0
 40
1.1899999999999977
  0
CIRCLE
  5
95
100
AcDbEntity
100
AcDbCircle
  8
holes
 62
256
370
-1
 48
1.0
  6
BYLAYER
 10
124.9322783271469746
 20
193.7950000000000159
 30
0.0
 40
3.1749999999999972
  0
CIRCLE
  5
96
100
AcDbEntity
100
AcDbCircle
  8
holes
 62
256
370
-1
 48
1.0
  6
BYLAYER
 10
100.8122783271469842
 20
193.7950000000000159
 30
0.0
 40
3.1749999999999972
  0
CIRCLE
  5
97
100
AcDbEntity
100
AcDbCircle
  8
holes
 62
256
370
-1
 48
1.0
  6
BYLAYER
 10
124.9322783271469746
 20
174.7450000000000045
 30
0.0
 40
3.1500000000000057
  0
CIRCLE
  5
98
100
AcDbEntity
100
AcDbCircle
  8
holes
 62
256
370
-1
 48
1.0
  6
BYLAYER
 10
100.8122783271469842
 20
174.7450000000000045
 30
0.0
 40
3.1500000000000057
  0
CIRCLE
  5
99
100
AcDbEntity
100
AcDbCircle
  8
holes
 62
256
370
-1
 48
1.0
  6
BYLAYER
 10
124.9322783271469746
 20
153.1550000000000011
 30
0.0
 40
3.1500000000000057
  0
CIRCLE
  5
9A
100
AcDbEntity
100
AcDbCircle
  8
holes
 62
256
370
-1
 48
1.0
  6
BYLAYER
 10
100.8122783271469842
 20
153.1550000000000011
 30
0.0
 40
3.1500000000000057
  0
CIRCLE
  5
9B
100
AcDbEntity
100
AcDbCircle
  8
holes
 62
256
370
-1
 48
1.0
  6
BYLAYER
 10
124.9322783271469746
 20
131.5649999999999977
 30
0.0
 40
3.1500000000000057
  0
CIRCLE
  5
9C
100
AcDbEntity
100
AcDbCircle
  8
holes
 62
256
370
-1
 48
1.0
  6
BYLAYER
 10
100.8122783271469842
 20
131.5649999999999977
 30
0.0
 40
3.1500000000000057
  0
CIRCLE
  5
9D
100
AcDbEntity
100
AcDbCircle
  8
holes
 62
256
370
-1
 48
1.0
  6
BYLAYER
 10
124.9322783271469746
 20
109.9749999999999943
 30
0.0
 40
3.1500000000000057
  0
CIRCLE
  5
9E
100
AcDbEntity
100
AcDbCircle
  8
holes
 62
256
370
-1
 48
1.0
  6
BYLAYER
 10
100.8122783271469842
 20
109.9749999999999943
 30
0.0
 40
3.1500000000000057
  0
LINE
  5
9F
100
AcDbEntity
100
AcDbLine
  8
centre lines
 62
256
370
-1
 48
1.0
  6
BYLAYER
 10
87.5522783271469791
 20
187.6949999999999932
 30
0.0
 11
126.1222783271469723
 21
187.6949999999999932
 31
0.0
  0
LINE
  5
A0
100
AcDbEntity
100
AcDbLine
  8
centre lines
 62
256
370
-1
 48
1.0
  6
BYLAYER
 10
137.8522783271469905
 20
196.3349999999999795
 30
0.0
 11
106.6822783271469746
 21
196.3349999999999795
 31
0.0
  0
LINE
  5
A1
100
AcDbEntity
100
AcDbLine
  8
centre lines
 62
256
370
-1
 48
1.0
  6
BYLAYER
 10
87.5522783271469791
 20
193.7950000000000159
 30
0.0
 11
133.1072783271469859
 21
193.7950000000000159
 31
0.0
  0
LINE
  5
A2
100
AcDbEntity
100
AcDbLine
  8
centre lines
 62
256
370
-1
 48
1.0
  6
BYLAYER
 10
87.5522783271469791
 20
174.7450000000000045
 30
0.0
 11
133.0822783271469802
 21
174.7450000000000045
 31
0.0
  0
LINE
  5
A3
100
AcDbEntity
100
AcDbLine
  8
centre lines
 62
256
370
-1
 48
1.0
  6
BYLAYER
 10
87.5522783271469791
 20
153.1550000000000011
 30
0.0
 11
133.0822783271469802
 21
153.1550000000000011
 31
0.0
  0
LINE
  5
A4
100
AcDbEntity
100
AcDbLine
  8
centre lines
 62
256
370
-1
 48
1.0
  6
BYLAYER
 10
87.5522783271469791
 20
131.5649999999999977
 30
0.0
 11
133.0822783271469802
 21
131.5649999999999977
 31
0.0
  0
LINE
  5
A5
100
AcDbEntity
100
AcDbLine
  8
centre lines
 62
256
370
-1
 48
1.0
  6
BYLAYER
 10
87.5522783271469791
 20
120.1349999999999909
 30
0.0
 11
136.9322783271469746
 21
120.1349999999999909
 31
0.0
  0
LINE
  5
A6
100
AcDbEntity
100
AcDbLine
  8
centre lines
 62
256
370
-1
 48
1.0
  6
BYLAYER
 10
87.5522783271469791
 20
109.9749999999999943
 30
0.0
 11
133.0822783271469802
 21
109.9749999999999943
 31
0.0
  0
LINE
  5
A7
100
AcDbEntity
100
AcDbLine
  8
centre lines
 62
256
370
-1
 48
1.0
  6
BYLAYER
 10
137.8522783271469905
 20
107.4350000000000023
 30
0.0
 11
106.6822783271469746
 21
107.4350000000000023
 31
0.0
  0
LINE
  5
A8
100
AcDbEntity
100
AcDbLine
  8
centre lines
 62
256
370
-1
 48
1.0
  6
BYLAYER
 10
129.3822783271469916
 20
82.625
 30
0.0
 11
129.3822783271469916
 21
127.6849999999999881
 31
0.0
  0
LINE
  5
A9
100
AcDbEntity
100
AcDbLine
  8
centre lines
 62
256
370
-1
 48
1.0
  6
BYLAYER
 10
124.9322783271469746
 20
82.625
 30
0.0
 11
124.9322783271469746
 21
201.9700000000000273
 31
0.0
  0
LINE
  5
AA
100
AcDbEntity
100
AcDbLine
  8
centre lines
 62
256
370
-1
 48
1.0
  6
BYLAYER
 10
112.8722783271469723
 20
221.125
 30
0.0
 11
112.8722783271469723
 21
101.2449999999999903
 31
0.0
  0
LINE
  5
AB
100
AcDbEntity
100
AcDbLine
  8
centre lines
 62
256
370
-1
 48
1.0
  6
BYLAYER
 10
105.252278327146982
 20
82.625
 30
0.0
 11
105.252278327146982
 21
127.6849999999999881
 31
0.0
  0
LINE
  5
AC
100
AcDbEntity
100
AcDbLine
  8
centre lines
 62
256
370
-1
 48
1.0
  6
BYLAYER
 10
100.8122783271469842
 20
82.625
 30
0.0
 11
100.8122783271469842
 21
201.9700000000000273
 31
0.0
  0
LINE
  5
AD
100
AcDbEntity
100
AcDbLine
  8
centre lines
 62
256
370
-1
 48
1.0
  6
BYLAYER
 10
125.4522783271469848
 20
221.125
 30
0.0
 11
125.4522783271469848
 21
84.4350000000000023
 31
0.0
  0
LINE
  5
AE
100
AcDbEntity
100
AcDbLine
  8
centre lines
 62
256
370
-1
 48
1.0
  6
BYLAYER
 10
100.0522783271469791
 20
221.125
 30
0.0
 11
100.0522783271469791
 21
84.4350000000000023
 31
0.0
  0
LINE
  5
AF
100
AcDbEntity
100
AcDbLine
  8
centre lines
 62
256
370
-1
 48
1.0
  6
BYLAYER
 10
137.8522783271469905
 20
213.125
 30
0.0
 11
93.8622783271469814
 21
213.125
 31
0.0
  0
LINE
  5
B0
100
AcDbEntity
100
AcDbLine
  8
centre lines
 62
256
370
-1
 48
1.0
  6
BYLAYER
 10
137.8522783271469905
 20
90.625
 30
0.0
 11
93.8622783271469814
 21
90.625
 31
0.0
  0
MTEXT
  5
B1
100
AcDbEntity
100
AcDbMText
  8
frame
 62
256
370
-1
 48
1.0
  6
BYLAYER
 10
392.5
 20
20.0
 30
0.0
 40
3.0
 41
0.0
 71
5
 72
1
  1
1/1
  7
textstyle1
 50
0.0
 73
2
 44
1.0
  0
MTEXT
  5
B2
100
AcDbEntity
100
AcDbMText
  8
frame
 62
256
370
-1
 48
1.0
  6
BYLAYER
 10
263.0
 20
32.5
 30
0.0
 40
5.0
 41
0.0
 71
4
 72
1
  1
MSK 008 VC Octave Switch panel mechanical
  7
textstyle2
 50
0.0
 73
2
 44
1.0
  0
MTEXT
  5
B3
100
AcDbEntity
100
AcDbMText
  8
frame
 62
256
370
-1
 48
1.0
  6
BYLAYER
 10
263.0
 20
20.0
 30
0.0
 40
3.0
 41
0.0
 71
4
 72
1
  1
$Id: panel-mechanical.dxf 5279 2016-12-20 03:09:11Z mskala $
  7
textstyle3
 50
0.0
 73
2
 44
1.0
  0
LINE
  5
B4
100
AcDbEntity
100
AcDbLine
  8
frame
 62
256
370
-1
 48
1.0
  6
BYLAYER
 10
260.0
 20
40.0
 30
0.0
 11
405.0
 21
40.0
 31
0.0
  0
LINE
  5
B5
100
AcDbEntity
100
AcDbLine
  8
frame
 62
256
370
-1
 48
1.0
  6
BYLAYER
 10
260.0
 20
25.0
 30
0.0
 11
260.0
 21
40.0
 31
0.0
  0
LINE
  5
B6
100
AcDbEntity
100
AcDbLine
  8
frame
 62
256
370
-1
 48
1.0
  6
BYLAYER
 10
380.0
 20
15.0
 30
0.0
 11
380.0
 21
25.0
 31
0.0
  0
LINE
  5
B7
100
AcDbEntity
100
AcDbLine
  8
frame
 62
256
370
-1
 48
1.0
  6
BYLAYER
 10
260.0
 20
25.0
 30
0.0
 11
405.0
 21
25.0
 31
0.0
  0
LINE
  5
B8
100
AcDbEntity
100
AcDbLine
  8
frame
 62
256
370
-1
 48
1.0
  6
BYLAYER
 10
260.0
 20
15.0
 30
0.0
 11
260.0
 21
25.0
 31
0.0
  0
MTEXT
  5
B9
100
AcDbEntity
100
AcDbMText
  8
frame
 62
256
370
-1
 48
1.0
  6
BYLAYER
 10
390.0
 20
284.5
 30
0.0
 40
3.0
 41
0.0
 71
5
 72
1
  1
8
  7
textstyle4
 50
0.0
 73
2
 44
1.0
  0
MTEXT
  5
BA
100
AcDbEntity
100
AcDbMText
  8
frame
 62
256
370
-1
 48
1.0
  6
BYLAYER
 10
390.0
 20
12.5000000000000568
 30
0.0
 40
3.0
 41
0.0
 71
5
 72
1
  1
8
  7
textstyle5
 50
0.0
 73
2
 44
1.0
  0
MTEXT
  5
BB
100
AcDbEntity
100
AcDbMText
  8
frame
 62
256
370
-1
 48
1.0
  6
BYLAYER
 10
340.0
 20
284.5
 30
0.0
 40
3.0
 41
0.0
 71
5
 72
1
  1
7
  7
textstyle6
 50
0.0
 73
2
 44
1.0
  0
MTEXT
  5
BC
100
AcDbEntity
100
AcDbMText
  8
frame
 62
256
370
-1
 48
1.0
  6
BYLAYER
 10
340.0
 20
12.5
 30
0.0
 40
3.0
 41
0.0
 71
5
 72
1
  1
7
  7
textstyle7
 50
0.0
 73
2
 44
1.0
  0
MTEXT
  5
BD
100
AcDbEntity
100
AcDbMText
  8
frame
 62
256
370
-1
 48
1.0
  6
BYLAYER
 10
290.0
 20
284.4999999999999432
 30
0.0
 40
3.0
 41
0.0
 71
5
 72
1
  1
6
  7
textstyle8
 50
0.0
 73
2
 44
1.0
  0
MTEXT
  5
BE
100
AcDbEntity
100
AcDbMText
  8
frame
 62
256
370
-1
 48
1.0
  6
BYLAYER
 10
290.0
 20
12.4999999999999432
 30
0.0
 40
3.0
 41
0.0
 71
5
 72
1
  1
6
  7
textstyle9
 50
0.0
 73
2
 44
1.0
  0
MTEXT
  5
BF
100
AcDbEntity
100
AcDbMText
  8
frame
 62
256
370
-1
 48
1.0
  6
BYLAYER
 10
239.9999999999999716
 20
284.5
 30
0.0
 40
3.0
 41
0.0
 71
5
 72
1
  1
5
  7
textstyle10
 50
0.0
 73
2
 44
1.0
  0
MTEXT
  5
C0
100
AcDbEntity
100
AcDbMText
  8
frame
 62
256
370
-1
 48
1.0
  6
BYLAYER
 10
239.9999999999999716
 20
12.5
 30
0.0
 40
3.0
 41
0.0
 71
5
 72
1
  1
5
  7
textstyle11
 50
0.0
 73
2
 44
1.0
  0
MTEXT
  5
C1
100
AcDbEntity
100
AcDbMText
  8
frame
 62
256
370
-1
 48
1.0
  6
BYLAYER
 10
190.0
 20
284.4999999999999432
 30
0.0
 40
3.0
 41
0.0
 71
5
 72
1
  1
4
  7
textstyle12
 50
0.0
 73
2
 44
1.0
  0
MTEXT
  5
C2
100
AcDbEntity
100
AcDbMText
  8
frame
 62
256
370
-1
 48
1.0
  6
BYLAYER
 10
190.0
 20
12.4999999999999432
 30
0.0
 40
3.0
 41
0.0
 71
5
 72
1
  1
4
  7
textstyle13
 50
0.0
 73
2
 44
1.0
  0
MTEXT
  5
C3
100
AcDbEntity
100
AcDbMText
  8
frame
 62
256
370
-1
 48
1.0
  6
BYLAYER
 10
140.0000000000000284
 20
284.5
 30
0.0
 40
3.0
 41
0.0
 71
5
 72
1
  1
3
  7
textstyle14
 50
0.0
 73
2
 44
1.0
  0
MTEXT
  5
C4
100
AcDbEntity
100
AcDbMText
  8
frame
 62
256
370
-1
 48
1.0
  6
BYLAYER
 10
140.0
 20
12.5
 30
0.0
 40
3.0
 41
0.0
 71
5
 72
1
  1
3
  7
textstyle15
 50
0.0
 73
2
 44
1.0
  0
MTEXT
  5
C5
100
AcDbEntity
100
AcDbMText
  8
frame
 62
256
370
-1
 48
1.0
  6
BYLAYER
 10
89.9999999999999716
 20
284.5000000000000568
 30
0.0
 40
3.0
 41
0.0
 71
5
 72
1
  1
2
  7
textstyle16
 50
0.0
 73
2
 44
1.0
  0
ARC
  5
C6
100
AcDbEntity
  8
outlines
 62
256
370
-1
 48
1.0
  6
BYLAYER
100
AcDbCircle
 10
132.3522783271469905
 20
215.625
 30
0.0
 40
0.5
100
AcDbArc
 50
0.0
 51
90.0
  0
MTEXT
  5
C7
100
AcDbEntity
100
AcDbMText
  8
frame
 62
256
370
-1
 48
1.0
  6
BYLAYER
 10
89.9999999999999574
 20
12.5000000000000568
 30
0.0
 40
3.0
 41
0.0
 71
5
 72
1
  1
2
  7
textstyle17
 50
0.0
 73
2
 44
1.0
  0
ARC
  5
C8
100
AcDbEntity
  8
outlines
 62
256
370
-1
 48
1.0
  6
BYLAYER
100
AcDbCircle
 10
93.0522783271469791
 20
215.625
 30
0.0
 40
0.5
100
AcDbArc
 50
90.0
 51
180.0
  0
MTEXT
  5
C9
100
AcDbEntity
100
AcDbMText
  8
frame
 62
256
370
-1
 48
1.0
  6
BYLAYER
 10
39.9999999999999716
 20
284.5
 30
0.0
 40
3.0
 41
0.0
 71
5
 72
1
  1
1
  7
textstyle18
 50
0.0
 73
2
 44
1.0
  0
ARC
  5
CA
100
AcDbEntity
  8
outlines
 62
256
370
-1
 48
1.0
  6
BYLAYER
100
AcDbCircle
 10
132.3522783271469905
 20
88.125
 30
0.0
 40
0.5
100
AcDbArc
 50
270.0
 51
0.0
  0
MTEXT
  5
CB
100
AcDbEntity
100
AcDbMText
  8
frame
 62
256
370
-1
 48
1.0
  6
BYLAYER
 10
39.9999999999999645
 20
12.5
 30
0.0
 40
3.0
 41
0.0
 71
5
 72
1
  1
1
  7
textstyle19
 50
0.0
 73
2
 44
1.0
  0
ARC
  5
CC
100
AcDbEntity
  8
outlines
 62
256
370
-1
 48
1.0
  6
BYLAYER
100
AcDbCircle
 10
93.0522783271469791
 20
88.125
 30
0.0
 40
0.5
100
AcDbArc
 50
180.0
 51
270.0
  0
MTEXT
  5
CD
100
AcDbEntity
100
AcDbMText
  8
frame
 62
256
370
-1
 48
1.0
  6
BYLAYER
 10
12.5
 20
23.0000000000000036
 30
0.0
 40
3.0
 41
0.0
 71
5
 72
1
  1
F
  7
textstyle20
 50
0.0
 73
2
 44
1.0
  0
LINE
  5
CE
100
AcDbEntity
100
AcDbLine
  8
outlines
 62
256
370
-1
 48
1.0
  6
BYLAYER
 10
93.0522783271469791
 20
216.125
 30
0.0
 11
132.3522783271469905
 21
216.125
 31
0.0
  0
MTEXT
  5
CF
100
AcDbEntity
100
AcDbMText
  8
frame
 62
256
370
-1
 48
1.0
  6
BYLAYER
 10
407.5
 20
23.0000000000000036
 30
0.0
 40
3.0
 41
0.0
 71
5
 72
1
  1
F
  7
textstyle21
 50
0.0
 73
2
 44
1.0
  0
LINE
  5
D0
100
AcDbEntity
100
AcDbLine
  8
outlines
 62
256
370
-1
 48
1.0
  6
BYLAYER
 10
93.0522783271469791
 20
87.625
 30
0.0
 11
132.3522783271469905
 21
87.625
 31
0.0
  0
MTEXT
  5
D1
100
AcDbEntity
100
AcDbMText
  8
frame
 62
256
370
-1
 48
1.0
  6
BYLAYER
 10
12.4999999999999982
 20
58.0
 30
0.0
 40
3.0
 41
0.0
 71
5
 72
1
  1
E
  7
textstyle22
 50
0.0
 73
2
 44
1.0
  0
LINE
  5
D2
100
AcDbEntity
100
AcDbLine
  8
outlines
 62
256
370
-1
 48
1.0
  6
BYLAYER
 10
132.8522783271469905
 20
215.625
 30
0.0
 11
132.8522783271469905
 21
88.125
 31
0.0
  0
MTEXT
  5
D3
100
AcDbEntity
100
AcDbMText
  8
frame
 62
256
370
-1
 48
1.0
  6
BYLAYER
 10
407.5
 20
58.0
 30
0.0
 40
3.0
 41
0.0
 71
5
 72
1
  1
E
  7
textstyle23
 50
0.0
 73
2
 44
1.0
  0
LINE
  5
D4
100
AcDbEntity
100
AcDbLine
  8
outlines
 62
256
370
-1
 48
1.0
  6
BYLAYER
 10
92.5522783271469791
 20
88.125
 30
0.0
 11
92.5522783271469791
 21
215.625
 31
0.0
  0
MTEXT
  5
D5
100
AcDbEntity
100
AcDbMText
  8
frame
 62
256
370
-1
 48
1.0
  6
BYLAYER
 10
12.5000000000000071
 20
108.0
 30
0.0
 40
3.0
 41
0.0
 71
5
 72
1
  1
D
  7
textstyle24
 50
0.0
 73
2
 44
1.0
  0
MTEXT
  5
D6
100
AcDbEntity
100
AcDbMText
  8
frame
 62
256
370
-1
 48
1.0
  6
BYLAYER
 10
407.5
 20
108.0
 30
0.0
 40
3.0
 41
0.0
 71
5
 72
1
  1
D
  7
textstyle25
 50
0.0
 73
2
 44
1.0
  0
MTEXT
  5
D7
100
AcDbEntity
100
AcDbMText
  8
frame
 62
256
370
-1
 48
1.0
  6
BYLAYER
 10
12.4999999999999929
 20
158.0
 30
0.0
 40
3.0
 41
0.0
 71
5
 72
1
  1
C
  7
textstyle26
 50
0.0
 73
2
 44
1.0
  0
MTEXT
  5
D8
100
AcDbEntity
100
AcDbMText
  8
frame
 62
256
370
-1
 48
1.0
  6
BYLAYER
 10
407.5
 20
158.0
 30
0.0
 40
3.0
 41
0.0
 71
5
 72
1
  1
C
  7
textstyle27
 50
0.0
 73
2
 44
1.0
  0
MTEXT
  5
D9
100
AcDbEntity
100
AcDbMText
  8
frame
 62
256
370
-1
 48
1.0
  6
BYLAYER
 10
12.5000000000000089
 20
208.0
 30
0.0
 40
3.0
 41
0.0
 71
5
 72
1
  1
B
  7
textstyle28
 50
0.0
 73
2
 44
1.0
  0
MTEXT
  5
DA
100
AcDbEntity
100
AcDbMText
  8
frame
 62
256
370
-1
 48
1.0
  6
BYLAYER
 10
407.5
 20
208.0
 30
0.0
 40
3.0
 41
0.0
 71
5
 72
1
  1
B
  7
textstyle29
 50
0.0
 73
2
 44
1.0
  0
MTEXT
  5
DB
100
AcDbEntity
100
AcDbMText
  8
frame
 62
256
370
-1
 48
1.0
  6
BYLAYER
 10
12.4999999999999929
 20
257.0
 30
0.0
 40
3.0
 41
0.0
 71
5
 72
1
  1
A
  7
textstyle30
 50
0.0
 73
2
 44
1.0
  0
MTEXT
  5
DC
100
AcDbEntity
100
AcDbMText
  8
frame
 62
256
370
-1
 48
1.0
  6
BYLAYER
 10
407.5
 20
257.0
 30
0.0
 40
3.0
 41
0.0
 71
5
 72
1
  1
A
  7
textstyle31
 50
0.0
 73
2
 44
1.0
  0
LINE
  5
DD
100
AcDbEntity
100
AcDbLine
  8
frame
 62
256
370
-1
 48
1.0
  6
BYLAYER
 10
15.0
 20
232.0
 30
0.0
 11
10.0
 21
232.0
 31
0.0
  0
LINE
  5
DE
100
AcDbEntity
100
AcDbLine
  8
frame
 62
256
370
-1
 48
1.0
  6
BYLAYER
 10
15.0
 20
182.0
 30
0.0
 11
10.0
 21
182.0
 31
0.0
  0
LINE
  5
DF
100
AcDbEntity
100
AcDbLine
  8
frame
 62
256
370
-1
 48
1.0
  6
BYLAYER
 10
15.0
 20
132.0
 30
0.0
 11
10.0
 21
132.0
 31
0.0
  0
LINE
  5
E0
100
AcDbEntity
100
AcDbLine
  8
frame
 62
256
370
-1
 48
1.0
  6
BYLAYER
 10
15.0
 20
82.0
 30
0.0
 11
10.0
 21
82.0
 31
0.0
  0
LINE
  5
E1
100
AcDbEntity
100
AcDbLine
  8
frame
 62
256
370
-1
 48
1.0
  6
BYLAYER
 10
15.0
 20
32.0
 30
0.0
 11
10.0
 21
32.0
 31
0.0
  0
LINE
  5
E2
100
AcDbEntity
100
AcDbLine
  8
frame
 62
256
370
-1
 48
1.0
  6
BYLAYER
 10
410.0
 20
182.0
 30
0.0
 11
405.0
 21
182.0
 31
0.0
  0
LINE
  5
E3
100
AcDbEntity
100
AcDbLine
  8
frame
 62
256
370
-1
 48
1.0
  6
BYLAYER
 10
410.0
 20
232.0
 30
0.0
 11
405.0
 21
232.0
 31
0.0
  0
LINE
  5
E4
100
AcDbEntity
100
AcDbLine
  8
frame
 62
256
370
-1
 48
1.0
  6
BYLAYER
 10
410.0
 20
32.0
 30
0.0
 11
405.0
 21
32.0
 31
0.0
  0
LINE
  5
E5
100
AcDbEntity
100
AcDbLine
  8
frame
 62
256
370
-1
 48
1.0
  6
BYLAYER
 10
410.0
 20
82.0
 30
0.0
 11
405.0
 21
82.0
 31
0.0
  0
LINE
  5
E6
100
AcDbEntity
100
AcDbLine
  8
frame
 62
256
370
-1
 48
1.0
  6
BYLAYER
 10
410.0
 20
132.0
 30
0.0
 11
405.0
 21
132.0
 31
0.0
  0
LINE
  5
E7
100
AcDbEntity
100
AcDbLine
  8
frame
 62
256
370
-1
 48
1.0
  6
BYLAYER
 10
315.0
 20
287.0
 30
0.0
 11
315.0
 21
282.0
 31
0.0
  0
LINE
  5
E8
100
AcDbEntity
100
AcDbLine
  8
frame
 62
256
370
-1
 48
1.0
  6
BYLAYER
 10
265.0
 20
287.0
 30
0.0
 11
265.0
 21
282.0
 31
0.0
  0
LINE
  5
E9
100
AcDbEntity
100
AcDbLine
  8
frame
 62
256
370
-1
 48
1.0
  6
BYLAYER
 10
365.0
 20
287.0
 30
0.0
 11
365.0
 21
282.0
 31
0.0
  0
LINE
  5
EA
100
AcDbEntity
100
AcDbLine
  8
frame
 62
256
370
-1
 48
1.0
  6
BYLAYER
 10
365.0
 20
15.0
 30
0.0
 11
365.0
 21
10.0
 31
0.0
  0
LINE
  5
EB
100
AcDbEntity
100
AcDbLine
  8
frame
 62
256
370
-1
 48
1.0
  6
BYLAYER
 10
265.0
 20
15.0
 30
0.0
 11
265.0
 21
10.0
 31
0.0
  0
LINE
  5
EC
100
AcDbEntity
100
AcDbLine
  8
frame
 62
256
370
-1
 48
1.0
  6
BYLAYER
 10
315.0
 20
15.0
 30
0.0
 11
315.0
 21
10.0
 31
0.0
  0
LINE
  5
ED
100
AcDbEntity
100
AcDbLine
  8
frame
 62
256
370
-1
 48
1.0
  6
BYLAYER
 10
215.0
 20
287.0
 30
0.0
 11
215.0
 21
282.0
 31
0.0
  0
LINE
  5
EE
100
AcDbEntity
100
AcDbLine
  8
frame
 62
256
370
-1
 48
1.0
  6
BYLAYER
 10
165.0
 20
287.0
 30
0.0
 11
165.0
 21
282.0
 31
0.0
  0
LINE
  5
EF
100
AcDbEntity
100
AcDbLine
  8
frame
 62
256
370
-1
 48
1.0
  6
BYLAYER
 10
165.0
 20
15.0
 30
0.0
 11
165.0
 21
10.0
 31
0.0
  0
LINE
  5
F0
100
AcDbEntity
100
AcDbLine
  8
frame
 62
256
370
-1
 48
1.0
  6
BYLAYER
 10
215.0
 20
15.0
 30
0.0
 11
215.0
 21
10.0
 31
0.0
  0
LINE
  5
F1
100
AcDbEntity
100
AcDbLine
  8
frame
 62
256
370
-1
 48
1.0
  6
BYLAYER
 10
115.0
 20
287.0
 30
0.0
 11
115.0
 21
282.0
 31
0.0
  0
LINE
  5
F2
100
AcDbEntity
100
AcDbLine
  8
frame
 62
256
370
-1
 48
1.0
  6
BYLAYER
 10
65.0
 20
287.0
 30
0.0
 11
65.0
 21
282.0
 31
0.0
  0
DIMENSION
  5
F3
100
AcDbEntity
  8
dimensions
 62
256
370
-1
 48
1.0
  6
BYLAYER
100
AcDbDimension
 10
127.5715029181238407
 20
111.6945911020887792
 30
0.0
 11
120.8056470343437638
 21
104.3070453765175074
 31
0.0
 70
131
 71
8
 72
2
 41
1.0
 42
0.0
  1

  3
Standard
100
AcDbDiametricDimension
 15
122.2930537361700658
 25
108.2554088979112521
 35
0.0
 40
0.0
1001
ACAD
1000
DSTYLE
1002
{
1070
144
1040
1.0
1070
40
1040
1.0
1002
}
  0
LINE
  5
F4
100
AcDbEntity
100
AcDbLine
  8
frame
 62
256
370
-1
 48
1.0
  6
BYLAYER
 10
65.0
 20
15.0
 30
0.0
 11
65.0
 21
10.0
 31
0.0
  0
DIMENSION
  5
F5
100
AcDbEntity
  8
dimensions
 62
256
370
-1
 48
1.0
  6
BYLAYER
100
AcDbDimension
 10
103.489391720524722
 20
111.634989120144354
 30
0.0
 11
95.9911054114779745
 21
104.9658385169475423
 31
0.0
 70
131
 71
8
 72
2
 41
1.0
 42
0.0
  1

  3
Standard
100
AcDbDiametricDimension
 15
98.135164933769218
 25
108.3150108798557341
 35
0.0
 40
0.0
1001
ACAD
1000
DSTYLE
1002
{
1070
144
1040
1.0
1070
40
1040
1.0
1002
}
  0
LINE
  5
F6
100
AcDbEntity
100
AcDbLine
  8
frame
 62
256
370
-1
 48
1.0
  6
BYLAYER
 10
115.0
 20
15.0
 30
0.0
 11
115.0
 21
10.0
 31
0.0
  0
DIMENSION
  5
F7
100
AcDbEntity
  8
dimensions
 62
256
370
-1
 48
1.0
  6
BYLAYER
100
AcDbDimension
 10
107.4920636239050395
 20
121.3539593202508655
 30
0.0
 11
109.4625975917932692
 21
124.5610750899746648
 31
0.0
 70
3
 71
8
 72
2
 41
1.0
 42
0.0
  1

  3
Standard
100
AcDbDiametricDimension
 15
103.0124930303889386
 25
118.9160406797491589
 35
0.0
 40
0.0
1001
ACAD
1000
DSTYLE
1002
{
1070
144
1040
1.0
1070
40
1040
1.0
1002
}
  0
LINE
  5
F8
100
AcDbEntity
100
AcDbLine
  8
frame
 62
256
370
-1
 48
1.0
  6
BYLAYER
 10
15.0
 20
282.0
 30
0.0
 11
15.0
 21
15.0
 31
0.0
  0
DIMENSION
  5
F9
100
AcDbEntity
  8
dimensions
 62
256
370
-1
 48
1.0
  6
BYLAYER
100
AcDbDimension
 10
131.6040916529823903
 20
121.3864174144305537
 30
0.0
 11
138.0440675422638321
 21
122.9728510220360249
 31
0.0
 70
131
 71
8
 72
2
 41
1.0
 42
0.0
  1

  3
Standard
100
AcDbDiametricDimension
 15
127.1604650013115361
 25
118.8835825855694566
 35
0.0
 40
0.0
1001
ACAD
1000
DSTYLE
1002
{
1070
144
1040
1.0
1070
40
1040
1.0
1002
}
  0
LINE
  5
FA
100
AcDbEntity
100
AcDbLine
  8
frame
 62
256
370
-1
 48
1.0
  6
BYLAYER
 10
405.0
 20
282.0
 30
0.0
 11
15.0
 21
282.0
 31
0.0
  0
DIMENSION
  5
FB
100
AcDbEntity
  8
dimensions
 62
256
370
-1
 48
1.0
  6
BYLAYER
100
AcDbDimension
 10
127.6895300860210369
 20
133.0881752158520328
 30
0.0
 11
121.4644401747738556
 21
135.3801218334689054
 31
0.0
 70
131
 71
8
 72
2
 41
1.0
 42
0.0
  1

  3
Standard
100
AcDbDiametricDimension
 15
122.1750265682728838
 25
130.0418247841479911
 35
0.0
 40
0.0
1001
ACAD
1000
DSTYLE
1002
{
1070
144
1040
1.0
1070
40
1040
1.0
1002
}
  0
LINE
  5
FC
100
AcDbEntity
100
AcDbLine
  8
frame
 62
256
370
-1
 48
1.0
  6
BYLAYER
 10
405.0
 20
15.0
 30
0.0
 11
405.0
 21
282.0
 31
0.0
  0
DIMENSION
  5
FD
100
AcDbEntity
  8
dimensions
 62
256
370
-1
 48
1.0
  6
BYLAYER
100
AcDbDimension
 10
103.5724785375515751
 20
133.0828256811908545
 30
0.0
 11
96.5400996951696868
 21
134.8311275497771362
 31
0.0
 70
131
 71
8
 72
2
 41
1.0
 42
0.0
  1

  3
Standard
100
AcDbDiametricDimension
 15
98.052078116742365
 25
130.0471743188092262
 35
0.0
 40
0.0
1001
ACAD
1000
DSTYLE
1002
{
1070
144
1040
1.0
1070
40
1040
1.0
1002
}
  0
LINE
  5
FE
100
AcDbEntity
100
AcDbLine
  8
frame
 62
256
370
-1
 48
1.0
  6
BYLAYER
 10
15.0
 20
15.0
 30
0.0
 11
405.0
 21
15.0
 31
0.0
  0
DIMENSION
  5
FF
100
AcDbEntity
  8
dimensions
 62
256
370
-1
 48
1.0
  6
BYLAYER
100
AcDbDimension
 10
127.6070943055950693
 20
154.8186885169523066
 30
0.0
 11
121.0252447478204658
 21
156.4615023272307894
 31
0.0
 70
131
 71
8
 72
2
 41
1.0
 42
0.0
  1

  3
Standard
100
AcDbDiametricDimension
 15
122.2574623486988799
 25
151.4913114830476957
 35
0.0
 40
0.0
1001
ACAD
1000
DSTYLE
1002
{
1070
144
1040
1.0
1070
40
1040
1.0
1002
}
  0
LINE
  5
100
100
AcDbEntity
100
AcDbLine
  8
frame
 62
256
370
-1
 48
1.0
  6
BYLAYER
 10
10.0
 20
287.0
 30
0.0
 11
10.0
 21
10.0
 31
0.0
  0
DIMENSION
  5
101
100
AcDbEntity
  8
dimensions
 62
256
370
-1
 48
1.0
  6
BYLAYER
100
AcDbDimension
 10
103.5165900587644643
 20
154.7703012283275825
 30
0.0
 11
96.43030083843135
 21
156.3517034704924811
 31
0.0
 70
131
 71
8
 72
2
 41
1.0
 42
0.0
  1

  3
Standard
100
AcDbDiametricDimension
 15
98.1079665955295184
 25
151.5396987716724766
 35
0.0
 40
0.0
1001
ACAD
1000
DSTYLE
1002
{
1070
144
1040
1.0
1070
40
1040
1.0
1002
}
  0
LINE
  5
102
100
AcDbEntity
100
AcDbLine
  8
frame
 62
256
370
-1
 48
1.0
  6
BYLAYER
 10
410.0
 20
287.0
 30
0.0
 11
10.0
 21
287.0
 31
0.0
  0
DIMENSION
  5
103
100
AcDbEntity
  8
dimensions
 62
256
370
-1
 48
1.0
  6
BYLAYER
100
AcDbDimension
 10
127.3425955798804239
 20
176.7730213857786339
 30
0.0
 11
120.805647034343778
 21
178.4212736748999077
 31
0.0
 70
131
 71
8
 72
2
 41
1.0
 42
0.0
  1

  3
Standard
100
AcDbDiametricDimension
 15
122.5219610744135394
 25
172.7169786142213752
 35
0.0
 40
0.0
1001
ACAD
1000
DSTYLE
1002
{
1070
144
1040
1.0
1070
40
1040
1.0
1002
}
  0
LINE
  5
104
100
AcDbEntity
100
AcDbLine
  8
frame
 62
256
370
-1
 48
1.0
  6
BYLAYER
 10
410.0
 20
10.0
 30
0.0
 11
410.0
 21
287.0
 31
0.0
  0
DIMENSION
  5
105
100
AcDbEntity
  8
dimensions
 62
256
370
-1
 48
1.0
  6
BYLAYER
100
AcDbDimension
 10
103.5956829615067392
 20
176.2198419038746806
 30
0.0
 11
96.649898551908052
 21
178.0918771046848974
 31
0.0
 70
131
 71
8
 72
2
 41
1.0
 42
0.0
  1

  3
Standard
100
AcDbDiametricDimension
 15
98.0288736927872293
 25
173.2701580961253569
 35
0.0
 40
0.0
1001
ACAD
1000
DSTYLE
1002
{
1070
144
1040
1.0
1070
40
1040
1.0
1002
}
  0
LINE
  5
106
100
AcDbEntity
100
AcDbLine
  8
frame
 62
256
370
-1
 48
1.0
  6
BYLAYER
 10
10.0
 20
10.0
 30
0.0
 11
410.0
 21
10.0
 31
0.0
  0
DIMENSION
  5
107
100
AcDbEntity
  8
dimensions
 62
256
370
-1
 48
1.0
  6
BYLAYER
100
AcDbDimension
 10
125.7363298405256273
 20
186.8177308486937704
 30
0.0
 11
129.5115921110426029
 21
185.4736986442474063
 31
0.0
 70
3
 71
8
 72
2
 41
1.0
 42
0.0
  1

  3
Standard
100
AcDbDiametricDimension
 15
124.1282268137683502
 25
188.5722691513061591
 35
0.0
 40
0.0
1001
ACAD
1000
DSTYLE
1002
{
1070
144
1040
1.0
1070
40
1040
1.0
1002
}
  0
DIMENSION
  5
108
100
AcDbEntity
  8
dimensions
 62
256
370
-1
 48
1.0
  6
BYLAYER
100
AcDbDimension
 10
101.7195049361511252
 20
186.9249091742431688
 30
0.0
 11
105.6329625315436118
 21
186.062425883481751
 31
0.0
 70
3
 71
8
 72
2
 41
1.0
 42
0.0
  1

  3
Standard
100
AcDbDiametricDimension
 15
99.9050517181428432
 25
188.4650908257568744
 35
0.0
 40
0.0
1001
ACAD
1000
DSTYLE
1002
{
1070
144
1040
1.0
1070
40
1040
1.0
1002
}
  0
LINE
  5
109
100
AcDbEntity
100
AcDbLine
  8
paper outline
 62
256
370
-1
 48
1.0
  6
BYLAYER
 10
0.0
 20
297.0
 30
0.0
 11
0.0
 21
0.0
 31
0.0
  0
DIMENSION
  5
10A
100
AcDbEntity
  8
dimensions
 62
256
370
-1
 48
1.0
  6
BYLAYER
100
AcDbDimension
 10
127.5398837606158793
 20
191.9836416965869148
 30
0.0
 11
128.4915670060278785
 21
198.4046656012785377
 31
0.0
 70
131
 71
8
 72
2
 41
1.0
 42
0.0
  1

  3
Standard
100
AcDbDiametricDimension
 15
122.3246728936780841
 25
195.6063583034130886
 35
0.0
 40
0.0
1001
ACAD
1000
DSTYLE
1002
{
1070
144
1040
1.0
1070
40
1040
1.0
1002
}
  0
LINE
  5
10B
100
AcDbEntity
100
AcDbLine
  8
paper outline
 62
256
370
-1
 48
1.0
  6
BYLAYER
 10
420.0
 20
297.0
 30
0.0
 11
0.0
 21
297.0
 31
0.0
  0
DIMENSION
  5
10C
100
AcDbEntity
  8
dimensions
 62
256
370
-1
 48
1.0
  6
BYLAYER
100
AcDbDimension
 10
103.7053824252000567
 20
192.4871109841317889
 30
0.0
 11
96.5400996951696584
 21
198.95365988497025
 31
0.0
 70
131
 71
8
 72
2
 41
1.0
 42
0.0
  1

  3
Standard
100
AcDbDiametricDimension
 15
97.9191742290939402
 25
195.1028890158682145
 35
0.0
 40
0.0
1001
ACAD
1000
DSTYLE
1002
{
1070
144
1040
1.0
1070
40
1040
1.0
1002
}
  0
LINE
  5
10D
100
AcDbEntity
100
AcDbLine
  8
paper outline
 62
256
370
-1
 48
1.0
  6
BYLAYER
 10
420.0
 20
0.0
 30
0.0
 11
420.0
 21
297.0
 31
0.0
  0
DIMENSION
  5
10E
100
AcDbEntity
  8
dimensions
 62
256
370
-1
 48
1.0
  6
BYLAYER
100
AcDbDimension
 10
114.3657642284035347
 20
196.909020785989469
 30
0.0
 11
116.9989768908326937
 21
199.9298185038448707
 31
0.0
 70
3
 71
8
 72
2
 41
1.0
 42
0.0
  1

  3
Standard
100
AcDbDiametricDimension
 15
111.3787924258904383
 25
195.7609792140105469
 35
0.0
 40
0.0
1001
ACAD
1000
DSTYLE
1002
{
1070
144
1040
1.0
1070
40
1040
1.0
1002
}
  0
LINE
  5
10F
100
AcDbEntity
100
AcDbLine
  8
paper outline
 62
256
370
-1
 48
1.0
  6
BYLAYER
 10
0.0
 20
0.0
 30
0.0
 11
420.0
 21
0.0
 31
0.0
  0
DIMENSION
  5
110
100
AcDbEntity
  8
dimensions
 62
256
370
-1
 48
1.0
  6
BYLAYER
100
AcDbDimension
 10
126.1427481725703501
 20
211.6816527124212257
 30
0.0
 11
129.3625545476232617
 21
209.2958877020008117
 31
0.0
 70
3
 71
8
 72
2
 41
1.0
 42
0.0
  1

  3
Standard
100
AcDbDiametricDimension
 15
124.7618084817235911
 25
214.5683472875787743
 35
0.0
 40
0.0
1001
ACAD
1000
DSTYLE
1002
{
1070
144
1040
1.0
1070
40
1040
1.0
1002
}
  0
DIMENSION
  5
111
100
AcDbEntity
  8
dimensions
 62
256
370
-1
 48
1.0
  6
BYLAYER
100
AcDbDimension
 10
100.8343363977379283
 20
211.7291543157556362
 30
0.0
 11
104.2012111839677573
 21
209.5558660349176705
 31
0.0
 70
3
 71
8
 72
2
 41
1.0
 42
0.0
  1

  3
Standard
100
AcDbDiametricDimension
 15
99.2702202565560299
 25
214.5208456842443923
 35
0.0
 40
0.0
1001
ACAD
1000
DSTYLE
1002
{
1070
144
1040
1.0
1070
40
1040
1.0
1002
}
  0
DIMENSION
  5
112
100
AcDbEntity
  8
dimensions
 62
256
370
-1
 48
1.0
  6
BYLAYER
100
AcDbDimension
 10
114.2536723337097868
 20
108.2423107200033456
 30
0.0
 11
116.523491621548331
 21
112.9811550588466957
 31
0.0
 70
131
 71
8
 72
2
 41
1.0
 42
0.0
  1

  3
Standard
100
AcDbDiametricDimension
 15
111.4908843205841009
 25
106.6276892799967584
 35
0.0
 40
0.0
1001
ACAD
1000
DSTYLE
1002
{
1070
144
1040
1.0
1070
40
1040
1.0
1002
}
  0
DIMENSION
  5
113
100
AcDbEntity
  8
dimensions
 62
256
370
-1
 48
1.0
  6
BYLAYER
100
AcDbDimension
 10
126.9473385485782586
 20
91.1949078296478035
 30
0.0
 11
129.5888559050237916
 21
94.208446253722542
 31
0.0
 70
3
 71
8
 72
2
 41
1.0
 42
0.0
  1

  3
Standard
100
AcDbDiametricDimension
 15
123.957218105715711
 25
90.0550921703522249
 35
0.0
 40
0.0
1001
ACAD
1000
DSTYLE
1002
{
1070
144
1040
1.0
1070
40
1040
1.0
1002
}
  0
DIMENSION
  5
114
100
AcDbEntity
  8
dimensions
 62
256
370
-1
 48
1.0
  6
BYLAYER
100
AcDbDimension
 10
101.6281092324835242
 20
90.9020504607217816
 30
0.0
 11
104.7916080924087225
 21
93.3619900414899035
 31
0.0
 70
3
 71
8
 72
2
 41
1.0
 42
0.0
  1

  3
Standard
100
AcDbDiametricDimension
 15
98.4764474218103913
 25
90.3479495392782326
 35
0.0
 40
0.0
1001
ACAD
1000
DSTYLE
1002
{
1070
144
1040
1.0
1070
40
1040
1.0
1002
}
  0
MTEXT
  5
115
100
AcDbEntity
100
AcDbMText
  8
notes
 62
256
370
-1
 48
1.0
  6
BYLAYER
 10
119.4274517845640133
 20
68.406332786494545
 30
0.0
 40
1.0
 41
0.0
 71
5
 72
1
  1
\H2.5;NOTE 3
  7
textstyle32
 50
0.0
 73
2
 44
1.0
  0
MTEXT
  5
116
100
AcDbEntity
100
AcDbMText
  8
notes
 62
256
370
-1
 48
1.0
  6
BYLAYER
 10
106.7153793468255145
 20
80.9286727997892115
 30
0.0
 40
1.0
 41
0.0
 71
5
 72
1
  1
\H2.5;NOTE 3
  7
textstyle33
 50
0.0
 73
2
 44
1.0
  0
MTEXT
  5
117
100
AcDbEntity
100
AcDbMText
  8
notes
 62
256
370
-1
 48
1.0
  6
BYLAYER
 10
120.1863814823394989
 20
241.2525714548500559
 30
0.0
 40
1.0
 41
0.0
 71
5
 72
1
  1
\H2.5;NOTE 3
  7
textstyle34
 50
0.0
 73
2
 44
1.0
  0
MTEXT
  5
118
100
AcDbEntity
100
AcDbMText
  8
notes
 62
256
370
-1
 48
1.0
  6
BYLAYER
 10
106.1461820734939465
 20
225.8842450748974215
 30
0.0
 40
1.0
 41
0.0
 71
5
 72
1
  1
\H2.5;NOTE 3
  7
textstyle35
 50
0.0
 73
2
 44
1.0
  0
DIMENSION
  5
119
100
AcDbEntity
  8
dimensions
 62
256
370
-1
 48
1.0
  6
BYLAYER
100
AcDbDimension
 10
93.0522783271469791
 20
215.6250000000000284
 30
0.0
 11
87.811449523353474
 21
218.9500989299227172
 31
0.0
 70
4
 71
8
 72
2
 41
1.0
 42
0.0
  1

  3
Standard
100
AcDbRadialDimension
 15
92.5688890034359986
 25
215.7528075182541158
 35
0.0
 40
0.0
1001
ACAD
1000
DSTYLE
1002
{
1070
144
1040
1.0
1070
40
1040
1.0
1002
}
  0
DIMENSION
  5
11A
100
AcDbEntity
  8
dimensions
 62
256
370
-1
 48
1.0
  6
BYLAYER
100
AcDbDimension
 10
132.3522783271470189
 20
215.625
 30
0.0
 11
136.1803900075362037
 21
220.5105020629319199
 31
0.0
 70
4
 71
8
 72
2
 41
1.0
 42
0.0
  1

  3
Standard
100
AcDbRadialDimension
 15
132.7651528783825938
 25
215.9070188024618346
 35
0.0
 40
0.0
1001
ACAD
1000
DSTYLE
1002
{
1070
144
1040
1.0
1070
40
1040
1.0
1002
}
  0
DIMENSION
  5
11B
100
AcDbEntity
  8
dimensions
 62
256
370
-1
 48
1.0
  6
BYLAYER
100
AcDbDimension
 10
132.3522783271469621
 20
88.1250000000000142
 30
0.0
 11
136.740531968186275
 21
83.7357176638601715
 31
0.0
 70
4
 71
8
 72
2
 41
1.0
 42
0.0
  1

  3
Standard
100
AcDbRadialDimension
 15
132.582454168456394
 25
87.6811316838549573
 35
0.0
 40
0.0
1001
ACAD
1000
DSTYLE
1002
{
1070
144
1040
1.0
1070
40
1040
1.0
1002
}
  0
DIMENSION
  5
11C
100
AcDbEntity
  8
dimensions
 62
256
370
-1
 48
1.0
  6
BYLAYER
100
AcDbDimension
 10
93.0522783271469649
 20
88.1250000000000284
 30
0.0
 11
88.1825225641757413
 21
84.2768773079002784
 31
0.0
 70
4
 71
8
 72
2
 41
1.0
 42
0.0
  1

  3
Standard
100
AcDbRadialDimension
 15
92.7719557544141225
 25
87.710971914942462
 35
0.0
 40
0.0
1001
ACAD
1000
DSTYLE
1002
{
1070
144
1040
1.0
1070
40
1040
1.0
1002
}
  0
DIMENSION
  5
11D
100
AcDbEntity
  8
dimensions
 62
256
370
-1
 48
1.0
  6
BYLAYER
100
AcDbDimension
 10
168.8522783271469621
 20
87.625
 30
0.0
 11
166.9772783271469621
 21
151.875
 31
0.0
 70
1
 71
8
 72
2
 41
1.0
 42
0.0
  1

  3
Standard
100
AcDbAlignedDimension
 13
132.8522783271469905
 23
87.6250000000000142
 33
0.0
 14
132.8522783271470189
 24
216.1250000000000284
 34
0.0
1001
ACAD
1000
DSTYLE
1002
{
1070
144
1040
1.0
1070
40
1040
1.0
1002
}
  0
DIMENSION
  5
11E
100
AcDbEntity
  8
dimensions
 62
256
370
-1
 48
1.0
  6
BYLAYER
100
AcDbDimension
 10
161.8522783271469905
 20
87.6250000000000142
 30
0.0
 11
159.9772783271470189
 21
150.375
 31
0.0
 70
1
 71
8
 72
2
 41
1.0
 42
0.0
  1

  3
Standard
100
AcDbAlignedDimension
 13
132.8522783271469905
 23
87.6250000000000142
 33
0.0
 14
132.8522783271470189
 24
213.125
 34
0.0
1001
ACAD
1000
DSTYLE
1002
{
1070
144
1040
1.0
1070
40
1040
1.0
1002
}
  0
DIMENSION
  5
11F
100
AcDbEntity
  8
dimensions
 62
256
370
-1
 48
1.0
  6
BYLAYER
100
AcDbDimension
 10
154.8522783271469621
 20
87.6250000000000142
 30
0.0
 11
152.9772783271469621
 21
141.9800000000000182
 31
0.0
 70
1
 71
8
 72
2
 41
1.0
 42
0.0
  1

  3
Standard
100
AcDbAlignedDimension
 13
132.8522783271469905
 23
87.6250000000000142
 33
0.0
 14
132.8522783271469905
 24
196.3350000000000364
 34
0.0
1001
ACAD
1000
DSTYLE
1002
{
1070
144
1040
1.0
1070
40
1040
1.0
1002
}
  0
DIMENSION
  5
120
100
AcDbEntity
  8
dimensions
 62
256
370
-1
 48
1.0
  6
BYLAYER
100
AcDbDimension
 10
147.8522783271469621
 20
87.6250000000000142
 30
0.0
 11
145.9772783271469621
 21
97.5300000000000011
 31
0.0
 70
1
 71
8
 72
2
 41
1.0
 42
0.0
  1

  3
Standard
100
AcDbAlignedDimension
 13
132.8522783271469905
 23
87.6250000000000142
 33
0.0
 14
132.8522783271469905
 24
107.4350000000000023
 34
0.0
1001
ACAD
1000
DSTYLE
1002
{
1070
144
1040
1.0
1070
40
1040
1.0
1002
}
  0
DIMENSION
  5
121
100
AcDbEntity
  8
dimensions
 62
256
370
-1
 48
1.0
  6
BYLAYER
100
AcDbDimension
 10
140.8522783271469621
 20
87.6250000000000853
 30
0.0
 11
138.9772783271469052
 21
94.1666666666667425
 31
0.0
 70
1
 71
8
 72
2
 41
1.0
 42
0.0
  1

  3
Standard
100
AcDbAlignedDimension
 13
132.8522783271469905
 23
87.6250000000000142
 33
0.0
 14
132.8522783271469621
 24
90.6250000000000142
 34
0.0
1001
ACAD
1000
DSTYLE
1002
{
1070
144
1040
1.0
1070
40
1040
1.0
1002
}
  0
DIMENSION
  5
122
100
AcDbEntity
  8
dimensions
 62
256
370
-1
 48
1.0
  6
BYLAYER
100
AcDbDimension
 10
42.5522783271469507
 20
87.6250000000000142
 30
0.0
 11
40.6772783271469507
 21
140.7100000000000364
 31
0.0
 70
1
 71
8
 72
2
 41
1.0
 42
0.0
  1

  3
Standard
100
AcDbAlignedDimension
 13
92.5522783271469649
 23
87.6250000000000142
 33
0.0
 14
92.5522783271469649
 24
193.7950000000000443
 34
0.0
1001
ACAD
1000
DSTYLE
1002
{
1070
144
1040
1.0
1070
40
1040
1.0
1002
}
  0
DIMENSION
  5
123
100
AcDbEntity
  8
dimensions
 62
256
370
-1
 48
1.0
  6
BYLAYER
100
AcDbDimension
 10
49.5522783271469791
 20
87.6250000000000142
 30
0.0
 11
47.6772783271469933
 21
137.6599999999999682
 31
0.0
 70
1
 71
8
 72
2
 41
1.0
 42
0.0
  1

  3
Standard
100
AcDbAlignedDimension
 13
92.5522783271469649
 23
87.6250000000000142
 33
0.0
 14
92.5522783271469933
 24
187.6949999999999363
 34
0.0
1001
ACAD
1000
DSTYLE
1002
{
1070
144
1040
1.0
1070
40
1040
1.0
1002
}
  0
DIMENSION
  5
124
100
AcDbEntity
  8
dimensions
 62
256
370
-1
 48
1.0
  6
BYLAYER
100
AcDbDimension
 10
56.5522783271469507
 20
87.6250000000000142
 30
0.0
 11
54.6772783271469507
 21
131.1850000000000307
 31
0.0
 70
1
 71
8
 72
2
 41
1.0
 42
0.0
  1

  3
Standard
100
AcDbAlignedDimension
 13
92.5522783271469649
 23
87.6250000000000142
 33
0.0
 14
92.5522783271469649
 24
174.7450000000000614
 34
0.0
1001
ACAD
1000
DSTYLE
1002
{
1070
144
1040
1.0
1070
40
1040
1.0
1002
}
  0
DIMENSION
  5
125
100
AcDbEntity
  8
dimensions
 62
256
370
-1
 48
1.0
  6
BYLAYER
100
AcDbDimension
 10
63.5522783271469791
 20
87.6250000000000284
 30
0.0
 11
61.6772783271469933
 21
120.3900000000001427
 31
0.0
 70
1
 71
8
 72
2
 41
1.0
 42
0.0
  1

  3
Standard
100
AcDbAlignedDimension
 13
92.5522783271469649
 23
87.6250000000000142
 33
0.0
 14
92.5522783271469933
 24
153.1550000000002285
 34
0.0
1001
ACAD
1000
DSTYLE
1002
{
1070
144
1040
1.0
1070
40
1040
1.0
1002
}
  0
DIMENSION
  5
126
100
AcDbEntity
  8
dimensions
 62
256
370
-1
 48
1.0
  6
BYLAYER
100
AcDbDimension
 10
70.5522783271469507
 20
87.6250000000000142
 30
0.0
 11
68.6772783271469507
 21
109.5950000000000273
 31
0.0
 70
1
 71
8
 72
2
 41
1.0
 42
0.0
  1

  3
Standard
100
AcDbAlignedDimension
 13
92.5522783271469649
 23
87.6250000000000142
 33
0.0
 14
92.5522783271469791
 24
131.5650000000000261
 34
0.0
1001
ACAD
1000
DSTYLE
1002
{
1070
144
1040
1.0
1070
40
1040
1.0
1002
}
  0
DIMENSION
  5
127
100
AcDbEntity
  8
dimensions
 62
256
370
-1
 48
1.0
  6
BYLAYER
100
AcDbDimension
 10
77.5522783271469791
 20
87.6250000000000284
 30
0.0
 11
75.6772783271469791
 21
103.8800000000000239
 31
0.0
 70
1
 71
8
 72
2
 41
1.0
 42
0.0
  1

  3
Standard
100
AcDbAlignedDimension
 13
92.5522783271469649
 23
87.6250000000000142
 33
0.0
 14
92.5522783271469791
 24
120.1350000000000193
 34
0.0
1001
ACAD
1000
DSTYLE
1002
{
1070
144
1040
1.0
1070
40
1040
1.0
1002
}
  0
DIMENSION
  5
128
100
AcDbEntity
  8
dimensions
 62
256
370
-1
 48
1.0
  6
BYLAYER
100
AcDbDimension
 10
84.5522783271469507
 20
87.6250000000000142
 30
0.0
 11
82.6772783271469507
 21
98.8000000000000398
 31
0.0
 70
1
 71
8
 72
2
 41
1.0
 42
0.0
  1

  3
Standard
100
AcDbAlignedDimension
 13
92.5522783271469649
 23
87.6250000000000142
 33
0.0
 14
92.5522783271469649
 24
109.9750000000000512
 34
0.0
1001
ACAD
1000
DSTYLE
1002
{
1070
144
1040
1.0
1070
40
1040
1.0
1002
}
  0
DIMENSION
  5
129
100
AcDbEntity
  8
dimensions
 62
256
370
-1
 48
1.0
  6
BYLAYER
100
AcDbDimension
 10
92.5522783271469791
 20
245.1249999999999432
 30
0.0
 11
112.702278327146999
 21
246.9999999999999432
 31
0.0
 70
1
 71
8
 72
2
 41
1.0
 42
0.0
  1

  3
Standard
100
AcDbAlignedDimension
 13
92.5522783271469791
 23
216.125
 33
0.0
 14
132.8522783271470189
 24
216.1250000000000284
 34
0.0
1001
ACAD
1000
DSTYLE
1002
{
1070
144
1040
1.0
1070
40
1040
1.0
1002
}
  0
DIMENSION
  5
12A
100
AcDbEntity
  8
dimensions
 62
256
370
-1
 48
1.0
  6
BYLAYER
100
AcDbDimension
 10
92.5522783271469791
 20
238.125
 30
0.0
 11
109.0022783271469962
 21
240.0
 31
0.0
 70
1
 71
8
 72
2
 41
1.0
 42
0.0
  1

  3
Standard
100
AcDbAlignedDimension
 13
92.5522783271469791
 23
216.125
 33
0.0
 14
125.452278327146999
 24
216.1249999999999716
 34
0.0
1001
ACAD
1000
DSTYLE
1002
{
1070
144
1040
1.0
1070
40
1040
1.0
1002
}
  0
DIMENSION
  5
12B
100
AcDbEntity
  8
dimensions
 62
256
370
-1
 48
1.0
  6
BYLAYER
100
AcDbDimension
 10
92.5522783271469791
 20
231.1249999999999716
 30
0.0
 11
102.7122783271470041
 21
232.9999999999999716
 31
0.0
 70
1
 71
8
 72
2
 41
1.0
 42
0.0
  1

  3
Standard
100
AcDbAlignedDimension
 13
92.5522783271469791
 23
216.125
 33
0.0
 14
112.8722783271470149
 24
216.125
 34
0.0
1001
ACAD
1000
DSTYLE
1002
{
1070
144
1040
1.0
1070
40
1040
1.0
1002
}
  0
DIMENSION
  5
12C
100
AcDbEntity
  8
dimensions
 62
256
370
-1
 48
1.0
  6
BYLAYER
100
AcDbDimension
 10
92.5522783271469791
 20
224.125
 30
0.0
 11
96.3022783271469791
 21
226.0
 31
0.0
 70
1
 71
8
 72
2
 41
1.0
 42
0.0
  1

  3
Standard
100
AcDbAlignedDimension
 13
92.5522783271469791
 23
216.125
 33
0.0
 14
100.0522783271469933
 24
216.1249999999999716
 34
0.0
1001
ACAD
1000
DSTYLE
1002
{
1070
144
1040
1.0
1070
40
1040
1.0
1002
}
  0
DIMENSION
  5
12D
100
AcDbEntity
  8
dimensions
 62
256
370
-1
 48
1.0
  6
BYLAYER
100
AcDbDimension
 10
92.5522783271469649
 20
58.6250000000000284
 30
0.0
 11
110.9672783271469712
 21
60.5000000000000142
 31
0.0
 70
1
 71
8
 72
2
 41
1.0
 42
0.0
  1

  3
Standard
100
AcDbAlignedDimension
 13
92.5522783271469649
 23
87.6250000000000142
 33
0.0
 14
129.3822783271469632
 24
87.6249999999999858
 34
0.0
1001
ACAD
1000
DSTYLE
1002
{
1070
144
1040
1.0
1070
40
1040
1.0
1002
}
  0
DIMENSION
  5
12E
100
AcDbEntity
  8
dimensions
 62
256
370
-1
 48
1.0
  6
BYLAYER
100
AcDbDimension
 10
92.5522783271469649
 20
65.6250000000000142
 30
0.0
 11
108.7422783271469484
 21
67.5000000000000284
 31
0.0
 70
1
 71
8
 72
2
 41
1.0
 42
0.0
  1

  3
Standard
100
AcDbAlignedDimension
 13
92.5522783271469649
 23
87.6250000000000142
 33
0.0
 14
124.9322783271469461
 24
87.6250000000000426
 34
0.0
1001
ACAD
1000
DSTYLE
1002
{
1070
144
1040
1.0
1070
40
1040
1.0
1002
}
  0
DIMENSION
  5
12F
100
AcDbEntity
  8
dimensions
 62
256
370
-1
 48
1.0
  6
BYLAYER
100
AcDbDimension
 10
92.5522783271469649
 20
72.6250000000000568
 30
0.0
 11
98.9022783271469592
 21
74.5000000000000711
 31
0.0
 70
1
 71
8
 72
2
 41
1.0
 42
0.0
  1

  3
Standard
100
AcDbAlignedDimension
 13
92.5522783271469649
 23
87.6250000000000142
 33
0.0
 14
105.2522783271469535
 24
87.6250000000000426
 34
0.0
1001
ACAD
1000
DSTYLE
1002
{
1070
144
1040
1.0
1070
40
1040
1.0
1002
}
  0
DIMENSION
  5
130
100
AcDbEntity
  8
dimensions
 62
256
370
-1
 48
1.0
  6
BYLAYER
100
AcDbDimension
 10
92.5522783271469649
 20
79.6250000000000284
 30
0.0
 11
96.6822783271469604
 21
81.5000000000000426
 31
0.0
 70
1
 71
8
 72
2
 41
1.0
 42
0.0
  1

  3
Standard
100
AcDbAlignedDimension
 13
92.5522783271469649
 23
87.6250000000000142
 33
0.0
 14
100.8122783271469558
 24
87.6250000000000426
 34
0.0
1001
ACAD
1000
DSTYLE
1002
{
1070
144
1040
1.0
1070
40
1040
1.0
1002
}
  0
ENDSEC
  0
SECTION
  2
OBJECTS
  0
DICTIONARY
  5
C
100
AcDbDictionary
280
0
281
1
  3
ACAD_GROUP
350
D
  3
ACAD_LAYOUT
350
1A
  3
ACAD_MLINESTYLE
350
17
  3
ACAD_PLOTSETTINGS
350
19
  3
ACAD_PLOTSTYLENAME
350
E
  3
AcDbVariableDictionary
350
131
  3
QCAD_OBJECTS
350
132
  0
DICTIONARY
  5
D
100
AcDbDictionary
280
0
281
1
  0
ACDBDICTIONARYWDFLT
  5
E
100
AcDbDictionary
281
1
  3
Normal
350
F
100
AcDbDictionaryWithDefault
340
F
  0
ACDBPLACEHOLDER
  5
F
  0
DICTIONARY
  5
17
100
AcDbDictionary
280
0
281
1
  3
Standard
350
18
  0
MLINESTYLE
  5
18
100
AcDbMlineStyle
  2
STANDARD
 70
0
  3

 62
256
 51
90.0
 52
90.0
 71
2
 49
0.5
 62
256
  6
BYLAYER
 49
-0.5
 62
256
  6
BYLAYER
  0
DICTIONARY
  5
19
100
AcDbDictionary
280
0
281
1
  0
DICTIONARY
  5
1A
100
AcDbDictionary
281
1
  3
Layout1
350
1E
  3
Layout2
350
26
  3
Model
350
22
  0
LAYOUT
  5
1E
100
AcDbPlotSettings
  1

  2
none_device
  4

  6

 40
0.0
 41
0.0
 42
0.0
 43
0.0
 44
0.0
 45
0.0
 46
0.0
 47
0.0
 48
0.0
 49
0.0
140
0.0
141
0.0
142
1.0
143
1.0
 70
688
 72
0
 73
0
 74
5
  7

 75
16
147
1.0
148
0.0
149
0.0
100
AcDbLayout
  1
Layout1
 70
1
 71
1
 10
0.0
 20
0.0
 11
420.0
 21
297.0
 12
0.0
 22
0.0
 32
0.0
 14
100000000000000000000.0
 24
100000000000000000000.0
 34
100000000000000000000.0
 15
-100000000000000000000.0
 25
-100000000000000000000.0
 35
-100000000000000000000.0
146
0.0
 13
0.0
 23
0.0
 33
0.0
 16
1.0
 26
0.0
 36
0.0
 17
0.0
 27
1.0
 37
0.0
 76
0
330
1B
  0
LAYOUT
  5
22
100
AcDbPlotSettings
  1

  2
none_device
  4

  6

 40
0.0
 41
0.0
 42
0.0
 43
0.0
 44
0.0
 45
0.0
 46
0.0
 47
0.0
 48
0.0
 49
0.0
140
0.0
141
0.0
142
1.0
143
1.0
 70
1712
 72
0
 73
0
 74
0
  7

 75
0
147
1.0
148
0.0
149
0.0
100
AcDbLayout
  1
Model
 70
1
 71
0
 10
0.0
 20
0.0
 11
12.0
 21
9.0
 12
0.0
 22
0.0
 32
0.0
 14
0.0
 24
0.0
 34
0.0
 15
0.0
 25
0.0
 35
0.0
146
0.0
 13
0.0
 23
0.0
 33
0.0
 16
1.0
 26
0.0
 36
0.0
 17
0.0
 27
1.0
 37
0.0
 76
0
330
1F
  0
LAYOUT
  5
26
100
AcDbPlotSettings
  1

  2
none_device
  4

  6

 40
0.0
 41
0.0
 42
0.0
 43
0.0
 44
0.0
 45
0.0
 46
0.0
 47
0.0
 48
0.0
 49
0.0
140
0.0
141
0.0
142
1.0
143
1.0
 70
688
 72
0
 73
0
 74
5
  7

 75
16
147
1.0
148
0.0
149
0.0
100
AcDbLayout
  1
Layout2
 70
1
 71
2
 10
0.0
 20
0.0
 11
12.0
 21
9.0
 12
0.0
 22
0.0
 32
0.0
 14
0.0
 24
0.0
 34
0.0
 15
0.0
 25
0.0
 35
0.0
146
0.0
 13
0.0
 23
0.0
 33
0.0
 16
1.0
 26
0.0
 36
0.0
 17
0.0
 27
1.0
 37
0.0
 76
0
330
23
  0
DICTIONARY
  5
131
100
AcDbDictionary
281
1
  3
DIMASSOC
350
134
  3
HIDETEXT
350
133
  0
DICTIONARYVAR
  5
133
100
DictionaryVariables
280
0
  1
2
  0
DICTIONARYVAR
  5
134
100
DictionaryVariables
280
0
  1
1
  0
DICTIONARY
  5
132
100
AcDbDictionary
281
1
  3
ColorSettings/BackgroundColor
350
135
  3
ColorSettings/ColorMode
350
136
  3
DimensionSettings/AngularFormat
350
137
  3
DimensionSettings/AngularPrecision
350
138
  3
DimensionSettings/DimensionFont
350
139
  3
DimensionSettings/KeepProportions
350
13A
  3
DimensionSettings/LinearFormat
350
13B
  3
DimensionSettings/LinearPrecision
350
13C
  3
Grid/DisplayGrid00
350
13D
  3
Grid/DisplayGrid01
350
13E
  3
Grid/DisplayGrid02
350
13F
  3
Grid/DisplayGrid03
350
140
  3
Grid/GridSpacingX00
350
141
  3
Grid/GridSpacingX01
350
142
  3
Grid/GridSpacingX02
350
143
  3
Grid/GridSpacingX03
350
144
  3
Grid/GridSpacingY00
350
145
  3
Grid/GridSpacingY01
350
146
  3
Grid/GridSpacingY02
350
147
  3
Grid/GridSpacingY03
350
148
  3
Grid/IsometricGrid00
350
149
  3
Grid/IsometricGrid01
350
14A
  3
Grid/IsometricGrid02
350
14B
  3
Grid/IsometricGrid03
350
14C
  3
Grid/IsometricProjection00
350
14D
  3
Grid/IsometricProjection01
350
14E
  3
Grid/IsometricProjection02
350
14F
  3
Grid/IsometricProjection03
350
150
  3
Grid/MetaGridSpacingX00
350
151
  3
Grid/MetaGridSpacingX01
350
152
  3
Grid/MetaGridSpacingX02
350
153
  3
Grid/MetaGridSpacingX03
350
154
  3
Grid/MetaGridSpacingY00
350
155
  3
Grid/MetaGridSpacingY01
350
156
  3
Grid/MetaGridSpacingY02
350
157
  3
Grid/MetaGridSpacingY03
350
158
  3
MultiPageSettings/Columns
350
159
  3
MultiPageSettings/GlueMarginsBottom
350
15A
  3
MultiPageSettings/GlueMarginsLeft
350
15B
  3
MultiPageSettings/GlueMarginsRight
350
15C
  3
MultiPageSettings/GlueMarginsTop
350
15D
  3
MultiPageSettings/PrintCropMarks
350
15E
  3
MultiPageSettings/Rows
350
15F
  3
PageSettings/OffsetX
350
160
  3
PageSettings/OffsetY
350
161
  3
PageSettings/PageOrientation
350
162
  3
PageSettings/PaperHeight
350
163
  3
PageSettings/PaperSizeName
350
164
  3
PageSettings/PaperWidth
350
165
  3
PageSettings/Scale
350
166
  3
PageSettings/ShowPaperBorders
350
167
  3
QCADVersion
350
168
  3
UnitSettings/PaperUnit
350
169
  3
ViewportCenter
350
16A
  3
ViewportHeight
350
16B
  3
ViewportWidth
350
16C
  0
XRECORD
  5
135
330
132
100
AcDbXrecord
280
1
1000
White
  0
XRECORD
  5
136
330
132
100
AcDbXrecord
280
1
1000
FullColor
  0
XRECORD
  5
137
330
132
100
AcDbXrecord
280
1
 90
0
  0
XRECORD
  5
138
330
132
100
AcDbXrecord
280
1
 90
0
  0
XRECORD
  5
139
330
132
100
AcDbXrecord
280
1
1000
DejaVu Sans
  0
XRECORD
  5
13A
330
132
100
AcDbXrecord
280
1
290
1
  0
XRECORD
  5
13B
330
132
100
AcDbXrecord
280
1
 90
2
  0
XRECORD
  5
13C
330
132
100
AcDbXrecord
280
1
 90
2
  0
XRECORD
  5
13D
330
132
100
AcDbXrecord
280
1
290
0
  0
XRECORD
  5
13E
330
132
100
AcDbXrecord
280
1
290
1
  0
XRECORD
  5
13F
330
132
100
AcDbXrecord
280
1
290
1
  0
XRECORD
  5
140
330
132
100
AcDbXrecord
280
1
290
1
  0
XRECORD
  5
141
330
132
100
AcDbXrecord
280
1
1000
1
  0
XRECORD
  5
142
330
132
100
AcDbXrecord
280
1
1000
auto
  0
XRECORD
  5
143
330
132
100
AcDbXrecord
280
1
1000
auto
  0
XRECORD
  5
144
330
132
100
AcDbXrecord
280
1
1000
auto
  0
XRECORD
  5
145
330
132
100
AcDbXrecord
280
1
1000
1
  0
XRECORD
  5
146
330
132
100
AcDbXrecord
280
1
1000
auto
  0
XRECORD
  5
147
330
132
100
AcDbXrecord
280
1
1000
auto
  0
XRECORD
  5
148
330
132
100
AcDbXrecord
280
1
1000
auto
  0
XRECORD
  5
149
330
132
100
AcDbXrecord
280
1
290
0
  0
XRECORD
  5
14A
330
132
100
AcDbXrecord
280
1
290
0
  0
XRECORD
  5
14B
330
132
100
AcDbXrecord
280
1
290
0
  0
XRECORD
  5
14C
330
132
100
AcDbXrecord
280
1
290
0
  0
XRECORD
  5
14D
330
132
100
AcDbXrecord
280
1
 90
0
  0
XRECORD
  5
14E
330
132
100
AcDbXrecord
280
1
 90
0
  0
XRECORD
  5
14F
330
132
100
AcDbXrecord
280
1
 90
0
  0
XRECORD
  5
150
330
132
100
AcDbXrecord
280
1
 90
0
  0
XRECORD
  5
151
330
132
100
AcDbXrecord
280
1
1000
auto
  0
XRECORD
  5
152
330
132
100
AcDbXrecord
280
1
1000
auto
  0
XRECORD
  5
153
330
132
100
AcDbXrecord
280
1
1000
auto
  0
XRECORD
  5
154
330
132
100
AcDbXrecord
280
1
1000
auto
  0
XRECORD
  5
155
330
132
100
AcDbXrecord
280
1
1000
auto
  0
XRECORD
  5
156
330
132
100
AcDbXrecord
280
1
1000
auto
  0
XRECORD
  5
157
330
132
100
AcDbXrecord
280
1
1000
auto
  0
XRECORD
  5
158
330
132
100
AcDbXrecord
280
1
1000
auto
  0
XRECORD
  5
159
330
132
100
AcDbXrecord
280
1
 90
1
  0
XRECORD
  5
15A
330
132
100
AcDbXrecord
280
1
 40
10.0
  0
XRECORD
  5
15B
330
132
100
AcDbXrecord
280
1
 40
10.0
  0
XRECORD
  5
15C
330
132
100
AcDbXrecord
280
1
 40
10.0
  0
XRECORD
  5
15D
330
132
100
AcDbXrecord
280
1
 40
10.0
  0
XRECORD
  5
15E
330
132
100
AcDbXrecord
280
1
290
0
  0
XRECORD
  5
15F
330
132
100
AcDbXrecord
280
1
 90
1
  0
XRECORD
  5
160
330
132
100
AcDbXrecord
280
1
 40
0.0
  0
XRECORD
  5
161
330
132
100
AcDbXrecord
280
1
 40
0.0
  0
XRECORD
  5
162
330
132
100
AcDbXrecord
280
1
1000
Landscape
  0
XRECORD
  5
163
330
132
100
AcDbXrecord
280
1
1000
420
  0
XRECORD
  5
164
330
132
100
AcDbXrecord
280
1
1000
ISO A3
  0
XRECORD
  5
165
330
132
100
AcDbXrecord
280
1
1000
297
  0
XRECORD
  5
166
330
132
100
AcDbXrecord
280
1
1000
1:1
  0
XRECORD
  5
167
330
132
100
AcDbXrecord
280
1
290
1
  0
XRECORD
  5
168
330
132
100
AcDbXrecord
280
1
1000
3.15.5
  0
XRECORD
  5
169
330
132
100
AcDbXrecord
280
1
 90
4
  0
XRECORD
  5
16B
330
132
100
AcDbXrecord
280
1
 40
131.4357884336696429
  0
XRECORD
  5
16C
330
132
100
AcDbXrecord
280
1
 40
305.2186697973361902
  0
IMAGEDEF
  5
89
100
AcDbRasterImageDef
 90
0
  1
/home/mskala/octave-switch/docs/panel-art.png
 10
40.0
 20
128.0
 11
1.0
 21
1.0
280
1
281
0
  0
ENDSEC
  0
EOF
